<?xml version="1.0" encoding="UTF-8" standalone="no"?>
<!DOCTYPE svg PUBLIC "-//W3C//DTD SVG 1.1//EN"
 "http://www.w3.org/Graphics/SVG/1.1/DTD/svg11.dtd">
<!-- Generated by graphviz version 2.43.0 (0)
 -->
<!-- Title: %3 Pages: 1 -->
<svg width="514pt" height="308pt"
 viewBox="0.00 0.00 514.29 308.08" xmlns="http://www.w3.org/2000/svg" xmlns:xlink="http://www.w3.org/1999/xlink">
<g id="graph0" class="graph" transform="scale(1 1) rotate(0) translate(4 304.08)">
<title>%3</title>
<polygon fill="white" stroke="transparent" points="-4,4 -4,-304.08 510.29,-304.08 510.29,4 -4,4"/>
<g id="clust1" class="cluster">
<title>cluster8</title>
<path fill="none" stroke="black" d="M202.22,-89.13C202.22,-89.13 332.22,-89.13 332.22,-89.13 338.22,-89.13 344.22,-95.13 344.22,-101.13 344.22,-101.13 344.22,-280.08 344.22,-280.08 344.22,-286.08 338.22,-292.08 332.22,-292.08 332.22,-292.08 202.22,-292.08 202.22,-292.08 196.22,-292.08 190.22,-286.08 190.22,-280.08 190.22,-280.08 190.22,-101.13 190.22,-101.13 190.22,-95.13 196.22,-89.13 202.22,-89.13"/>
<text text-anchor="middle" x="331.22" y="-96.93" font-family="Times,serif" font-size="14.00">8</text>
</g>
<!-- sigma_omega_1 -->
<g id="node1" class="node">
<title>sigma_omega_1</title>
<ellipse fill="none" stroke="black" cx="91.22" cy="-246.61" rx="91.43" ry="37.45"/>
<text text-anchor="middle" x="91.22" y="-257.91" font-family="Times,serif" font-size="14.00">sigma_omega_1</text>
<text text-anchor="middle" x="91.22" y="-242.91" font-family="Times,serif" font-size="14.00">~</text>
<text text-anchor="middle" x="91.22" y="-227.91" font-family="Times,serif" font-size="14.00">HalfCauchy</text>
</g>
<!-- tonic_volatility_1 -->
<g id="node5" class="node">
<title>tonic_volatility_1</title>
<polygon fill="none" stroke="black" points="335.72,-173.13 198.72,-173.13 198.72,-120.13 335.72,-120.13 335.72,-173.13"/>
<text text-anchor="middle" x="267.22" y="-157.93" font-family="Times,serif" font-size="14.00">tonic_volatility_1</text>
<text text-anchor="middle" x="267.22" y="-142.93" font-family="Times,serif" font-size="14.00">~</text>
<text text-anchor="middle" x="267.22" y="-127.93" font-family="Times,serif" font-size="14.00">Deterministic</text>
</g>
<!-- sigma_omega_1&#45;&gt;tonic_volatility_1 -->
<g id="edge1" class="edge">
<title>sigma_omega_1&#45;&gt;tonic_volatility_1</title>
<path fill="none" stroke="black" d="M144.5,-215.94C166.02,-203.96 190.84,-190.15 212.5,-178.09"/>
<polygon fill="black" stroke="black" points="214.22,-181.14 221.26,-173.21 210.82,-175.02 214.22,-181.14"/>
</g>
<!-- hgf_loglike -->
<g id="node2" class="node">
<title>hgf_loglike</title>
<polygon fill="lightgrey" stroke="black" points="339.11,-23.74 339.11,-57.39 296.99,-81.19 237.44,-81.19 195.33,-57.39 195.33,-23.74 237.44,0.06 296.99,0.06 339.11,-23.74"/>
<text text-anchor="middle" x="267.22" y="-51.86" font-family="Times,serif" font-size="14.00">hgf_loglike</text>
<text text-anchor="middle" x="267.22" y="-36.86" font-family="Times,serif" font-size="14.00">~</text>
<text text-anchor="middle" x="267.22" y="-21.86" font-family="Times,serif" font-size="14.00">Potential</text>
</g>
<!-- mu_omega_1 -->
<g id="node3" class="node">
<title>mu_omega_1</title>
<ellipse fill="none" stroke="black" cx="429.22" cy="-246.61" rx="77.15" ry="37.45"/>
<text text-anchor="middle" x="429.22" y="-257.91" font-family="Times,serif" font-size="14.00">mu_omega_1</text>
<text text-anchor="middle" x="429.22" y="-242.91" font-family="Times,serif" font-size="14.00">~</text>
<text text-anchor="middle" x="429.22" y="-227.91" font-family="Times,serif" font-size="14.00">Normal</text>
</g>
<!-- mu_omega_1&#45;&gt;tonic_volatility_1 -->
<g id="edge3" class="edge">
<title>mu_omega_1&#45;&gt;tonic_volatility_1</title>
<path fill="none" stroke="black" d="M381.92,-217C361.99,-204.95 338.75,-190.89 318.41,-178.59"/>
<polygon fill="black" stroke="black" points="319.97,-175.44 309.6,-173.26 316.34,-181.43 319.97,-175.44"/>
</g>
<!-- offset -->
<g id="node4" class="node">
<title>offset</title>
<ellipse fill="none" stroke="black" cx="267.22" cy="-246.61" rx="49.49" ry="37.45"/>
<text text-anchor="middle" x="267.22" y="-257.91" font-family="Times,serif" font-size="14.00">offset</text>
<text text-anchor="middle" x="267.22" y="-242.91" font-family="Times,serif" font-size="14.00">~</text>
<text text-anchor="middle" x="267.22" y="-227.91" font-family="Times,serif" font-size="14.00">Normal</text>
</g>
<!-- offset&#45;&gt;tonic_volatility_1 -->
<g id="edge2" class="edge">
<title>offset&#45;&gt;tonic_volatility_1</title>
<path fill="none" stroke="black" d="M267.22,-209.12C267.22,-200.71 267.22,-191.76 267.22,-183.38"/>
<polygon fill="black" stroke="black" points="270.72,-183.14 267.22,-173.14 263.72,-183.14 270.72,-183.14"/>
</g>
<!-- tonic_volatility_1&#45;&gt;hgf_loglike -->
<g id="edge4" class="edge">
<title>tonic_volatility_1&#45;&gt;hgf_loglike</title>
<path fill="none" stroke="black" d="M267.22,-119.91C267.22,-111.24 267.22,-101.25 267.22,-91.37"/>
<polygon fill="black" stroke="black" points="270.72,-91.17 267.22,-81.17 263.72,-91.17 270.72,-91.17"/>
</g>
</g>
</svg>