<?xml version="1.0" encoding="UTF-8" standalone="no"?>
<!DOCTYPE svg PUBLIC "-//W3C//DTD SVG 1.1//EN"
 "http://www.w3.org/Graphics/SVG/1.1/DTD/svg11.dtd">
<!-- Generated by graphviz version 2.43.0 (0)
 -->
<!-- Title: %3 Pages: 1 -->
<svg width="375pt" height="200pt"
 viewBox="0.00 0.00 374.97 200.08" xmlns="http://www.w3.org/2000/svg" xmlns:xlink="http://www.w3.org/1999/xlink">
<g id="graph0" class="graph" transform="scale(1 1) rotate(0) translate(4 196.08)">
<title>%3</title>
<polygon fill="white" stroke="transparent" points="-4,4 -4,-196.08 370.97,-196.08 370.97,4 -4,4"/>
<!-- omega_2 -->
<g id="node1" class="node">
<title>omega_2</title>
<ellipse fill="none" stroke="black" cx="59.4" cy="-154.61" rx="59.29" ry="37.45"/>
<text text-anchor="middle" x="59.4" y="-165.91" font-family="Times,serif" font-size="14.00">omega_2</text>
<text text-anchor="middle" x="59.4" y="-150.91" font-family="Times,serif" font-size="14.00">~</text>
<text text-anchor="middle" x="59.4" y="-135.91" font-family="Times,serif" font-size="14.00">Censored</text>
</g>
<!-- hhgf_loglike -->
<g id="node3" class="node">
<title>hhgf_loglike</title>
<polygon fill="lightgrey" stroke="black" points="265.06,-23.74 265.06,-57.39 218.98,-81.19 153.81,-81.19 107.73,-57.39 107.73,-23.74 153.81,0.06 218.98,0.06 265.06,-23.74"/>
<text text-anchor="middle" x="186.4" y="-51.86" font-family="Times,serif" font-size="14.00">hhgf_loglike</text>
<text text-anchor="middle" x="186.4" y="-36.86" font-family="Times,serif" font-size="14.00">~</text>
<text text-anchor="middle" x="186.4" y="-21.86" font-family="Times,serif" font-size="14.00">Potential</text>
</g>
<!-- omega_2&#45;&gt;hhgf_loglike -->
<g id="edge1" class="edge">
<title>omega_2&#45;&gt;hhgf_loglike</title>
<path fill="none" stroke="black" d="M93.43,-123.58C107.2,-111.44 123.33,-97.2 138.27,-84.03"/>
<polygon fill="black" stroke="black" points="140.76,-86.49 145.95,-77.25 136.13,-81.24 140.76,-86.49"/>
</g>
<!-- mu_1 -->
<g id="node2" class="node">
<title>mu_1</title>
<ellipse fill="none" stroke="black" cx="186.4" cy="-154.61" rx="49.49" ry="37.45"/>
<text text-anchor="middle" x="186.4" y="-165.91" font-family="Times,serif" font-size="14.00">mu_1</text>
<text text-anchor="middle" x="186.4" y="-150.91" font-family="Times,serif" font-size="14.00">~</text>
<text text-anchor="middle" x="186.4" y="-135.91" font-family="Times,serif" font-size="14.00">Normal</text>
</g>
<!-- mu_1&#45;&gt;hhgf_loglike -->
<g id="edge2" class="edge">
<title>mu_1&#45;&gt;hhgf_loglike</title>
<path fill="none" stroke="black" d="M186.4,-116.92C186.4,-108.84 186.4,-100.16 186.4,-91.65"/>
<polygon fill="black" stroke="black" points="189.9,-91.43 186.4,-81.43 182.9,-91.43 189.9,-91.43"/>
</g>
<!-- omega_1 -->
<g id="node4" class="node">
<title>omega_1</title>
<ellipse fill="none" stroke="black" cx="310.4" cy="-154.61" rx="56.64" ry="37.45"/>
<text text-anchor="middle" x="310.4" y="-165.91" font-family="Times,serif" font-size="14.00">omega_1</text>
<text text-anchor="middle" x="310.4" y="-150.91" font-family="Times,serif" font-size="14.00">~</text>
<text text-anchor="middle" x="310.4" y="-135.91" font-family="Times,serif" font-size="14.00">Normal</text>
</g>
<!-- omega_1&#45;&gt;hhgf_loglike -->
<g id="edge3" class="edge">
<title>omega_1&#45;&gt;hhgf_loglike</title>
<path fill="none" stroke="black" d="M277.49,-123.87C264.17,-111.84 248.54,-97.71 234.01,-84.59"/>
<polygon fill="black" stroke="black" points="236.31,-81.94 226.54,-77.84 231.61,-87.14 236.31,-81.94"/>
</g>
</g>
</svg>