<?xml version="1.0" encoding="UTF-8" standalone="no"?>
<!DOCTYPE svg PUBLIC "-//W3C//DTD SVG 1.1//EN"
 "http://www.w3.org/Graphics/SVG/1.1/DTD/svg11.dtd">
<!-- Generated by graphviz version 2.43.0 (0)
 -->
<!-- Title: %3 Pages: 1 -->
<svg width="746pt" height="200pt"
 viewBox="0.00 0.00 746.07 200.08" xmlns="http://www.w3.org/2000/svg" xmlns:xlink="http://www.w3.org/1999/xlink">
<g id="graph0" class="graph" transform="scale(1 1) rotate(0) translate(4 196.08)">
<title>%3</title>
<polygon fill="white" stroke="transparent" points="-4,4 -4,-196.08 742.07,-196.08 742.07,4 -4,4"/>
<!-- omega_1 -->
<g id="node1" class="node">
<title>omega_1</title>
<ellipse fill="none" stroke="black" cx="56.57" cy="-154.61" rx="56.64" ry="37.45"/>
<text text-anchor="middle" x="56.57" y="-165.91" font-family="Times,serif" font-size="14.00">omega_1</text>
<text text-anchor="middle" x="56.57" y="-150.91" font-family="Times,serif" font-size="14.00">~</text>
<text text-anchor="middle" x="56.57" y="-135.91" font-family="Times,serif" font-size="14.00">Normal</text>
</g>
<!-- hgf_loglike -->
<g id="node5" class="node">
<title>hgf_loglike</title>
<polygon fill="lightgrey" stroke="black" points="447.46,-23.74 447.46,-57.39 405.35,-81.19 345.79,-81.19 303.68,-57.39 303.68,-23.74 345.79,0.06 405.35,0.06 447.46,-23.74"/>
<text text-anchor="middle" x="375.57" y="-51.86" font-family="Times,serif" font-size="14.00">hgf_loglike</text>
<text text-anchor="middle" x="375.57" y="-36.86" font-family="Times,serif" font-size="14.00">~</text>
<text text-anchor="middle" x="375.57" y="-21.86" font-family="Times,serif" font-size="14.00">Potential</text>
</g>
<!-- omega_1&#45;&gt;hgf_loglike -->
<g id="edge3" class="edge">
<title>omega_1&#45;&gt;hgf_loglike</title>
<path fill="none" stroke="black" d="M98.15,-128.87C106.11,-124.64 114.48,-120.53 122.57,-117.13 178.74,-93.54 244.77,-74.08 295.28,-60.82"/>
<polygon fill="black" stroke="black" points="296.37,-64.15 305.17,-58.25 294.61,-57.38 296.37,-64.15"/>
</g>
<!-- mu_2 -->
<g id="node2" class="node">
<title>mu_2</title>
<ellipse fill="none" stroke="black" cx="180.57" cy="-154.61" rx="49.49" ry="37.45"/>
<text text-anchor="middle" x="180.57" y="-165.91" font-family="Times,serif" font-size="14.00">mu_2</text>
<text text-anchor="middle" x="180.57" y="-150.91" font-family="Times,serif" font-size="14.00">~</text>
<text text-anchor="middle" x="180.57" y="-135.91" font-family="Times,serif" font-size="14.00">Normal</text>
</g>
<!-- mu_2&#45;&gt;hgf_loglike -->
<g id="edge2" class="edge">
<title>mu_2&#45;&gt;hgf_loglike</title>
<path fill="none" stroke="black" d="M218.18,-129.99C225.25,-125.65 232.61,-121.21 239.57,-117.13 264.15,-102.71 291.58,-87.34 315.32,-74.25"/>
<polygon fill="black" stroke="black" points="317.15,-77.24 324.23,-69.35 313.78,-71.1 317.15,-77.24"/>
</g>
<!-- omega_3 -->
<g id="node3" class="node">
<title>omega_3</title>
<ellipse fill="none" stroke="black" cx="307.57" cy="-154.61" rx="59.29" ry="37.45"/>
<text text-anchor="middle" x="307.57" y="-165.91" font-family="Times,serif" font-size="14.00">omega_3</text>
<text text-anchor="middle" x="307.57" y="-150.91" font-family="Times,serif" font-size="14.00">~</text>
<text text-anchor="middle" x="307.57" y="-135.91" font-family="Times,serif" font-size="14.00">Censored</text>
</g>
<!-- omega_3&#45;&gt;hgf_loglike -->
<g id="edge4" class="edge">
<title>omega_3&#45;&gt;hgf_loglike</title>
<path fill="none" stroke="black" d="M328.34,-119.38C333.96,-110.12 340.15,-99.92 346.15,-90.04"/>
<polygon fill="black" stroke="black" points="349.15,-91.84 351.35,-81.48 343.17,-88.21 349.15,-91.84"/>
</g>
<!-- omega_2 -->
<g id="node4" class="node">
<title>omega_2</title>
<ellipse fill="none" stroke="black" cx="444.57" cy="-154.61" rx="59.29" ry="37.45"/>
<text text-anchor="middle" x="444.57" y="-165.91" font-family="Times,serif" font-size="14.00">omega_2</text>
<text text-anchor="middle" x="444.57" y="-150.91" font-family="Times,serif" font-size="14.00">~</text>
<text text-anchor="middle" x="444.57" y="-135.91" font-family="Times,serif" font-size="14.00">Censored</text>
</g>
<!-- omega_2&#45;&gt;hgf_loglike -->
<g id="edge1" class="edge">
<title>omega_2&#45;&gt;hgf_loglike</title>
<path fill="none" stroke="black" d="M423.49,-119.38C417.79,-110.12 411.51,-99.92 405.42,-90.04"/>
<polygon fill="black" stroke="black" points="408.37,-88.15 400.15,-81.48 402.41,-91.83 408.37,-88.15"/>
</g>
<!-- mu_1 -->
<g id="node6" class="node">
<title>mu_1</title>
<ellipse fill="none" stroke="black" cx="571.57" cy="-154.61" rx="49.49" ry="37.45"/>
<text text-anchor="middle" x="571.57" y="-165.91" font-family="Times,serif" font-size="14.00">mu_1</text>
<text text-anchor="middle" x="571.57" y="-150.91" font-family="Times,serif" font-size="14.00">~</text>
<text text-anchor="middle" x="571.57" y="-135.91" font-family="Times,serif" font-size="14.00">Normal</text>
</g>
<!-- mu_1&#45;&gt;hgf_loglike -->
<g id="edge5" class="edge">
<title>mu_1&#45;&gt;hgf_loglike</title>
<path fill="none" stroke="black" d="M533.97,-129.97C526.9,-125.64 519.53,-121.2 512.57,-117.13 487.72,-102.61 459.97,-87.16 435.98,-74.04"/>
<polygon fill="black" stroke="black" points="437.43,-70.85 426.98,-69.14 434.08,-77 437.43,-70.85"/>
</g>
<!-- mu_3 -->
<g id="node7" class="node">
<title>mu_3</title>
<ellipse fill="none" stroke="black" cx="688.57" cy="-154.61" rx="49.49" ry="37.45"/>
<text text-anchor="middle" x="688.57" y="-165.91" font-family="Times,serif" font-size="14.00">mu_3</text>
<text text-anchor="middle" x="688.57" y="-150.91" font-family="Times,serif" font-size="14.00">~</text>
<text text-anchor="middle" x="688.57" y="-135.91" font-family="Times,serif" font-size="14.00">Normal</text>
</g>
<!-- mu_3&#45;&gt;hgf_loglike -->
<g id="edge6" class="edge">
<title>mu_3&#45;&gt;hgf_loglike</title>
<path fill="none" stroke="black" d="M652.25,-129.09C644.93,-124.74 637.15,-120.53 629.57,-117.13 574.07,-92.25 508.17,-72.92 457.4,-60.04"/>
<polygon fill="black" stroke="black" points="458,-56.58 447.45,-57.55 456.3,-63.37 458,-56.58"/>
</g>
</g>
</svg>