<?xml version="1.0" encoding="UTF-8" standalone="no"?>
<!DOCTYPE svg PUBLIC "-//W3C//DTD SVG 1.1//EN"
 "http://www.w3.org/Graphics/SVG/1.1/DTD/svg11.dtd">
<!-- Generated by graphviz version 2.43.0 (0)
 -->
<!-- Title: %3 Pages: 1 -->
<svg width="490pt" height="308pt"
 viewBox="0.00 0.00 490.29 308.08" xmlns="http://www.w3.org/2000/svg" xmlns:xlink="http://www.w3.org/1999/xlink">
<g id="graph0" class="graph" transform="scale(1 1) rotate(0) translate(4 304.08)">
<title>%3</title>
<polygon fill="white" stroke="transparent" points="-4,4 -4,-304.08 486.29,-304.08 486.29,4 -4,4"/>
<g id="clust1" class="cluster">
<title>cluster5</title>
<path fill="none" stroke="black" d="M174.07,-89.13C174.07,-89.13 280.07,-89.13 280.07,-89.13 286.07,-89.13 292.07,-95.13 292.07,-101.13 292.07,-101.13 292.07,-280.08 292.07,-280.08 292.07,-286.08 286.07,-292.08 280.07,-292.08 280.07,-292.08 174.07,-292.08 174.07,-292.08 168.07,-292.08 162.07,-286.08 162.07,-280.08 162.07,-280.08 162.07,-101.13 162.07,-101.13 162.07,-95.13 168.07,-89.13 174.07,-89.13"/>
<text text-anchor="middle" x="279.07" y="-96.93" font-family="Times,serif" font-size="14.00">5</text>
</g>
<!-- mu_omega_1 -->
<g id="node1" class="node">
<title>mu_omega_1</title>
<ellipse fill="none" stroke="black" cx="77.07" cy="-246.61" rx="77.15" ry="37.45"/>
<text text-anchor="middle" x="77.07" y="-257.91" font-family="Times,serif" font-size="14.00">mu_omega_1</text>
<text text-anchor="middle" x="77.07" y="-242.91" font-family="Times,serif" font-size="14.00">~</text>
<text text-anchor="middle" x="77.07" y="-227.91" font-family="Times,serif" font-size="14.00">Uniform</text>
</g>
<!-- omega_2 -->
<g id="node4" class="node">
<title>omega_2</title>
<polygon fill="none" stroke="black" points="284.07,-173.13 170.07,-173.13 170.07,-120.13 284.07,-120.13 284.07,-173.13"/>
<text text-anchor="middle" x="227.07" y="-157.93" font-family="Times,serif" font-size="14.00">omega_2</text>
<text text-anchor="middle" x="227.07" y="-142.93" font-family="Times,serif" font-size="14.00">~</text>
<text text-anchor="middle" x="227.07" y="-127.93" font-family="Times,serif" font-size="14.00">Deterministic</text>
</g>
<!-- mu_omega_1&#45;&gt;omega_2 -->
<g id="edge1" class="edge">
<title>mu_omega_1&#45;&gt;omega_2</title>
<path fill="none" stroke="black" d="M122.49,-215.94C140.42,-204.23 161.04,-190.76 179.21,-178.9"/>
<polygon fill="black" stroke="black" points="181.45,-181.61 187.9,-173.21 177.62,-175.75 181.45,-181.61"/>
</g>
<!-- hgf_loglike -->
<g id="node2" class="node">
<title>hgf_loglike</title>
<polygon fill="lightgrey" stroke="black" points="298.96,-23.74 298.96,-57.39 256.85,-81.19 197.3,-81.19 155.19,-57.39 155.19,-23.74 197.3,0.06 256.85,0.06 298.96,-23.74"/>
<text text-anchor="middle" x="227.07" y="-51.86" font-family="Times,serif" font-size="14.00">hgf_loglike</text>
<text text-anchor="middle" x="227.07" y="-36.86" font-family="Times,serif" font-size="14.00">~</text>
<text text-anchor="middle" x="227.07" y="-21.86" font-family="Times,serif" font-size="14.00">Potential</text>
</g>
<!-- sigma_omega_1 -->
<g id="node3" class="node">
<title>sigma_omega_1</title>
<ellipse fill="none" stroke="black" cx="391.07" cy="-246.61" rx="91.43" ry="37.45"/>
<text text-anchor="middle" x="391.07" y="-257.91" font-family="Times,serif" font-size="14.00">sigma_omega_1</text>
<text text-anchor="middle" x="391.07" y="-242.91" font-family="Times,serif" font-size="14.00">~</text>
<text text-anchor="middle" x="391.07" y="-227.91" font-family="Times,serif" font-size="14.00">HalfCauchy</text>
</g>
<!-- sigma_omega_1&#45;&gt;omega_2 -->
<g id="edge3" class="edge">
<title>sigma_omega_1&#45;&gt;omega_2</title>
<path fill="none" stroke="black" d="M340.08,-215.14C320.51,-203.45 298.18,-190.11 278.56,-178.39"/>
<polygon fill="black" stroke="black" points="280.14,-175.26 269.76,-173.13 276.55,-181.26 280.14,-175.26"/>
</g>
<!-- omega_2&#45;&gt;hgf_loglike -->
<g id="edge4" class="edge">
<title>omega_2&#45;&gt;hgf_loglike</title>
<path fill="none" stroke="black" d="M227.07,-119.91C227.07,-111.24 227.07,-101.25 227.07,-91.37"/>
<polygon fill="black" stroke="black" points="230.57,-91.17 227.07,-81.17 223.57,-91.17 230.57,-91.17"/>
</g>
<!-- offset -->
<g id="node5" class="node">
<title>offset</title>
<ellipse fill="none" stroke="black" cx="227.07" cy="-246.61" rx="49.49" ry="37.45"/>
<text text-anchor="middle" x="227.07" y="-257.91" font-family="Times,serif" font-size="14.00">offset</text>
<text text-anchor="middle" x="227.07" y="-242.91" font-family="Times,serif" font-size="14.00">~</text>
<text text-anchor="middle" x="227.07" y="-227.91" font-family="Times,serif" font-size="14.00">Normal</text>
</g>
<!-- offset&#45;&gt;omega_2 -->
<g id="edge2" class="edge">
<title>offset&#45;&gt;omega_2</title>
<path fill="none" stroke="black" d="M227.07,-209.12C227.07,-200.71 227.07,-191.76 227.07,-183.38"/>
<polygon fill="black" stroke="black" points="230.57,-183.14 227.07,-173.14 223.57,-183.14 230.57,-183.14"/>
</g>
</g>
</svg>