<?xml version="1.0" encoding="UTF-8" standalone="no"?>
<!DOCTYPE svg PUBLIC "-//W3C//DTD SVG 1.1//EN"
 "http://www.w3.org/Graphics/SVG/1.1/DTD/svg11.dtd">
<!-- Generated by graphviz version 2.43.0 (0)
 -->
<!-- Title: %3 Pages: 1 -->
<svg width="746pt" height="200pt"
 viewBox="0.00 0.00 745.79 200.08" xmlns="http://www.w3.org/2000/svg" xmlns:xlink="http://www.w3.org/1999/xlink">
<g id="graph0" class="graph" transform="scale(1 1) rotate(0) translate(4 196.08)">
<title>%3</title>
<polygon fill="white" stroke="transparent" points="-4,4 -4,-196.08 741.79,-196.08 741.79,4 -4,4"/>
<!-- omega_2 -->
<g id="node1" class="node">
<title>omega_2</title>
<ellipse fill="none" stroke="black" cx="59.4" cy="-154.61" rx="59.29" ry="37.45"/>
<text text-anchor="middle" x="59.4" y="-165.91" font-family="Times,serif" font-size="14.00">omega_2</text>
<text text-anchor="middle" x="59.4" y="-150.91" font-family="Times,serif" font-size="14.00">~</text>
<text text-anchor="middle" x="59.4" y="-135.91" font-family="Times,serif" font-size="14.00">Censored</text>
</g>
<!-- hgf_loglike -->
<g id="node6" class="node">
<title>hgf_loglike</title>
<polygon fill="lightgrey" stroke="black" points="447.29,-23.74 447.29,-57.39 405.17,-81.19 345.62,-81.19 303.51,-57.39 303.51,-23.74 345.62,0.06 405.17,0.06 447.29,-23.74"/>
<text text-anchor="middle" x="375.4" y="-51.86" font-family="Times,serif" font-size="14.00">hgf_loglike</text>
<text text-anchor="middle" x="375.4" y="-36.86" font-family="Times,serif" font-size="14.00">~</text>
<text text-anchor="middle" x="375.4" y="-21.86" font-family="Times,serif" font-size="14.00">Potential</text>
</g>
<!-- omega_2&#45;&gt;hgf_loglike -->
<g id="edge1" class="edge">
<title>omega_2&#45;&gt;hgf_loglike</title>
<path fill="none" stroke="black" d="M102.68,-128.76C110.76,-124.59 119.23,-120.52 127.4,-117.13 182.43,-94.25 246.89,-74.82 296.29,-61.39"/>
<polygon fill="black" stroke="black" points="297.22,-64.77 305.97,-58.79 295.4,-58.01 297.22,-64.77"/>
</g>
<!-- omega_1 -->
<g id="node2" class="node">
<title>omega_1</title>
<ellipse fill="none" stroke="black" cx="193.4" cy="-154.61" rx="56.64" ry="37.45"/>
<text text-anchor="middle" x="193.4" y="-165.91" font-family="Times,serif" font-size="14.00">omega_1</text>
<text text-anchor="middle" x="193.4" y="-150.91" font-family="Times,serif" font-size="14.00">~</text>
<text text-anchor="middle" x="193.4" y="-135.91" font-family="Times,serif" font-size="14.00">Normal</text>
</g>
<!-- omega_1&#45;&gt;hgf_loglike -->
<g id="edge4" class="edge">
<title>omega_1&#45;&gt;hgf_loglike</title>
<path fill="none" stroke="black" d="M234.24,-128.46C259.11,-113.15 291.25,-93.36 318.58,-76.54"/>
<polygon fill="black" stroke="black" points="320.59,-79.41 327.27,-71.19 316.92,-73.45 320.59,-79.41"/>
</g>
<!-- mu_3 -->
<g id="node3" class="node">
<title>mu_3</title>
<ellipse fill="none" stroke="black" cx="317.4" cy="-154.61" rx="49.49" ry="37.45"/>
<text text-anchor="middle" x="317.4" y="-165.91" font-family="Times,serif" font-size="14.00">mu_3</text>
<text text-anchor="middle" x="317.4" y="-150.91" font-family="Times,serif" font-size="14.00">~</text>
<text text-anchor="middle" x="317.4" y="-135.91" font-family="Times,serif" font-size="14.00">Normal</text>
</g>
<!-- mu_3&#45;&gt;hgf_loglike -->
<g id="edge5" class="edge">
<title>mu_3&#45;&gt;hgf_loglike</title>
<path fill="none" stroke="black" d="M335.11,-119.38C339.81,-110.31 344.97,-100.34 349.99,-90.64"/>
<polygon fill="black" stroke="black" points="353.25,-91.96 354.74,-81.48 347.03,-88.75 353.25,-91.96"/>
</g>
<!-- mu_2 -->
<g id="node4" class="node">
<title>mu_2</title>
<ellipse fill="none" stroke="black" cx="434.4" cy="-154.61" rx="49.49" ry="37.45"/>
<text text-anchor="middle" x="434.4" y="-165.91" font-family="Times,serif" font-size="14.00">mu_2</text>
<text text-anchor="middle" x="434.4" y="-150.91" font-family="Times,serif" font-size="14.00">~</text>
<text text-anchor="middle" x="434.4" y="-135.91" font-family="Times,serif" font-size="14.00">Normal</text>
</g>
<!-- mu_2&#45;&gt;hgf_loglike -->
<g id="edge6" class="edge">
<title>mu_2&#45;&gt;hgf_loglike</title>
<path fill="none" stroke="black" d="M416.37,-119.38C411.55,-110.22 406.24,-100.13 401.08,-90.34"/>
<polygon fill="black" stroke="black" points="404.17,-88.69 396.41,-81.48 397.98,-91.95 404.17,-88.69"/>
</g>
<!-- mu_1 -->
<g id="node5" class="node">
<title>mu_1</title>
<ellipse fill="none" stroke="black" cx="551.4" cy="-154.61" rx="49.49" ry="37.45"/>
<text text-anchor="middle" x="551.4" y="-165.91" font-family="Times,serif" font-size="14.00">mu_1</text>
<text text-anchor="middle" x="551.4" y="-150.91" font-family="Times,serif" font-size="14.00">~</text>
<text text-anchor="middle" x="551.4" y="-135.91" font-family="Times,serif" font-size="14.00">Normal</text>
</g>
<!-- mu_1&#45;&gt;hgf_loglike -->
<g id="edge2" class="edge">
<title>mu_1&#45;&gt;hgf_loglike</title>
<path fill="none" stroke="black" d="M514.07,-129.84C489.94,-114.48 458.1,-94.22 431.02,-76.97"/>
<polygon fill="black" stroke="black" points="432.73,-73.91 422.41,-71.49 428.97,-79.82 432.73,-73.91"/>
</g>
<!-- omega_3 -->
<g id="node7" class="node">
<title>omega_3</title>
<ellipse fill="none" stroke="black" cx="678.4" cy="-154.61" rx="59.29" ry="37.45"/>
<text text-anchor="middle" x="678.4" y="-165.91" font-family="Times,serif" font-size="14.00">omega_3</text>
<text text-anchor="middle" x="678.4" y="-150.91" font-family="Times,serif" font-size="14.00">~</text>
<text text-anchor="middle" x="678.4" y="-135.91" font-family="Times,serif" font-size="14.00">Censored</text>
</g>
<!-- omega_3&#45;&gt;hgf_loglike -->
<g id="edge3" class="edge">
<title>omega_3&#45;&gt;hgf_loglike</title>
<path fill="none" stroke="black" d="M634.78,-129.09C626.47,-124.84 617.76,-120.66 609.4,-117.13 558.26,-95.55 498.72,-76.4 452.49,-62.78"/>
<polygon fill="black" stroke="black" points="453.42,-59.4 442.84,-59.96 451.45,-66.12 453.42,-59.4"/>
</g>
</g>
</svg>