<?xml version="1.0" encoding="UTF-8" standalone="no"?>
<!DOCTYPE svg PUBLIC "-//W3C//DTD SVG 1.1//EN"
 "http://www.w3.org/Graphics/SVG/1.1/DTD/svg11.dtd">
<!-- Generated by graphviz version 2.43.0 (0)
 -->
<!-- Title: %3 Pages: 1 -->
<svg width="492pt" height="200pt"
 viewBox="0.00 0.00 491.99 200.08" xmlns="http://www.w3.org/2000/svg" xmlns:xlink="http://www.w3.org/1999/xlink">
<g id="graph0" class="graph" transform="scale(1 1) rotate(0) translate(4 196.08)">
<title>%3</title>
<polygon fill="white" stroke="transparent" points="-4,4 -4,-196.08 487.99,-196.08 487.99,4 -4,4"/>
<!-- mu_2 -->
<g id="node1" class="node">
<title>mu_2</title>
<ellipse fill="none" stroke="black" cx="49.5" cy="-154.61" rx="49.49" ry="37.45"/>
<text text-anchor="middle" x="49.5" y="-165.91" font-family="Times,serif" font-size="14.00">mu_2</text>
<text text-anchor="middle" x="49.5" y="-150.91" font-family="Times,serif" font-size="14.00">~</text>
<text text-anchor="middle" x="49.5" y="-135.91" font-family="Times,serif" font-size="14.00">Normal</text>
</g>
<!-- hgf_loglike -->
<g id="node3" class="node">
<title>hgf_loglike</title>
<polygon fill="lightgrey" stroke="black" points="315.39,-23.74 315.39,-57.39 273.27,-81.19 213.72,-81.19 171.61,-57.39 171.61,-23.74 213.72,0.06 273.27,0.06 315.39,-23.74"/>
<text text-anchor="middle" x="243.5" y="-51.86" font-family="Times,serif" font-size="14.00">hgf_loglike</text>
<text text-anchor="middle" x="243.5" y="-36.86" font-family="Times,serif" font-size="14.00">~</text>
<text text-anchor="middle" x="243.5" y="-21.86" font-family="Times,serif" font-size="14.00">Potential</text>
</g>
<!-- mu_2&#45;&gt;hgf_loglike -->
<g id="edge1" class="edge">
<title>mu_2&#45;&gt;hgf_loglike</title>
<path fill="none" stroke="black" d="M87.12,-130.01C94.19,-125.67 101.54,-121.22 108.5,-117.13 132.92,-102.75 160.15,-87.39 183.72,-74.3"/>
<polygon fill="black" stroke="black" points="185.51,-77.3 192.56,-69.39 182.11,-71.18 185.51,-77.3"/>
</g>
<!-- omega_2 -->
<g id="node2" class="node">
<title>omega_2</title>
<ellipse fill="none" stroke="black" cx="176.5" cy="-154.61" rx="59.29" ry="37.45"/>
<text text-anchor="middle" x="176.5" y="-165.91" font-family="Times,serif" font-size="14.00">omega_2</text>
<text text-anchor="middle" x="176.5" y="-150.91" font-family="Times,serif" font-size="14.00">~</text>
<text text-anchor="middle" x="176.5" y="-135.91" font-family="Times,serif" font-size="14.00">Censored</text>
</g>
<!-- omega_2&#45;&gt;hgf_loglike -->
<g id="edge4" class="edge">
<title>omega_2&#45;&gt;hgf_loglike</title>
<path fill="none" stroke="black" d="M196.96,-119.38C202.44,-110.22 208.48,-100.13 214.33,-90.34"/>
<polygon fill="black" stroke="black" points="217.5,-91.85 219.63,-81.48 211.49,-88.26 217.5,-91.85"/>
</g>
<!-- omega_1 -->
<g id="node4" class="node">
<title>omega_1</title>
<ellipse fill="none" stroke="black" cx="310.5" cy="-154.61" rx="56.64" ry="37.45"/>
<text text-anchor="middle" x="310.5" y="-165.91" font-family="Times,serif" font-size="14.00">omega_1</text>
<text text-anchor="middle" x="310.5" y="-150.91" font-family="Times,serif" font-size="14.00">~</text>
<text text-anchor="middle" x="310.5" y="-135.91" font-family="Times,serif" font-size="14.00">Normal</text>
</g>
<!-- omega_1&#45;&gt;hgf_loglike -->
<g id="edge3" class="edge">
<title>omega_1&#45;&gt;hgf_loglike</title>
<path fill="none" stroke="black" d="M290.03,-119.38C284.55,-110.22 278.52,-100.13 272.67,-90.34"/>
<polygon fill="black" stroke="black" points="275.5,-88.26 267.36,-81.48 269.49,-91.85 275.5,-88.26"/>
</g>
<!-- mu_1 -->
<g id="node5" class="node">
<title>mu_1</title>
<ellipse fill="none" stroke="black" cx="434.5" cy="-154.61" rx="49.49" ry="37.45"/>
<text text-anchor="middle" x="434.5" y="-165.91" font-family="Times,serif" font-size="14.00">mu_1</text>
<text text-anchor="middle" x="434.5" y="-150.91" font-family="Times,serif" font-size="14.00">~</text>
<text text-anchor="middle" x="434.5" y="-135.91" font-family="Times,serif" font-size="14.00">Normal</text>
</g>
<!-- mu_1&#45;&gt;hgf_loglike -->
<g id="edge2" class="edge">
<title>mu_1&#45;&gt;hgf_loglike</title>
<path fill="none" stroke="black" d="M397.21,-129.81C390.35,-125.54 383.24,-121.16 376.5,-117.13 352.65,-102.87 326.09,-87.64 303.01,-74.63"/>
<polygon fill="black" stroke="black" points="304.44,-71.42 294.01,-69.56 301.01,-77.52 304.44,-71.42"/>
</g>
</g>
</svg>