<?xml version="1.0" encoding="UTF-8" standalone="no"?>
<!DOCTYPE svg PUBLIC "-//W3C//DTD SVG 1.1//EN"
 "http://www.w3.org/Graphics/SVG/1.1/DTD/svg11.dtd">
<!-- Generated by graphviz version 2.43.0 (0)
 -->
<!-- Title: hgf&#45;nodes Pages: 1 -->
<svg width="1095pt" height="316pt"
 viewBox="0.00 0.00 1094.75 315.99" xmlns="http://www.w3.org/2000/svg" xmlns:xlink="http://www.w3.org/1999/xlink">
<g id="graph0" class="graph" transform="scale(1 1) rotate(0) translate(4 311.99)">
<title>hgf&#45;nodes</title>
<polygon fill="white" stroke="transparent" points="-4,4 -4,-311.99 1090.75,-311.99 1090.75,4 -4,4"/>
<!-- x_0 -->
<g id="node1" class="node">
<title>x_0</title>
<ellipse fill="lightgrey" stroke="black" cx="526" cy="-36.5" rx="32.49" ry="32.49"/>
<ellipse fill="none" stroke="black" cx="526" cy="-36.5" rx="36.49" ry="36.49"/>
<text text-anchor="middle" x="526" y="-32.8" font-family="Times,serif" font-size="14.00">DP&#45;0</text>
</g>
<!-- x_1 -->
<g id="node2" class="node">
<title>x_1</title>
<ellipse fill="lightgrey" stroke="black" cx="64" cy="-126.99" rx="31.7" ry="18"/>
<text text-anchor="middle" x="64" y="-123.29" font-family="Times,serif" font-size="14.00">Co&#45;1</text>
</g>
<!-- x_1&#45;&gt;x_0 -->
<g id="edge1" class="edge">
<title>x_1&#45;&gt;x_0</title>
<path fill="none" stroke="black" d="M89.99,-116.5C97.94,-113.82 106.76,-111.07 115,-108.99 245.46,-76.1 403,-53.3 479.62,-43.26"/>
<polygon fill="black" stroke="black" points="480.42,-46.69 489.89,-41.93 479.52,-39.75 480.42,-46.69"/>
</g>
<!-- x_4 -->
<g id="node3" class="node">
<title>x_4</title>
<ellipse fill="lightgrey" stroke="black" cx="156" cy="-126.99" rx="31.7" ry="18"/>
<text text-anchor="middle" x="156" y="-123.29" font-family="Times,serif" font-size="14.00">Co&#45;4</text>
</g>
<!-- x_4&#45;&gt;x_0 -->
<g id="edge2" class="edge">
<title>x_4&#45;&gt;x_0</title>
<path fill="none" stroke="black" d="M182.31,-116.66C190.2,-114.01 198.91,-111.24 207,-108.99 303.35,-82.21 418.18,-58.43 480.41,-46.2"/>
<polygon fill="black" stroke="black" points="481.16,-49.62 490.3,-44.27 479.82,-42.75 481.16,-49.62"/>
</g>
<!-- x_7 -->
<g id="node4" class="node">
<title>x_7</title>
<ellipse fill="lightgrey" stroke="black" cx="248" cy="-126.99" rx="31.7" ry="18"/>
<text text-anchor="middle" x="248" y="-123.29" font-family="Times,serif" font-size="14.00">Co&#45;7</text>
</g>
<!-- x_7&#45;&gt;x_0 -->
<g id="edge3" class="edge">
<title>x_7&#45;&gt;x_0</title>
<path fill="none" stroke="black" d="M273.6,-116C279.91,-113.63 286.68,-111.16 293,-108.99 357.9,-86.8 434.04,-64.05 481.15,-50.34"/>
<polygon fill="black" stroke="black" points="482.41,-53.62 491.04,-47.47 480.46,-46.9 482.41,-53.62"/>
</g>
<!-- x_10 -->
<g id="node5" class="node">
<title>x_10</title>
<ellipse fill="lightgrey" stroke="black" cx="340" cy="-126.99" rx="37.89" ry="18"/>
<text text-anchor="middle" x="340" y="-123.29" font-family="Times,serif" font-size="14.00">Co&#45;10</text>
</g>
<!-- x_10&#45;&gt;x_0 -->
<g id="edge4" class="edge">
<title>x_10&#45;&gt;x_0</title>
<path fill="none" stroke="black" d="M365.86,-113.69C396.38,-99.17 447.54,-74.83 483.81,-57.57"/>
<polygon fill="black" stroke="black" points="485.63,-60.58 493.16,-53.12 482.62,-54.26 485.63,-60.58"/>
</g>
<!-- x_13 -->
<g id="node6" class="node">
<title>x_13</title>
<ellipse fill="lightgrey" stroke="black" cx="433" cy="-126.99" rx="37.89" ry="18"/>
<text text-anchor="middle" x="433" y="-123.29" font-family="Times,serif" font-size="14.00">Co&#45;13</text>
</g>
<!-- x_13&#45;&gt;x_0 -->
<g id="edge5" class="edge">
<title>x_13&#45;&gt;x_0</title>
<path fill="none" stroke="black" d="M449.2,-110.58C461.08,-99.28 477.62,-83.53 492.32,-69.55"/>
<polygon fill="black" stroke="black" points="494.97,-71.86 499.8,-62.43 490.14,-66.79 494.97,-71.86"/>
</g>
<!-- x_16 -->
<g id="node7" class="node">
<title>x_16</title>
<ellipse fill="lightgrey" stroke="black" cx="526" cy="-126.99" rx="37.89" ry="18"/>
<text text-anchor="middle" x="526" y="-123.29" font-family="Times,serif" font-size="14.00">Co&#45;16</text>
</g>
<!-- x_16&#45;&gt;x_0 -->
<g id="edge6" class="edge">
<title>x_16&#45;&gt;x_0</title>
<path fill="none" stroke="black" d="M526,-108.93C526,-101.56 526,-92.54 526,-83.43"/>
<polygon fill="black" stroke="black" points="529.5,-83.19 526,-73.19 522.5,-83.19 529.5,-83.19"/>
</g>
<!-- x_19 -->
<g id="node8" class="node">
<title>x_19</title>
<ellipse fill="lightgrey" stroke="black" cx="619" cy="-126.99" rx="37.89" ry="18"/>
<text text-anchor="middle" x="619" y="-123.29" font-family="Times,serif" font-size="14.00">Co&#45;19</text>
</g>
<!-- x_19&#45;&gt;x_0 -->
<g id="edge7" class="edge">
<title>x_19&#45;&gt;x_0</title>
<path fill="none" stroke="black" d="M602.8,-110.58C590.92,-99.28 574.38,-83.53 559.68,-69.55"/>
<polygon fill="black" stroke="black" points="561.86,-66.79 552.2,-62.43 557.03,-71.86 561.86,-66.79"/>
</g>
<!-- x_22 -->
<g id="node9" class="node">
<title>x_22</title>
<ellipse fill="lightgrey" stroke="black" cx="712" cy="-126.99" rx="37.89" ry="18"/>
<text text-anchor="middle" x="712" y="-123.29" font-family="Times,serif" font-size="14.00">Co&#45;22</text>
</g>
<!-- x_22&#45;&gt;x_0 -->
<g id="edge8" class="edge">
<title>x_22&#45;&gt;x_0</title>
<path fill="none" stroke="black" d="M686.14,-113.69C655.62,-99.17 604.46,-74.83 568.19,-57.57"/>
<polygon fill="black" stroke="black" points="569.38,-54.26 558.84,-53.12 566.37,-60.58 569.38,-54.26"/>
</g>
<!-- x_25 -->
<g id="node10" class="node">
<title>x_25</title>
<ellipse fill="lightgrey" stroke="black" cx="809" cy="-126.99" rx="37.89" ry="18"/>
<text text-anchor="middle" x="809" y="-123.29" font-family="Times,serif" font-size="14.00">Co&#45;25</text>
</g>
<!-- x_25&#45;&gt;x_0 -->
<g id="edge9" class="edge">
<title>x_25&#45;&gt;x_0</title>
<path fill="none" stroke="black" d="M779.44,-115.78C772.73,-113.51 765.63,-111.14 759,-108.99 693.74,-87.89 617.7,-64.85 570.7,-50.78"/>
<polygon fill="black" stroke="black" points="571.42,-47.34 560.84,-47.83 569.42,-54.05 571.42,-47.34"/>
</g>
<!-- x_28 -->
<g id="node11" class="node">
<title>x_28</title>
<ellipse fill="lightgrey" stroke="black" cx="911" cy="-126.99" rx="37.89" ry="18"/>
<text text-anchor="middle" x="911" y="-123.29" font-family="Times,serif" font-size="14.00">Co&#45;28</text>
</g>
<!-- x_28&#45;&gt;x_0 -->
<g id="edge10" class="edge">
<title>x_28&#45;&gt;x_0</title>
<path fill="none" stroke="black" d="M880.88,-116.17C872.83,-113.69 864.12,-111.12 856,-108.99 755.56,-82.64 636.12,-58.53 572.06,-46.17"/>
<polygon fill="black" stroke="black" points="572.37,-42.67 561.89,-44.22 571.05,-49.54 572.37,-42.67"/>
</g>
<!-- x_31 -->
<g id="node12" class="node">
<title>x_31</title>
<ellipse fill="lightgrey" stroke="black" cx="1013" cy="-126.99" rx="37.89" ry="18"/>
<text text-anchor="middle" x="1013" y="-123.29" font-family="Times,serif" font-size="14.00">Co&#45;31</text>
</g>
<!-- x_31&#45;&gt;x_0 -->
<g id="edge11" class="edge">
<title>x_31&#45;&gt;x_0</title>
<path fill="none" stroke="black" d="M982.94,-115.9C974.9,-113.42 966.17,-110.92 958,-108.99 819.22,-76.22 651.88,-53.09 572.34,-43.07"/>
<polygon fill="black" stroke="black" points="572.53,-39.56 562.17,-41.8 571.66,-46.51 572.53,-39.56"/>
</g>
<!-- x_2 -->
<g id="node13" class="node">
<title>x_2</title>
<ellipse fill="none" stroke="black" cx="18" cy="-203.74" rx="18" ry="18"/>
<text text-anchor="middle" x="18" y="-200.04" font-family="Times,serif" font-size="14.00">2</text>
</g>
<!-- x_2&#45;&gt;x_1 -->
<g id="edge12" class="edge">
<title>x_2&#45;&gt;x_1</title>
<path fill="none" stroke="black" d="M27.09,-187.97C33.2,-178.04 41.42,-164.68 48.55,-153.1"/>
<polygon fill="black" stroke="black" points="51.71,-154.64 53.97,-144.29 45.75,-150.97 51.71,-154.64"/>
</g>
<!-- x_3 -->
<g id="node14" class="node">
<title>x_3</title>
<ellipse fill="none" stroke="black" cx="64" cy="-285.24" rx="18" ry="18"/>
<text text-anchor="middle" x="64" y="-281.54" font-family="Times,serif" font-size="14.00">3</text>
</g>
<!-- x_3&#45;&gt;x_1 -->
<g id="edge13" class="edge">
<title>x_3&#45;&gt;x_1</title>
<path fill="none" stroke="gray" stroke-dasharray="5,2" d="M64,-267.22C64,-239.78 64,-185.58 64,-153.5"/>
<ellipse fill="gray" stroke="gray" cx="64" cy="-149.47" rx="4" ry="4"/>
</g>
<!-- x_5 -->
<g id="node15" class="node">
<title>x_5</title>
<ellipse fill="none" stroke="black" cx="110" cy="-203.74" rx="18" ry="18"/>
<text text-anchor="middle" x="110" y="-200.04" font-family="Times,serif" font-size="14.00">5</text>
</g>
<!-- x_5&#45;&gt;x_4 -->
<g id="edge14" class="edge">
<title>x_5&#45;&gt;x_4</title>
<path fill="none" stroke="black" d="M119.09,-187.97C125.2,-178.04 133.42,-164.68 140.55,-153.1"/>
<polygon fill="black" stroke="black" points="143.71,-154.64 145.97,-144.29 137.75,-150.97 143.71,-154.64"/>
</g>
<!-- x_6 -->
<g id="node16" class="node">
<title>x_6</title>
<ellipse fill="none" stroke="black" cx="156" cy="-285.24" rx="18" ry="18"/>
<text text-anchor="middle" x="156" y="-281.54" font-family="Times,serif" font-size="14.00">6</text>
</g>
<!-- x_6&#45;&gt;x_4 -->
<g id="edge15" class="edge">
<title>x_6&#45;&gt;x_4</title>
<path fill="none" stroke="gray" stroke-dasharray="5,2" d="M156,-267.22C156,-239.78 156,-185.58 156,-153.5"/>
<ellipse fill="gray" stroke="gray" cx="156" cy="-149.47" rx="4" ry="4"/>
</g>
<!-- x_8 -->
<g id="node17" class="node">
<title>x_8</title>
<ellipse fill="none" stroke="black" cx="202" cy="-203.74" rx="18" ry="18"/>
<text text-anchor="middle" x="202" y="-200.04" font-family="Times,serif" font-size="14.00">8</text>
</g>
<!-- x_8&#45;&gt;x_7 -->
<g id="edge16" class="edge">
<title>x_8&#45;&gt;x_7</title>
<path fill="none" stroke="black" d="M211.09,-187.97C217.2,-178.04 225.42,-164.68 232.55,-153.1"/>
<polygon fill="black" stroke="black" points="235.71,-154.64 237.97,-144.29 229.75,-150.97 235.71,-154.64"/>
</g>
<!-- x_9 -->
<g id="node18" class="node">
<title>x_9</title>
<ellipse fill="none" stroke="black" cx="248" cy="-285.24" rx="18" ry="18"/>
<text text-anchor="middle" x="248" y="-281.54" font-family="Times,serif" font-size="14.00">9</text>
</g>
<!-- x_9&#45;&gt;x_7 -->
<g id="edge17" class="edge">
<title>x_9&#45;&gt;x_7</title>
<path fill="none" stroke="gray" stroke-dasharray="5,2" d="M248,-267.22C248,-239.78 248,-185.58 248,-153.5"/>
<ellipse fill="gray" stroke="gray" cx="248" cy="-149.47" rx="4" ry="4"/>
</g>
<!-- x_11 -->
<g id="node19" class="node">
<title>x_11</title>
<ellipse fill="none" stroke="black" cx="299" cy="-203.74" rx="23" ry="23"/>
<text text-anchor="middle" x="299" y="-200.04" font-family="Times,serif" font-size="14.00">11</text>
</g>
<!-- x_11&#45;&gt;x_10 -->
<g id="edge18" class="edge">
<title>x_11&#45;&gt;x_10</title>
<path fill="none" stroke="black" d="M309.56,-183.49C314.52,-174.45 320.51,-163.53 325.86,-153.78"/>
<polygon fill="black" stroke="black" points="328.99,-155.34 330.73,-144.89 322.86,-151.97 328.99,-155.34"/>
</g>
<!-- x_12 -->
<g id="node20" class="node">
<title>x_12</title>
<ellipse fill="none" stroke="black" cx="350" cy="-285.24" rx="23" ry="23"/>
<text text-anchor="middle" x="350" y="-281.54" font-family="Times,serif" font-size="14.00">12</text>
</g>
<!-- x_12&#45;&gt;x_10 -->
<g id="edge19" class="edge">
<title>x_12&#45;&gt;x_10</title>
<path fill="none" stroke="gray" stroke-dasharray="5,2" d="M348.61,-262.51C346.78,-233.97 343.58,-183.92 341.64,-153.58"/>
<ellipse fill="gray" stroke="gray" cx="341.36" cy="-149.2" rx="4" ry="4"/>
</g>
<!-- x_14 -->
<g id="node21" class="node">
<title>x_14</title>
<ellipse fill="none" stroke="black" cx="401" cy="-203.74" rx="23" ry="23"/>
<text text-anchor="middle" x="401" y="-200.04" font-family="Times,serif" font-size="14.00">14</text>
</g>
<!-- x_14&#45;&gt;x_13 -->
<g id="edge20" class="edge">
<title>x_14&#45;&gt;x_13</title>
<path fill="none" stroke="black" d="M409.74,-182.32C413.44,-173.68 417.79,-163.52 421.73,-154.33"/>
<polygon fill="black" stroke="black" points="425.06,-155.43 425.78,-144.86 418.63,-152.68 425.06,-155.43"/>
</g>
<!-- x_15 -->
<g id="node22" class="node">
<title>x_15</title>
<ellipse fill="none" stroke="black" cx="452" cy="-285.24" rx="23" ry="23"/>
<text text-anchor="middle" x="452" y="-281.54" font-family="Times,serif" font-size="14.00">15</text>
</g>
<!-- x_15&#45;&gt;x_13 -->
<g id="edge21" class="edge">
<title>x_15&#45;&gt;x_13</title>
<path fill="none" stroke="gray" stroke-dasharray="5,2" d="M449.36,-262.51C445.87,-233.85 439.75,-183.49 436.06,-153.19"/>
<ellipse fill="gray" stroke="gray" cx="435.58" cy="-149.18" rx="4" ry="4"/>
</g>
<!-- x_17 -->
<g id="node23" class="node">
<title>x_17</title>
<ellipse fill="none" stroke="black" cx="503" cy="-203.74" rx="23" ry="23"/>
<text text-anchor="middle" x="503" y="-200.04" font-family="Times,serif" font-size="14.00">17</text>
</g>
<!-- x_17&#45;&gt;x_16 -->
<g id="edge22" class="edge">
<title>x_17&#45;&gt;x_16</title>
<path fill="none" stroke="black" d="M509.53,-181.52C512.09,-173.21 515.05,-163.57 517.76,-154.79"/>
<polygon fill="black" stroke="black" points="521.17,-155.58 520.77,-145 514.48,-153.53 521.17,-155.58"/>
</g>
<!-- x_18 -->
<g id="node24" class="node">
<title>x_18</title>
<ellipse fill="none" stroke="black" cx="554" cy="-285.24" rx="23" ry="23"/>
<text text-anchor="middle" x="554" y="-281.54" font-family="Times,serif" font-size="14.00">18</text>
</g>
<!-- x_18&#45;&gt;x_16 -->
<g id="edge23" class="edge">
<title>x_18&#45;&gt;x_16</title>
<path fill="none" stroke="gray" stroke-dasharray="5,2" d="M550.11,-262.51C544.97,-233.85 535.95,-183.49 530.52,-153.19"/>
<ellipse fill="gray" stroke="gray" cx="529.79" cy="-149.15" rx="4" ry="4"/>
</g>
<!-- x_20 -->
<g id="node25" class="node">
<title>x_20</title>
<ellipse fill="none" stroke="black" cx="605" cy="-203.74" rx="23" ry="23"/>
<text text-anchor="middle" x="605" y="-200.04" font-family="Times,serif" font-size="14.00">20</text>
</g>
<!-- x_20&#45;&gt;x_19 -->
<g id="edge24" class="edge">
<title>x_20&#45;&gt;x_19</title>
<path fill="none" stroke="black" d="M609.05,-181.12C610.57,-173.03 612.31,-163.73 613.9,-155.2"/>
<polygon fill="black" stroke="black" points="617.36,-155.77 615.76,-145.3 610.48,-154.49 617.36,-155.77"/>
</g>
<!-- x_21 -->
<g id="node26" class="node">
<title>x_21</title>
<ellipse fill="none" stroke="black" cx="656" cy="-285.24" rx="23" ry="23"/>
<text text-anchor="middle" x="656" y="-281.54" font-family="Times,serif" font-size="14.00">21</text>
</g>
<!-- x_21&#45;&gt;x_19 -->
<g id="edge25" class="edge">
<title>x_21&#45;&gt;x_19</title>
<path fill="none" stroke="gray" stroke-dasharray="5,2" d="M652.97,-262.68C649.79,-241.66 644.26,-208.86 637,-180.99 634.56,-171.63 631.3,-161.54 628.22,-152.7"/>
<ellipse fill="gray" stroke="gray" cx="626.82" cy="-148.76" rx="4" ry="4"/>
</g>
<!-- x_23 -->
<g id="node27" class="node">
<title>x_23</title>
<ellipse fill="none" stroke="black" cx="707" cy="-203.74" rx="23" ry="23"/>
<text text-anchor="middle" x="707" y="-200.04" font-family="Times,serif" font-size="14.00">23</text>
</g>
<!-- x_23&#45;&gt;x_22 -->
<g id="edge26" class="edge">
<title>x_23&#45;&gt;x_22</title>
<path fill="none" stroke="black" d="M708.47,-180.72C709.01,-172.73 709.62,-163.6 710.18,-155.21"/>
<polygon fill="black" stroke="black" points="713.68,-155.33 710.85,-145.12 706.69,-154.86 713.68,-155.33"/>
</g>
<!-- x_24 -->
<g id="node28" class="node">
<title>x_24</title>
<ellipse fill="none" stroke="black" cx="758" cy="-285.24" rx="23" ry="23"/>
<text text-anchor="middle" x="758" y="-281.54" font-family="Times,serif" font-size="14.00">24</text>
</g>
<!-- x_24&#45;&gt;x_22 -->
<g id="edge27" class="edge">
<title>x_24&#45;&gt;x_22</title>
<path fill="none" stroke="gray" stroke-dasharray="5,2" d="M755.84,-262.42C753.31,-241.2 748.24,-208.27 739,-180.99 735.64,-171.06 730.69,-160.67 725.95,-151.74"/>
<ellipse fill="gray" stroke="gray" cx="723.98" cy="-148.14" rx="4" ry="4"/>
</g>
<!-- x_26 -->
<g id="node29" class="node">
<title>x_26</title>
<ellipse fill="none" stroke="black" cx="809" cy="-203.74" rx="23" ry="23"/>
<text text-anchor="middle" x="809" y="-200.04" font-family="Times,serif" font-size="14.00">26</text>
</g>
<!-- x_26&#45;&gt;x_25 -->
<g id="edge28" class="edge">
<title>x_26&#45;&gt;x_25</title>
<path fill="none" stroke="black" d="M809,-180.72C809,-172.73 809,-163.6 809,-155.21"/>
<polygon fill="black" stroke="black" points="812.5,-155.12 809,-145.12 805.5,-155.12 812.5,-155.12"/>
</g>
<!-- x_27 -->
<g id="node30" class="node">
<title>x_27</title>
<ellipse fill="none" stroke="black" cx="860" cy="-285.24" rx="23" ry="23"/>
<text text-anchor="middle" x="860" y="-281.54" font-family="Times,serif" font-size="14.00">27</text>
</g>
<!-- x_27&#45;&gt;x_25 -->
<g id="edge29" class="edge">
<title>x_27&#45;&gt;x_25</title>
<path fill="none" stroke="gray" stroke-dasharray="5,2" d="M858.27,-262.27C856.06,-240.94 851.21,-207.92 841,-180.99 837.09,-170.69 831.17,-160.13 825.49,-151.18"/>
<ellipse fill="gray" stroke="gray" cx="823.22" cy="-147.72" rx="4" ry="4"/>
</g>
<!-- x_29 -->
<g id="node31" class="node">
<title>x_29</title>
<ellipse fill="none" stroke="black" cx="911" cy="-203.74" rx="23" ry="23"/>
<text text-anchor="middle" x="911" y="-200.04" font-family="Times,serif" font-size="14.00">29</text>
</g>
<!-- x_29&#45;&gt;x_28 -->
<g id="edge30" class="edge">
<title>x_29&#45;&gt;x_28</title>
<path fill="none" stroke="black" d="M911,-180.72C911,-172.73 911,-163.6 911,-155.21"/>
<polygon fill="black" stroke="black" points="914.5,-155.12 911,-145.12 907.5,-155.12 914.5,-155.12"/>
</g>
<!-- x_30 -->
<g id="node32" class="node">
<title>x_30</title>
<ellipse fill="none" stroke="black" cx="962" cy="-285.24" rx="23" ry="23"/>
<text text-anchor="middle" x="962" y="-281.54" font-family="Times,serif" font-size="14.00">30</text>
</g>
<!-- x_30&#45;&gt;x_28 -->
<g id="edge31" class="edge">
<title>x_30&#45;&gt;x_28</title>
<path fill="none" stroke="gray" stroke-dasharray="5,2" d="M960.27,-262.27C958.06,-240.94 953.21,-207.92 943,-180.99 939.09,-170.69 933.17,-160.13 927.49,-151.18"/>
<ellipse fill="gray" stroke="gray" cx="925.22" cy="-147.72" rx="4" ry="4"/>
</g>
<!-- x_32 -->
<g id="node33" class="node">
<title>x_32</title>
<ellipse fill="none" stroke="black" cx="1013" cy="-203.74" rx="23" ry="23"/>
<text text-anchor="middle" x="1013" y="-200.04" font-family="Times,serif" font-size="14.00">32</text>
</g>
<!-- x_32&#45;&gt;x_31 -->
<g id="edge32" class="edge">
<title>x_32&#45;&gt;x_31</title>
<path fill="none" stroke="black" d="M1013,-180.72C1013,-172.73 1013,-163.6 1013,-155.21"/>
<polygon fill="black" stroke="black" points="1016.5,-155.12 1013,-145.12 1009.5,-155.12 1016.5,-155.12"/>
</g>
<!-- x_33 -->
<g id="node34" class="node">
<title>x_33</title>
<ellipse fill="none" stroke="black" cx="1064" cy="-285.24" rx="23" ry="23"/>
<text text-anchor="middle" x="1064" y="-281.54" font-family="Times,serif" font-size="14.00">33</text>
</g>
<!-- x_33&#45;&gt;x_31 -->
<g id="edge33" class="edge">
<title>x_33&#45;&gt;x_31</title>
<path fill="none" stroke="gray" stroke-dasharray="5,2" d="M1062.27,-262.27C1060.06,-240.94 1055.21,-207.92 1045,-180.99 1041.09,-170.69 1035.17,-160.13 1029.49,-151.18"/>
<ellipse fill="gray" stroke="gray" cx="1027.22" cy="-147.72" rx="4" ry="4"/>
</g>
</g>
</svg>