<?xml version="1.0" encoding="UTF-8" standalone="no"?>
<!DOCTYPE svg PUBLIC "-//W3C//DTD SVG 1.1//EN"
 "http://www.w3.org/Graphics/SVG/1.1/DTD/svg11.dtd">
<!-- Generated by graphviz version 2.43.0 (0)
 -->
<!-- Title: %3 Pages: 1 -->
<svg width="252pt" height="200pt"
 viewBox="0.00 0.00 252.14 200.08" xmlns="http://www.w3.org/2000/svg" xmlns:xlink="http://www.w3.org/1999/xlink">
<g id="graph0" class="graph" transform="scale(1 1) rotate(0) translate(4 196.08)">
<title>%3</title>
<polygon fill="white" stroke="transparent" points="-4,4 -4,-196.08 248.14,-196.08 248.14,4 -4,4"/>
<!-- omega_2 -->
<g id="node1" class="node">
<title>omega_2</title>
<ellipse fill="none" stroke="black" cx="56.57" cy="-154.61" rx="56.64" ry="37.45"/>
<text text-anchor="middle" x="56.57" y="-165.91" font-family="Times,serif" font-size="14.00">omega_2</text>
<text text-anchor="middle" x="56.57" y="-150.91" font-family="Times,serif" font-size="14.00">~</text>
<text text-anchor="middle" x="56.57" y="-135.91" font-family="Times,serif" font-size="14.00">Normal</text>
</g>
<!-- hgf_loglike -->
<g id="node3" class="node">
<title>hgf_loglike</title>
<polygon fill="lightgrey" stroke="black" points="193.46,-23.74 193.46,-57.39 151.35,-81.19 91.79,-81.19 49.68,-57.39 49.68,-23.74 91.79,0.06 151.35,0.06 193.46,-23.74"/>
<text text-anchor="middle" x="121.57" y="-51.86" font-family="Times,serif" font-size="14.00">hgf_loglike</text>
<text text-anchor="middle" x="121.57" y="-36.86" font-family="Times,serif" font-size="14.00">~</text>
<text text-anchor="middle" x="121.57" y="-21.86" font-family="Times,serif" font-size="14.00">Potential</text>
</g>
<!-- omega_2&#45;&gt;hgf_loglike -->
<g id="edge1" class="edge">
<title>omega_2&#45;&gt;hgf_loglike</title>
<path fill="none" stroke="black" d="M76.42,-119.38C81.74,-110.22 87.59,-100.13 93.27,-90.34"/>
<polygon fill="black" stroke="black" points="96.42,-91.88 98.41,-81.48 90.37,-88.37 96.42,-91.88"/>
</g>
<!-- omega_3 -->
<g id="node2" class="node">
<title>omega_3</title>
<ellipse fill="none" stroke="black" cx="187.57" cy="-154.61" rx="56.64" ry="37.45"/>
<text text-anchor="middle" x="187.57" y="-165.91" font-family="Times,serif" font-size="14.00">omega_3</text>
<text text-anchor="middle" x="187.57" y="-150.91" font-family="Times,serif" font-size="14.00">~</text>
<text text-anchor="middle" x="187.57" y="-135.91" font-family="Times,serif" font-size="14.00">Normal</text>
</g>
<!-- omega_3&#45;&gt;hgf_loglike -->
<g id="edge2" class="edge">
<title>omega_3&#45;&gt;hgf_loglike</title>
<path fill="none" stroke="black" d="M167.41,-119.38C162.01,-110.22 156.07,-100.13 150.3,-90.34"/>
<polygon fill="black" stroke="black" points="153.17,-88.31 145.08,-81.48 147.14,-91.87 153.17,-88.31"/>
</g>
</g>
</svg>