<?xml version="1.0" encoding="UTF-8" standalone="no"?>
<!DOCTYPE svg PUBLIC "-//W3C//DTD SVG 1.1//EN"
 "http://www.w3.org/Graphics/SVG/1.1/DTD/svg11.dtd">
<!-- Generated by graphviz version 2.43.0 (0)
 -->
<!-- Title: hgf&#45;nodes Pages: 1 -->
<svg width="134pt" height="260pt"
 viewBox="0.00 0.00 134.00 260.00" xmlns="http://www.w3.org/2000/svg" xmlns:xlink="http://www.w3.org/1999/xlink">
<g id="graph0" class="graph" transform="scale(1 1) rotate(0) translate(4 256)">
<title>hgf&#45;nodes</title>
<polygon fill="white" stroke="transparent" points="-4,4 -4,-256 130,-256 130,4 -4,4"/>
<!-- x_0 -->
<g id="node1" class="node">
<title>x_0</title>
<ellipse fill="lightgrey" stroke="black" cx="108" cy="-18" rx="18" ry="18"/>
<text text-anchor="middle" x="108" y="-14.3" font-family="Times,serif" font-size="14.00">u</text>
<text text-anchor="middle" x="45" y="-39.8" font-family="Times,serif" font-size="14.00">Binary input</text>
</g>
<!-- x_1 -->
<g id="node2" class="node">
<title>x_1</title>
<ellipse fill="none" stroke="black" cx="108" cy="-90" rx="18" ry="18"/>
<text text-anchor="middle" x="108" y="-86.3" font-family="Times,serif" font-size="14.00">1</text>
</g>
<!-- x_1&#45;&gt;x_0 -->
<g id="edge1" class="edge">
<title>x_1&#45;&gt;x_0</title>
<path fill="none" stroke="black" d="M108,-71.7C108,-63.98 108,-54.71 108,-46.11"/>
<polygon fill="black" stroke="black" points="111.5,-46.1 108,-36.1 104.5,-46.1 111.5,-46.1"/>
</g>
<!-- x_2 -->
<g id="node3" class="node">
<title>x_2</title>
<ellipse fill="none" stroke="black" cx="108" cy="-162" rx="18" ry="18"/>
<text text-anchor="middle" x="108" y="-158.3" font-family="Times,serif" font-size="14.00">2</text>
</g>
<!-- x_2&#45;&gt;x_1 -->
<g id="edge2" class="edge">
<title>x_2&#45;&gt;x_1</title>
<path fill="none" stroke="black" d="M108,-143.7C108,-135.98 108,-126.71 108,-118.11"/>
<polygon fill="black" stroke="black" points="111.5,-118.1 108,-108.1 104.5,-118.1 111.5,-118.1"/>
</g>
<!-- x_3 -->
<g id="node4" class="node">
<title>x_3</title>
<ellipse fill="none" stroke="black" cx="108" cy="-234" rx="18" ry="18"/>
<text text-anchor="middle" x="108" y="-230.3" font-family="Times,serif" font-size="14.00">3</text>
</g>
<!-- x_3&#45;&gt;x_2 -->
<g id="edge3" class="edge">
<title>x_3&#45;&gt;x_2</title>
<path fill="none" stroke="gray" stroke-dasharray="5,2" d="M108,-215.7C108,-207.98 108,-198.71 108,-190.11"/>
<polygon fill="gray" stroke="gray" points="111.5,-190.1 108,-180.1 104.5,-190.1 111.5,-190.1"/>
</g>
</g>
</svg>