<?xml version="1.0" encoding="UTF-8" standalone="no"?>
<!DOCTYPE svg PUBLIC "-//W3C//DTD SVG 1.1//EN"
 "http://www.w3.org/Graphics/SVG/1.1/DTD/svg11.dtd">
<!-- Generated by graphviz version 2.43.0 (0)
 -->
<!-- Title: %3 Pages: 1 -->
<svg width="238pt" height="200pt"
 viewBox="0.00 0.00 238.07 200.08" xmlns="http://www.w3.org/2000/svg" xmlns:xlink="http://www.w3.org/1999/xlink">
<g id="graph0" class="graph" transform="scale(1 1) rotate(0) translate(4 196.08)">
<title>%3</title>
<polygon fill="white" stroke="transparent" points="-4,4 -4,-196.08 234.07,-196.08 234.07,4 -4,4"/>
<!-- hgf_loglike -->
<g id="node1" class="node">
<title>hgf_loglike</title>
<polygon fill="lightgrey" stroke="black" points="190.46,-23.74 190.46,-57.39 148.35,-81.19 88.79,-81.19 46.68,-57.39 46.68,-23.74 88.79,0.06 148.35,0.06 190.46,-23.74"/>
<text text-anchor="middle" x="118.57" y="-51.86" font-family="Times,serif" font-size="14.00">hgf_loglike</text>
<text text-anchor="middle" x="118.57" y="-36.86" font-family="Times,serif" font-size="14.00">~</text>
<text text-anchor="middle" x="118.57" y="-21.86" font-family="Times,serif" font-size="14.00">Potential</text>
</g>
<!-- omega_2 -->
<g id="node2" class="node">
<title>omega_2</title>
<ellipse fill="none" stroke="black" cx="56.57" cy="-154.61" rx="56.64" ry="37.45"/>
<text text-anchor="middle" x="56.57" y="-165.91" font-family="Times,serif" font-size="14.00">omega_2</text>
<text text-anchor="middle" x="56.57" y="-150.91" font-family="Times,serif" font-size="14.00">~</text>
<text text-anchor="middle" x="56.57" y="-135.91" font-family="Times,serif" font-size="14.00">Uniform</text>
</g>
<!-- omega_2&#45;&gt;hgf_loglike -->
<g id="edge1" class="edge">
<title>omega_2&#45;&gt;hgf_loglike</title>
<path fill="none" stroke="black" d="M75.68,-119.08C80.74,-109.92 86.31,-99.86 91.71,-90.11"/>
<polygon fill="black" stroke="black" points="94.81,-91.72 96.59,-81.27 88.69,-88.33 94.81,-91.72"/>
</g>
<!-- mu_2 -->
<g id="node3" class="node">
<title>mu_2</title>
<ellipse fill="none" stroke="black" cx="180.57" cy="-154.61" rx="49.49" ry="37.45"/>
<text text-anchor="middle" x="180.57" y="-165.91" font-family="Times,serif" font-size="14.00">mu_2</text>
<text text-anchor="middle" x="180.57" y="-150.91" font-family="Times,serif" font-size="14.00">~</text>
<text text-anchor="middle" x="180.57" y="-135.91" font-family="Times,serif" font-size="14.00">Normal</text>
</g>
<!-- mu_2&#45;&gt;hgf_loglike -->
<g id="edge2" class="edge">
<title>mu_2&#45;&gt;hgf_loglike</title>
<path fill="none" stroke="black" d="M161.8,-119.69C156.67,-110.41 151.01,-100.18 145.52,-90.26"/>
<polygon fill="black" stroke="black" points="148.45,-88.33 140.54,-81.28 142.32,-91.72 148.45,-88.33"/>
</g>
</g>
</svg>