<?xml version="1.0" encoding="UTF-8" standalone="no"?>
<!DOCTYPE svg PUBLIC "-//W3C//DTD SVG 1.1//EN"
 "http://www.w3.org/Graphics/SVG/1.1/DTD/svg11.dtd">
<!-- Generated by graphviz version 2.43.0 (0)
 -->
<!-- Title: %3 Pages: 1 -->
<svg width="492pt" height="200pt"
 viewBox="0.00 0.00 491.89 200.08" xmlns="http://www.w3.org/2000/svg" xmlns:xlink="http://www.w3.org/1999/xlink">
<g id="graph0" class="graph" transform="scale(1 1) rotate(0) translate(4 196.08)">
<title>%3</title>
<polygon fill="white" stroke="transparent" points="-4,4 -4,-196.08 487.89,-196.08 487.89,4 -4,4"/>
<!-- hgf_loglike -->
<g id="node1" class="node">
<title>hgf_loglike</title>
<polygon fill="lightgrey" stroke="black" points="320.29,-23.74 320.29,-57.39 278.17,-81.19 218.62,-81.19 176.51,-57.39 176.51,-23.74 218.62,0.06 278.17,0.06 320.29,-23.74"/>
<text text-anchor="middle" x="248.4" y="-51.86" font-family="Times,serif" font-size="14.00">hgf_loglike</text>
<text text-anchor="middle" x="248.4" y="-36.86" font-family="Times,serif" font-size="14.00">~</text>
<text text-anchor="middle" x="248.4" y="-21.86" font-family="Times,serif" font-size="14.00">Potential</text>
</g>
<!-- omega_2 -->
<g id="node2" class="node">
<title>omega_2</title>
<ellipse fill="none" stroke="black" cx="59.4" cy="-154.61" rx="59.29" ry="37.45"/>
<text text-anchor="middle" x="59.4" y="-165.91" font-family="Times,serif" font-size="14.00">omega_2</text>
<text text-anchor="middle" x="59.4" y="-150.91" font-family="Times,serif" font-size="14.00">~</text>
<text text-anchor="middle" x="59.4" y="-135.91" font-family="Times,serif" font-size="14.00">Censored</text>
</g>
<!-- omega_2&#45;&gt;hgf_loglike -->
<g id="edge2" class="edge">
<title>omega_2&#45;&gt;hgf_loglike</title>
<path fill="none" stroke="black" d="M102.28,-128.18C128.44,-112.68 162.21,-92.66 190.69,-75.78"/>
<polygon fill="black" stroke="black" points="192.53,-78.75 199.34,-70.64 188.96,-72.73 192.53,-78.75"/>
</g>
<!-- mu_1 -->
<g id="node3" class="node">
<title>mu_1</title>
<ellipse fill="none" stroke="black" cx="186.4" cy="-154.61" rx="49.49" ry="37.45"/>
<text text-anchor="middle" x="186.4" y="-165.91" font-family="Times,serif" font-size="14.00">mu_1</text>
<text text-anchor="middle" x="186.4" y="-150.91" font-family="Times,serif" font-size="14.00">~</text>
<text text-anchor="middle" x="186.4" y="-135.91" font-family="Times,serif" font-size="14.00">Normal</text>
</g>
<!-- mu_1&#45;&gt;hgf_loglike -->
<g id="edge1" class="edge">
<title>mu_1&#45;&gt;hgf_loglike</title>
<path fill="none" stroke="black" d="M205.17,-119.69C210.3,-110.41 215.96,-100.18 221.45,-90.26"/>
<polygon fill="black" stroke="black" points="224.64,-91.72 226.42,-81.28 218.52,-88.33 224.64,-91.72"/>
</g>
<!-- omega_1 -->
<g id="node4" class="node">
<title>omega_1</title>
<ellipse fill="none" stroke="black" cx="310.4" cy="-154.61" rx="56.64" ry="37.45"/>
<text text-anchor="middle" x="310.4" y="-165.91" font-family="Times,serif" font-size="14.00">omega_1</text>
<text text-anchor="middle" x="310.4" y="-150.91" font-family="Times,serif" font-size="14.00">~</text>
<text text-anchor="middle" x="310.4" y="-135.91" font-family="Times,serif" font-size="14.00">Normal</text>
</g>
<!-- omega_1&#45;&gt;hgf_loglike -->
<g id="edge3" class="edge">
<title>omega_1&#45;&gt;hgf_loglike</title>
<path fill="none" stroke="black" d="M291.29,-119.08C286.22,-109.92 280.66,-99.86 275.26,-90.11"/>
<polygon fill="black" stroke="black" points="278.28,-88.33 270.37,-81.27 272.15,-91.72 278.28,-88.33"/>
</g>
<!-- mu_2 -->
<g id="node5" class="node">
<title>mu_2</title>
<ellipse fill="none" stroke="black" cx="434.4" cy="-154.61" rx="49.49" ry="37.45"/>
<text text-anchor="middle" x="434.4" y="-165.91" font-family="Times,serif" font-size="14.00">mu_2</text>
<text text-anchor="middle" x="434.4" y="-150.91" font-family="Times,serif" font-size="14.00">~</text>
<text text-anchor="middle" x="434.4" y="-135.91" font-family="Times,serif" font-size="14.00">Normal</text>
</g>
<!-- mu_2&#45;&gt;hgf_loglike -->
<g id="edge4" class="edge">
<title>mu_2&#45;&gt;hgf_loglike</title>
<path fill="none" stroke="black" d="M397.05,-129.9C390.2,-125.62 383.1,-121.21 376.4,-117.13 353.74,-103.32 328.63,-88.41 306.69,-75.52"/>
<polygon fill="black" stroke="black" points="308.22,-72.35 297.82,-70.31 304.68,-78.39 308.22,-72.35"/>
</g>
</g>
</svg>