<?xml version="1.0" encoding="UTF-8" standalone="no"?>
<!DOCTYPE svg PUBLIC "-//W3C//DTD SVG 1.1//EN"
 "http://www.w3.org/Graphics/SVG/1.1/DTD/svg11.dtd">
<!-- Generated by graphviz version 2.43.0 (0)
 -->
<!-- Title: %3 Pages: 1 -->
<svg width="508pt" height="308pt"
 viewBox="0.00 0.00 508.22 308.08" xmlns="http://www.w3.org/2000/svg" xmlns:xlink="http://www.w3.org/1999/xlink">
<g id="graph0" class="graph" transform="scale(1 1) rotate(0) translate(4 304.08)">
<title>%3</title>
<polygon fill="white" stroke="transparent" points="-4,4 -4,-304.08 504.22,-304.08 504.22,4 -4,4"/>
<g id="clust1" class="cluster">
<title>cluster5</title>
<path fill="none" stroke="black" d="M20,-89.13C20,-89.13 126,-89.13 126,-89.13 132,-89.13 138,-95.13 138,-101.13 138,-101.13 138,-280.08 138,-280.08 138,-286.08 132,-292.08 126,-292.08 126,-292.08 20,-292.08 20,-292.08 14,-292.08 8,-286.08 8,-280.08 8,-280.08 8,-101.13 8,-101.13 8,-95.13 14,-89.13 20,-89.13"/>
<text text-anchor="middle" x="125" y="-96.93" font-family="Times,serif" font-size="14.00">5</text>
</g>
<!-- hgf_loglike -->
<g id="node1" class="node">
<title>hgf_loglike</title>
<polygon fill="lightgrey" stroke="black" points="144.89,-23.74 144.89,-57.39 102.78,-81.19 43.22,-81.19 1.11,-57.39 1.11,-23.74 43.22,0.06 102.78,0.06 144.89,-23.74"/>
<text text-anchor="middle" x="73" y="-51.86" font-family="Times,serif" font-size="14.00">hgf_loglike</text>
<text text-anchor="middle" x="73" y="-36.86" font-family="Times,serif" font-size="14.00">~</text>
<text text-anchor="middle" x="73" y="-21.86" font-family="Times,serif" font-size="14.00">Potential</text>
</g>
<!-- mu_omega_1 -->
<g id="node2" class="node">
<title>mu_omega_1</title>
<ellipse fill="none" stroke="black" cx="223" cy="-246.61" rx="77.15" ry="37.45"/>
<text text-anchor="middle" x="223" y="-257.91" font-family="Times,serif" font-size="14.00">mu_omega_1</text>
<text text-anchor="middle" x="223" y="-242.91" font-family="Times,serif" font-size="14.00">~</text>
<text text-anchor="middle" x="223" y="-227.91" font-family="Times,serif" font-size="14.00">Uniform</text>
</g>
<!-- omega_2 -->
<g id="node5" class="node">
<title>omega_2</title>
<polygon fill="none" stroke="black" points="130,-173.13 16,-173.13 16,-120.13 130,-120.13 130,-173.13"/>
<text text-anchor="middle" x="73" y="-157.93" font-family="Times,serif" font-size="14.00">omega_2</text>
<text text-anchor="middle" x="73" y="-142.93" font-family="Times,serif" font-size="14.00">~</text>
<text text-anchor="middle" x="73" y="-127.93" font-family="Times,serif" font-size="14.00">Deterministic</text>
</g>
<!-- mu_omega_1&#45;&gt;omega_2 -->
<g id="edge1" class="edge">
<title>mu_omega_1&#45;&gt;omega_2</title>
<path fill="none" stroke="black" d="M177.59,-215.94C159.66,-204.23 139.03,-190.76 120.87,-178.9"/>
<polygon fill="black" stroke="black" points="122.46,-175.75 112.17,-173.21 118.63,-181.61 122.46,-175.75"/>
</g>
<!-- sigma_omega_1 -->
<g id="node3" class="node">
<title>sigma_omega_1</title>
<ellipse fill="none" stroke="black" cx="409" cy="-246.61" rx="91.43" ry="37.45"/>
<text text-anchor="middle" x="409" y="-257.91" font-family="Times,serif" font-size="14.00">sigma_omega_1</text>
<text text-anchor="middle" x="409" y="-242.91" font-family="Times,serif" font-size="14.00">~</text>
<text text-anchor="middle" x="409" y="-227.91" font-family="Times,serif" font-size="14.00">HalfCauchy</text>
</g>
<!-- sigma_omega_1&#45;&gt;omega_2 -->
<g id="edge2" class="edge">
<title>sigma_omega_1&#45;&gt;omega_2</title>
<path fill="none" stroke="black" d="M343.14,-220.58C331.81,-216.57 320.11,-212.6 309,-209.13 252.58,-191.53 187.53,-174.84 140.03,-163.3"/>
<polygon fill="black" stroke="black" points="140.72,-159.87 130.17,-160.92 139.07,-166.67 140.72,-159.87"/>
</g>
<!-- offset -->
<g id="node4" class="node">
<title>offset</title>
<ellipse fill="none" stroke="black" cx="73" cy="-246.61" rx="49.49" ry="37.45"/>
<text text-anchor="middle" x="73" y="-257.91" font-family="Times,serif" font-size="14.00">offset</text>
<text text-anchor="middle" x="73" y="-242.91" font-family="Times,serif" font-size="14.00">~</text>
<text text-anchor="middle" x="73" y="-227.91" font-family="Times,serif" font-size="14.00">Normal</text>
</g>
<!-- offset&#45;&gt;omega_2 -->
<g id="edge3" class="edge">
<title>offset&#45;&gt;omega_2</title>
<path fill="none" stroke="black" d="M73,-209.12C73,-200.71 73,-191.76 73,-183.38"/>
<polygon fill="black" stroke="black" points="76.5,-183.14 73,-173.14 69.5,-183.14 76.5,-183.14"/>
</g>
<!-- omega_2&#45;&gt;hgf_loglike -->
<g id="edge4" class="edge">
<title>omega_2&#45;&gt;hgf_loglike</title>
<path fill="none" stroke="black" d="M73,-119.91C73,-111.24 73,-101.25 73,-91.37"/>
<polygon fill="black" stroke="black" points="76.5,-91.17 73,-81.17 69.5,-91.17 76.5,-91.17"/>
</g>
</g>
</svg>