<?xml version="1.0" encoding="UTF-8" standalone="no"?>
<!DOCTYPE svg PUBLIC "-//W3C//DTD SVG 1.1//EN"
 "http://www.w3.org/Graphics/SVG/1.1/DTD/svg11.dtd">
<!-- Generated by graphviz version 2.43.0 (0)
 -->
<!-- Title: %3 Pages: 1 -->
<svg width="340pt" height="314pt"
 viewBox="0.00 0.00 339.98 314.04" xmlns="http://www.w3.org/2000/svg" xmlns:xlink="http://www.w3.org/1999/xlink">
<g id="graph0" class="graph" transform="scale(1 1) rotate(0) translate(4 310.04)">
<title>%3</title>
<polygon fill="white" stroke="transparent" points="-4,4 -4,-310.04 335.98,-310.04 335.98,4 -4,4"/>
<g id="clust1" class="cluster">
<title>cluster4</title>
<path fill="none" stroke="black" d="M123.22,-89.13C123.22,-89.13 233.22,-89.13 233.22,-89.13 239.22,-89.13 245.22,-95.13 245.22,-101.13 245.22,-101.13 245.22,-191.08 245.22,-191.08 245.22,-197.08 239.22,-203.08 233.22,-203.08 233.22,-203.08 123.22,-203.08 123.22,-203.08 117.22,-203.08 111.22,-197.08 111.22,-191.08 111.22,-191.08 111.22,-101.13 111.22,-101.13 111.22,-95.13 117.22,-89.13 123.22,-89.13"/>
<text text-anchor="middle" x="232.22" y="-96.93" font-family="Times,serif" font-size="14.00">4</text>
</g>
<!-- sigma_omega_2 -->
<g id="node1" class="node">
<title>sigma_omega_2</title>
<ellipse fill="none" stroke="black" cx="91.22" cy="-268.56" rx="91.43" ry="37.45"/>
<text text-anchor="middle" x="91.22" y="-279.86" font-family="Times,serif" font-size="14.00">sigma_omega_2</text>
<text text-anchor="middle" x="91.22" y="-264.86" font-family="Times,serif" font-size="14.00">~</text>
<text text-anchor="middle" x="91.22" y="-249.86" font-family="Times,serif" font-size="14.00">HalfNormal</text>
</g>
<!-- omega_2 -->
<g id="node4" class="node">
<title>omega_2</title>
<ellipse fill="none" stroke="black" cx="178.22" cy="-157.61" rx="59.29" ry="37.45"/>
<text text-anchor="middle" x="178.22" y="-168.91" font-family="Times,serif" font-size="14.00">omega_2</text>
<text text-anchor="middle" x="178.22" y="-153.91" font-family="Times,serif" font-size="14.00">~</text>
<text text-anchor="middle" x="178.22" y="-138.91" font-family="Times,serif" font-size="14.00">Censored</text>
</g>
<!-- sigma_omega_2&#45;&gt;omega_2 -->
<g id="edge1" class="edge">
<title>sigma_omega_2&#45;&gt;omega_2</title>
<path fill="none" stroke="black" d="M118.98,-232.79C127.47,-222.16 136.87,-210.38 145.64,-199.4"/>
<polygon fill="black" stroke="black" points="148.39,-201.56 151.9,-191.57 142.92,-197.2 148.39,-201.56"/>
</g>
<!-- hgf_loglike -->
<g id="node2" class="node">
<title>hgf_loglike</title>
<polygon fill="lightgrey" stroke="black" points="250.11,-23.74 250.11,-57.39 207.99,-81.19 148.44,-81.19 106.33,-57.39 106.33,-23.74 148.44,0.06 207.99,0.06 250.11,-23.74"/>
<text text-anchor="middle" x="178.22" y="-51.86" font-family="Times,serif" font-size="14.00">hgf_loglike</text>
<text text-anchor="middle" x="178.22" y="-36.86" font-family="Times,serif" font-size="14.00">~</text>
<text text-anchor="middle" x="178.22" y="-21.86" font-family="Times,serif" font-size="14.00">Potential</text>
</g>
<!-- mu_omega -->
<g id="node3" class="node">
<title>mu_omega</title>
<ellipse fill="none" stroke="black" cx="266.22" cy="-268.56" rx="65.52" ry="37.45"/>
<text text-anchor="middle" x="266.22" y="-279.86" font-family="Times,serif" font-size="14.00">mu_omega</text>
<text text-anchor="middle" x="266.22" y="-264.86" font-family="Times,serif" font-size="14.00">~</text>
<text text-anchor="middle" x="266.22" y="-249.86" font-family="Times,serif" font-size="14.00">Normal</text>
</g>
<!-- mu_omega&#45;&gt;omega_2 -->
<g id="edge2" class="edge">
<title>mu_omega&#45;&gt;omega_2</title>
<path fill="none" stroke="black" d="M239.34,-234.28C230.38,-223.19 220.31,-210.72 210.96,-199.15"/>
<polygon fill="black" stroke="black" points="213.64,-196.89 204.63,-191.31 208.19,-201.29 213.64,-196.89"/>
</g>
<!-- omega_2&#45;&gt;hgf_loglike -->
<g id="edge3" class="edge">
<title>omega_2&#45;&gt;hgf_loglike</title>
<path fill="none" stroke="black" d="M178.22,-119.89C178.22,-110.91 178.22,-101.14 178.22,-91.65"/>
<polygon fill="black" stroke="black" points="181.72,-91.51 178.22,-81.51 174.72,-91.51 181.72,-91.51"/>
</g>
</g>
</svg>