<?xml version="1.0" encoding="UTF-8" standalone="no"?>
<!DOCTYPE svg PUBLIC "-//W3C//DTD SVG 1.1//EN"
 "http://www.w3.org/Graphics/SVG/1.1/DTD/svg11.dtd">
<!-- Generated by graphviz version 2.43.0 (0)
 -->
<!-- Title: %3 Pages: 1 -->
<svg width="492pt" height="200pt"
 viewBox="0.00 0.00 492.07 200.08" xmlns="http://www.w3.org/2000/svg" xmlns:xlink="http://www.w3.org/1999/xlink">
<g id="graph0" class="graph" transform="scale(1 1) rotate(0) translate(4 196.08)">
<title>%3</title>
<polygon fill="white" stroke="transparent" points="-4,4 -4,-196.08 488.07,-196.08 488.07,4 -4,4"/>
<!-- mu_2 -->
<g id="node1" class="node">
<title>mu_2</title>
<ellipse fill="none" stroke="black" cx="49.5" cy="-154.61" rx="49.49" ry="37.45"/>
<text text-anchor="middle" x="49.5" y="-165.91" font-family="Times,serif" font-size="14.00">mu_2</text>
<text text-anchor="middle" x="49.5" y="-150.91" font-family="Times,serif" font-size="14.00">~</text>
<text text-anchor="middle" x="49.5" y="-135.91" font-family="Times,serif" font-size="14.00">Normal</text>
</g>
<!-- hhgf_loglike -->
<g id="node2" class="node">
<title>hhgf_loglike</title>
<polygon fill="lightgrey" stroke="black" points="308.16,-23.74 308.16,-57.39 262.08,-81.19 196.91,-81.19 150.83,-57.39 150.83,-23.74 196.91,0.06 262.08,0.06 308.16,-23.74"/>
<text text-anchor="middle" x="229.5" y="-51.86" font-family="Times,serif" font-size="14.00">hhgf_loglike</text>
<text text-anchor="middle" x="229.5" y="-36.86" font-family="Times,serif" font-size="14.00">~</text>
<text text-anchor="middle" x="229.5" y="-21.86" font-family="Times,serif" font-size="14.00">Potential</text>
</g>
<!-- mu_2&#45;&gt;hhgf_loglike -->
<g id="edge2" class="edge">
<title>mu_2&#45;&gt;hhgf_loglike</title>
<path fill="none" stroke="black" d="M87.23,-130.12C111.51,-115.01 143.55,-95.06 171.08,-77.92"/>
<polygon fill="black" stroke="black" points="173.21,-80.73 179.85,-72.47 169.51,-74.78 173.21,-80.73"/>
</g>
<!-- mu_1 -->
<g id="node3" class="node">
<title>mu_1</title>
<ellipse fill="none" stroke="black" cx="166.5" cy="-154.61" rx="49.49" ry="37.45"/>
<text text-anchor="middle" x="166.5" y="-165.91" font-family="Times,serif" font-size="14.00">mu_1</text>
<text text-anchor="middle" x="166.5" y="-150.91" font-family="Times,serif" font-size="14.00">~</text>
<text text-anchor="middle" x="166.5" y="-135.91" font-family="Times,serif" font-size="14.00">Normal</text>
</g>
<!-- mu_1&#45;&gt;hhgf_loglike -->
<g id="edge4" class="edge">
<title>mu_1&#45;&gt;hhgf_loglike</title>
<path fill="none" stroke="black" d="M185.57,-119.69C190.78,-110.41 196.54,-100.18 202.12,-90.26"/>
<polygon fill="black" stroke="black" points="205.32,-91.71 207.17,-81.28 199.22,-88.28 205.32,-91.71"/>
</g>
<!-- omega_2 -->
<g id="node4" class="node">
<title>omega_2</title>
<ellipse fill="none" stroke="black" cx="293.5" cy="-154.61" rx="59.29" ry="37.45"/>
<text text-anchor="middle" x="293.5" y="-165.91" font-family="Times,serif" font-size="14.00">omega_2</text>
<text text-anchor="middle" x="293.5" y="-150.91" font-family="Times,serif" font-size="14.00">~</text>
<text text-anchor="middle" x="293.5" y="-135.91" font-family="Times,serif" font-size="14.00">Censored</text>
</g>
<!-- omega_2&#45;&gt;hhgf_loglike -->
<g id="edge1" class="edge">
<title>omega_2&#45;&gt;hhgf_loglike</title>
<path fill="none" stroke="black" d="M273.77,-119.08C268.54,-109.92 262.8,-99.86 257.23,-90.11"/>
<polygon fill="black" stroke="black" points="260.18,-88.22 252.18,-81.27 254.1,-91.69 260.18,-88.22"/>
</g>
<!-- omega_1 -->
<g id="node5" class="node">
<title>omega_1</title>
<ellipse fill="none" stroke="black" cx="427.5" cy="-154.61" rx="56.64" ry="37.45"/>
<text text-anchor="middle" x="427.5" y="-165.91" font-family="Times,serif" font-size="14.00">omega_1</text>
<text text-anchor="middle" x="427.5" y="-150.91" font-family="Times,serif" font-size="14.00">~</text>
<text text-anchor="middle" x="427.5" y="-135.91" font-family="Times,serif" font-size="14.00">Normal</text>
</g>
<!-- omega_1&#45;&gt;hhgf_loglike -->
<g id="edge3" class="edge">
<title>omega_1&#45;&gt;hhgf_loglike</title>
<path fill="none" stroke="black" d="M385.02,-129.57C357.51,-114 321.24,-93.48 290.65,-76.17"/>
<polygon fill="black" stroke="black" points="292.2,-73.02 281.77,-71.15 288.75,-79.12 292.2,-73.02"/>
</g>
</g>
</svg>