<?xml version="1.0" encoding="UTF-8" standalone="no"?>
<!DOCTYPE svg PUBLIC "-//W3C//DTD SVG 1.1//EN"
 "http://www.w3.org/Graphics/SVG/1.1/DTD/svg11.dtd">
<!-- Generated by graphviz version 2.43.0 (0)
 -->
<!-- Title: %3 Pages: 1 -->
<svg width="746pt" height="200pt"
 viewBox="0.00 0.00 745.89 200.08" xmlns="http://www.w3.org/2000/svg" xmlns:xlink="http://www.w3.org/1999/xlink">
<g id="graph0" class="graph" transform="scale(1 1) rotate(0) translate(4 196.08)">
<title>%3</title>
<polygon fill="white" stroke="transparent" points="-4,4 -4,-196.08 741.89,-196.08 741.89,4 -4,4"/>
<!-- omega_3 -->
<g id="node1" class="node">
<title>omega_3</title>
<ellipse fill="none" stroke="black" cx="59.4" cy="-154.61" rx="59.29" ry="37.45"/>
<text text-anchor="middle" x="59.4" y="-165.91" font-family="Times,serif" font-size="14.00">omega_3</text>
<text text-anchor="middle" x="59.4" y="-150.91" font-family="Times,serif" font-size="14.00">~</text>
<text text-anchor="middle" x="59.4" y="-135.91" font-family="Times,serif" font-size="14.00">Censored</text>
</g>
<!-- hgf_loglike -->
<g id="node7" class="node">
<title>hgf_loglike</title>
<polygon fill="lightgrey" stroke="black" points="452.29,-23.74 452.29,-57.39 410.17,-81.19 350.62,-81.19 308.51,-57.39 308.51,-23.74 350.62,0.06 410.17,0.06 452.29,-23.74"/>
<text text-anchor="middle" x="380.4" y="-51.86" font-family="Times,serif" font-size="14.00">hgf_loglike</text>
<text text-anchor="middle" x="380.4" y="-36.86" font-family="Times,serif" font-size="14.00">~</text>
<text text-anchor="middle" x="380.4" y="-21.86" font-family="Times,serif" font-size="14.00">Potential</text>
</g>
<!-- omega_3&#45;&gt;hgf_loglike -->
<g id="edge2" class="edge">
<title>omega_3&#45;&gt;hgf_loglike</title>
<path fill="none" stroke="black" d="M102.66,-128.72C110.74,-124.56 119.22,-120.5 127.4,-117.13 183.71,-93.9 249.73,-74.42 300.21,-61.06"/>
<polygon fill="black" stroke="black" points="301.31,-64.39 310.09,-58.47 299.53,-57.62 301.31,-64.39"/>
</g>
<!-- omega_1 -->
<g id="node2" class="node">
<title>omega_1</title>
<ellipse fill="none" stroke="black" cx="193.4" cy="-154.61" rx="56.64" ry="37.45"/>
<text text-anchor="middle" x="193.4" y="-165.91" font-family="Times,serif" font-size="14.00">omega_1</text>
<text text-anchor="middle" x="193.4" y="-150.91" font-family="Times,serif" font-size="14.00">~</text>
<text text-anchor="middle" x="193.4" y="-135.91" font-family="Times,serif" font-size="14.00">Normal</text>
</g>
<!-- omega_1&#45;&gt;hgf_loglike -->
<g id="edge4" class="edge">
<title>omega_1&#45;&gt;hgf_loglike</title>
<path fill="none" stroke="black" d="M234.9,-128.74C260.84,-113.2 294.6,-92.97 323.08,-75.91"/>
<polygon fill="black" stroke="black" points="324.95,-78.87 331.73,-70.72 321.35,-72.86 324.95,-78.87"/>
</g>
<!-- mu_2 -->
<g id="node3" class="node">
<title>mu_2</title>
<ellipse fill="none" stroke="black" cx="317.4" cy="-154.61" rx="49.49" ry="37.45"/>
<text text-anchor="middle" x="317.4" y="-165.91" font-family="Times,serif" font-size="14.00">mu_2</text>
<text text-anchor="middle" x="317.4" y="-150.91" font-family="Times,serif" font-size="14.00">~</text>
<text text-anchor="middle" x="317.4" y="-135.91" font-family="Times,serif" font-size="14.00">Normal</text>
</g>
<!-- mu_2&#45;&gt;hgf_loglike -->
<g id="edge6" class="edge">
<title>mu_2&#45;&gt;hgf_loglike</title>
<path fill="none" stroke="black" d="M336.47,-119.69C341.68,-110.41 347.44,-100.18 353.01,-90.26"/>
<polygon fill="black" stroke="black" points="356.22,-91.71 358.07,-81.28 350.12,-88.28 356.22,-91.71"/>
</g>
<!-- omega_2 -->
<g id="node4" class="node">
<title>omega_2</title>
<ellipse fill="none" stroke="black" cx="444.4" cy="-154.61" rx="59.29" ry="37.45"/>
<text text-anchor="middle" x="444.4" y="-165.91" font-family="Times,serif" font-size="14.00">omega_2</text>
<text text-anchor="middle" x="444.4" y="-150.91" font-family="Times,serif" font-size="14.00">~</text>
<text text-anchor="middle" x="444.4" y="-135.91" font-family="Times,serif" font-size="14.00">Censored</text>
</g>
<!-- omega_2&#45;&gt;hgf_loglike -->
<g id="edge1" class="edge">
<title>omega_2&#45;&gt;hgf_loglike</title>
<path fill="none" stroke="black" d="M424.67,-119.08C419.44,-109.92 413.7,-99.86 408.13,-90.11"/>
<polygon fill="black" stroke="black" points="411.08,-88.22 403.08,-81.27 405,-91.69 411.08,-88.22"/>
</g>
<!-- mu_1 -->
<g id="node5" class="node">
<title>mu_1</title>
<ellipse fill="none" stroke="black" cx="571.4" cy="-154.61" rx="49.49" ry="37.45"/>
<text text-anchor="middle" x="571.4" y="-165.91" font-family="Times,serif" font-size="14.00">mu_1</text>
<text text-anchor="middle" x="571.4" y="-150.91" font-family="Times,serif" font-size="14.00">~</text>
<text text-anchor="middle" x="571.4" y="-135.91" font-family="Times,serif" font-size="14.00">Normal</text>
</g>
<!-- mu_1&#45;&gt;hgf_loglike -->
<g id="edge3" class="edge">
<title>mu_1&#45;&gt;hgf_loglike</title>
<path fill="none" stroke="black" d="M533.74,-130.06C526.68,-125.72 519.33,-121.26 512.4,-117.13 488.76,-103.06 462.5,-87.93 439.67,-74.93"/>
<polygon fill="black" stroke="black" points="441.2,-71.77 430.77,-69.87 437.74,-77.86 441.2,-71.77"/>
</g>
<!-- mu_3 -->
<g id="node6" class="node">
<title>mu_3</title>
<ellipse fill="none" stroke="black" cx="688.4" cy="-154.61" rx="49.49" ry="37.45"/>
<text text-anchor="middle" x="688.4" y="-165.91" font-family="Times,serif" font-size="14.00">mu_3</text>
<text text-anchor="middle" x="688.4" y="-150.91" font-family="Times,serif" font-size="14.00">~</text>
<text text-anchor="middle" x="688.4" y="-135.91" font-family="Times,serif" font-size="14.00">Normal</text>
</g>
<!-- mu_3&#45;&gt;hgf_loglike -->
<g id="edge5" class="edge">
<title>mu_3&#45;&gt;hgf_loglike</title>
<path fill="none" stroke="black" d="M652.07,-129.12C644.75,-124.78 636.97,-120.55 629.4,-117.13 575.26,-92.68 511.05,-73.41 461.39,-60.45"/>
<polygon fill="black" stroke="black" points="462.22,-57.05 451.66,-57.95 460.47,-63.83 462.22,-57.05"/>
</g>
</g>
</svg>