<?xml version="1.0" encoding="UTF-8" standalone="no"?>
<!DOCTYPE svg PUBLIC "-//W3C//DTD SVG 1.1//EN"
 "http://www.w3.org/Graphics/SVG/1.1/DTD/svg11.dtd">
<!-- Generated by graphviz version 2.43.0 (0)
 -->
<!-- Title: %3 Pages: 1 -->
<svg width="340pt" height="314pt"
 viewBox="0.00 0.00 339.98 314.04" xmlns="http://www.w3.org/2000/svg" xmlns:xlink="http://www.w3.org/1999/xlink">
<g id="graph0" class="graph" transform="scale(1 1) rotate(0) translate(4 310.04)">
<title>%3</title>
<polygon fill="white" stroke="transparent" points="-4,4 -4,-310.04 335.98,-310.04 335.98,4 -4,4"/>
<g id="clust1" class="cluster">
<title>cluster4</title>
<path fill="none" stroke="black" d="M97.76,-89.13C97.76,-89.13 207.76,-89.13 207.76,-89.13 213.76,-89.13 219.76,-95.13 219.76,-101.13 219.76,-101.13 219.76,-191.08 219.76,-191.08 219.76,-197.08 213.76,-203.08 207.76,-203.08 207.76,-203.08 97.76,-203.08 97.76,-203.08 91.76,-203.08 85.76,-197.08 85.76,-191.08 85.76,-191.08 85.76,-101.13 85.76,-101.13 85.76,-95.13 91.76,-89.13 97.76,-89.13"/>
<text text-anchor="middle" x="206.76" y="-96.93" font-family="Times,serif" font-size="14.00">4</text>
</g>
<!-- mu_omega -->
<g id="node1" class="node">
<title>mu_omega</title>
<ellipse fill="none" stroke="black" cx="65.76" cy="-268.56" rx="65.52" ry="37.45"/>
<text text-anchor="middle" x="65.76" y="-279.86" font-family="Times,serif" font-size="14.00">mu_omega</text>
<text text-anchor="middle" x="65.76" y="-264.86" font-family="Times,serif" font-size="14.00">~</text>
<text text-anchor="middle" x="65.76" y="-249.86" font-family="Times,serif" font-size="14.00">Normal</text>
</g>
<!-- omega_2 -->
<g id="node4" class="node">
<title>omega_2</title>
<ellipse fill="none" stroke="black" cx="152.76" cy="-157.61" rx="59.29" ry="37.45"/>
<text text-anchor="middle" x="152.76" y="-168.91" font-family="Times,serif" font-size="14.00">omega_2</text>
<text text-anchor="middle" x="152.76" y="-153.91" font-family="Times,serif" font-size="14.00">~</text>
<text text-anchor="middle" x="152.76" y="-138.91" font-family="Times,serif" font-size="14.00">Censored</text>
</g>
<!-- mu_omega&#45;&gt;omega_2 -->
<g id="edge1" class="edge">
<title>mu_omega&#45;&gt;omega_2</title>
<path fill="none" stroke="black" d="M92.34,-234.28C101.19,-223.19 111.15,-210.72 120.39,-199.15"/>
<polygon fill="black" stroke="black" points="123.14,-201.31 126.65,-191.31 117.67,-196.94 123.14,-201.31"/>
</g>
<!-- sigma_omega_2 -->
<g id="node2" class="node">
<title>sigma_omega_2</title>
<ellipse fill="none" stroke="black" cx="240.76" cy="-268.56" rx="91.43" ry="37.45"/>
<text text-anchor="middle" x="240.76" y="-279.86" font-family="Times,serif" font-size="14.00">sigma_omega_2</text>
<text text-anchor="middle" x="240.76" y="-264.86" font-family="Times,serif" font-size="14.00">~</text>
<text text-anchor="middle" x="240.76" y="-249.86" font-family="Times,serif" font-size="14.00">HalfNormal</text>
</g>
<!-- sigma_omega_2&#45;&gt;omega_2 -->
<g id="edge2" class="edge">
<title>sigma_omega_2&#45;&gt;omega_2</title>
<path fill="none" stroke="black" d="M212.68,-232.79C204.09,-222.16 194.58,-210.38 185.71,-199.4"/>
<polygon fill="black" stroke="black" points="188.39,-197.15 179.38,-191.57 182.94,-201.54 188.39,-197.15"/>
</g>
<!-- hgf_loglike -->
<g id="node3" class="node">
<title>hgf_loglike</title>
<polygon fill="lightgrey" stroke="black" points="224.65,-23.74 224.65,-57.39 182.54,-81.19 122.98,-81.19 80.87,-57.39 80.87,-23.74 122.98,0.06 182.54,0.06 224.65,-23.74"/>
<text text-anchor="middle" x="152.76" y="-51.86" font-family="Times,serif" font-size="14.00">hgf_loglike</text>
<text text-anchor="middle" x="152.76" y="-36.86" font-family="Times,serif" font-size="14.00">~</text>
<text text-anchor="middle" x="152.76" y="-21.86" font-family="Times,serif" font-size="14.00">Potential</text>
</g>
<!-- omega_2&#45;&gt;hgf_loglike -->
<g id="edge3" class="edge">
<title>omega_2&#45;&gt;hgf_loglike</title>
<path fill="none" stroke="black" d="M152.76,-119.89C152.76,-110.91 152.76,-101.14 152.76,-91.65"/>
<polygon fill="black" stroke="black" points="156.26,-91.51 152.76,-81.51 149.26,-91.51 156.26,-91.51"/>
</g>
</g>
</svg>