<?xml version="1.0" encoding="UTF-8" standalone="no"?>
<!DOCTYPE svg PUBLIC "-//W3C//DTD SVG 1.1//EN"
 "http://www.w3.org/Graphics/SVG/1.1/DTD/svg11.dtd">
<!-- Generated by graphviz version 2.43.0 (0)
 -->
<!-- Title: %3 Pages: 1 -->
<svg width="284pt" height="219pt"
 viewBox="0.00 0.00 284.00 219.08" xmlns="http://www.w3.org/2000/svg" xmlns:xlink="http://www.w3.org/1999/xlink">
<g id="graph0" class="graph" transform="scale(1 1) rotate(0) translate(4 215.08)">
<title>%3</title>
<polygon fill="white" stroke="transparent" points="-4,4 -4,-215.08 280,-215.08 280,4 -4,4"/>
<g id="clust1" class="cluster">
<title>cluster6</title>
<path fill="none" stroke="black" d="M20,-89.13C20,-89.13 256,-89.13 256,-89.13 262,-89.13 268,-95.13 268,-101.13 268,-101.13 268,-191.08 268,-191.08 268,-197.08 262,-203.08 256,-203.08 256,-203.08 20,-203.08 20,-203.08 14,-203.08 8,-197.08 8,-191.08 8,-191.08 8,-101.13 8,-101.13 8,-95.13 14,-89.13 20,-89.13"/>
<text text-anchor="middle" x="255" y="-96.93" font-family="Times,serif" font-size="14.00">6</text>
</g>
<!-- mu_1 -->
<g id="node1" class="node">
<title>mu_1</title>
<ellipse fill="none" stroke="black" cx="206" cy="-157.61" rx="53.98" ry="37.45"/>
<text text-anchor="middle" x="206" y="-168.91" font-family="Times,serif" font-size="14.00">mu_1</text>
<text text-anchor="middle" x="206" y="-153.91" font-family="Times,serif" font-size="14.00">~</text>
<text text-anchor="middle" x="206" y="-138.91" font-family="Times,serif" font-size="14.00">Uniform</text>
</g>
<!-- hgf_loglike -->
<g id="node3" class="node">
<title>hgf_loglike</title>
<polygon fill="lightgrey" stroke="black" points="211.89,-23.74 211.89,-57.39 169.78,-81.19 110.22,-81.19 68.11,-57.39 68.11,-23.74 110.22,0.06 169.78,0.06 211.89,-23.74"/>
<text text-anchor="middle" x="140" y="-51.86" font-family="Times,serif" font-size="14.00">hgf_loglike</text>
<text text-anchor="middle" x="140" y="-36.86" font-family="Times,serif" font-size="14.00">~</text>
<text text-anchor="middle" x="140" y="-21.86" font-family="Times,serif" font-size="14.00">Potential</text>
</g>
<!-- mu_1&#45;&gt;hgf_loglike -->
<g id="edge1" class="edge">
<title>mu_1&#45;&gt;hgf_loglike</title>
<path fill="none" stroke="black" d="M186.38,-122.4C180.62,-112.36 174.2,-101.18 168.03,-90.42"/>
<polygon fill="black" stroke="black" points="170.93,-88.44 162.92,-81.51 164.86,-91.92 170.93,-88.44"/>
</g>
<!-- omega_2 -->
<g id="node2" class="node">
<title>omega_2</title>
<ellipse fill="none" stroke="black" cx="75" cy="-157.61" rx="59.29" ry="37.45"/>
<text text-anchor="middle" x="75" y="-168.91" font-family="Times,serif" font-size="14.00">omega_2</text>
<text text-anchor="middle" x="75" y="-153.91" font-family="Times,serif" font-size="14.00">~</text>
<text text-anchor="middle" x="75" y="-138.91" font-family="Times,serif" font-size="14.00">Censored</text>
</g>
<!-- omega_2&#45;&gt;hgf_loglike -->
<g id="edge2" class="edge">
<title>omega_2&#45;&gt;hgf_loglike</title>
<path fill="none" stroke="black" d="M94.5,-122.09C100.17,-112.06 106.47,-100.91 112.53,-90.18"/>
<polygon fill="black" stroke="black" points="115.67,-91.74 117.54,-81.31 109.58,-88.29 115.67,-91.74"/>
</g>
</g>
</svg>