<?xml version="1.0" encoding="UTF-8" standalone="no"?>
<!DOCTYPE svg PUBLIC "-//W3C//DTD SVG 1.1//EN"
 "http://www.w3.org/Graphics/SVG/1.1/DTD/svg11.dtd">
<!-- Generated by graphviz version 2.43.0 (0)
 -->
<!-- Title: %3 Pages: 1 -->
<svg width="284pt" height="219pt"
 viewBox="0.00 0.00 284.00 219.08" xmlns="http://www.w3.org/2000/svg" xmlns:xlink="http://www.w3.org/1999/xlink">
<g id="graph0" class="graph" transform="scale(1 1) rotate(0) translate(4 215.08)">
<title>%3</title>
<polygon fill="white" stroke="transparent" points="-4,4 -4,-215.08 280,-215.08 280,4 -4,4"/>
<g id="clust1" class="cluster">
<title>cluster6</title>
<path fill="none" stroke="black" d="M20,-89.13C20,-89.13 256,-89.13 256,-89.13 262,-89.13 268,-95.13 268,-101.13 268,-101.13 268,-191.08 268,-191.08 268,-197.08 262,-203.08 256,-203.08 256,-203.08 20,-203.08 20,-203.08 14,-203.08 8,-197.08 8,-191.08 8,-191.08 8,-101.13 8,-101.13 8,-95.13 14,-89.13 20,-89.13"/>
<text text-anchor="middle" x="255" y="-96.93" font-family="Times,serif" font-size="14.00">6</text>
</g>
<!-- omega_2 -->
<g id="node1" class="node">
<title>omega_2</title>
<ellipse fill="none" stroke="black" cx="201" cy="-157.61" rx="59.29" ry="37.45"/>
<text text-anchor="middle" x="201" y="-168.91" font-family="Times,serif" font-size="14.00">omega_2</text>
<text text-anchor="middle" x="201" y="-153.91" font-family="Times,serif" font-size="14.00">~</text>
<text text-anchor="middle" x="201" y="-138.91" font-family="Times,serif" font-size="14.00">Censored</text>
</g>
<!-- hgf_loglike -->
<g id="node3" class="node">
<title>hgf_loglike</title>
<polygon fill="lightgrey" stroke="black" points="206.89,-23.74 206.89,-57.39 164.78,-81.19 105.22,-81.19 63.11,-57.39 63.11,-23.74 105.22,0.06 164.78,0.06 206.89,-23.74"/>
<text text-anchor="middle" x="135" y="-51.86" font-family="Times,serif" font-size="14.00">hgf_loglike</text>
<text text-anchor="middle" x="135" y="-36.86" font-family="Times,serif" font-size="14.00">~</text>
<text text-anchor="middle" x="135" y="-21.86" font-family="Times,serif" font-size="14.00">Potential</text>
</g>
<!-- omega_2&#45;&gt;hgf_loglike -->
<g id="edge1" class="edge">
<title>omega_2&#45;&gt;hgf_loglike</title>
<path fill="none" stroke="black" d="M181.2,-122.09C175.44,-112.06 169.05,-100.91 162.89,-90.18"/>
<polygon fill="black" stroke="black" points="165.81,-88.24 157.8,-81.31 159.74,-91.72 165.81,-88.24"/>
</g>
<!-- mu_1 -->
<g id="node2" class="node">
<title>mu_1</title>
<ellipse fill="none" stroke="black" cx="70" cy="-157.61" rx="53.98" ry="37.45"/>
<text text-anchor="middle" x="70" y="-168.91" font-family="Times,serif" font-size="14.00">mu_1</text>
<text text-anchor="middle" x="70" y="-153.91" font-family="Times,serif" font-size="14.00">~</text>
<text text-anchor="middle" x="70" y="-138.91" font-family="Times,serif" font-size="14.00">Uniform</text>
</g>
<!-- mu_1&#45;&gt;hgf_loglike -->
<g id="edge2" class="edge">
<title>mu_1&#45;&gt;hgf_loglike</title>
<path fill="none" stroke="black" d="M89.33,-122.4C95,-112.36 101.31,-101.18 107.4,-90.42"/>
<polygon fill="black" stroke="black" points="110.56,-91.94 112.43,-81.51 104.46,-88.49 110.56,-91.94"/>
</g>
</g>
</svg>