<?xml version="1.0" encoding="UTF-8" standalone="no"?>
<!DOCTYPE svg PUBLIC "-//W3C//DTD SVG 1.1//EN"
 "http://www.w3.org/Graphics/SVG/1.1/DTD/svg11.dtd">
<!-- Generated by graphviz version 2.43.0 (0)
 -->
<!-- Title: hgf&#45;nodes Pages: 1 -->
<svg width="275pt" height="188pt"
 viewBox="0.00 0.00 275.38 188.00" xmlns="http://www.w3.org/2000/svg" xmlns:xlink="http://www.w3.org/1999/xlink">
<g id="graph0" class="graph" transform="scale(1 1) rotate(0) translate(4 184)">
<title>hgf&#45;nodes</title>
<polygon fill="white" stroke="transparent" points="-4,4 -4,-184 271.38,-184 271.38,4 -4,4"/>
<!-- x_0 -->
<g id="node1" class="node">
<title>x_0</title>
<polygon fill="lightgrey" stroke="black" points="77.58,-10.54 77.58,-25.46 54.8,-36 22.59,-36 -0.19,-25.46 -0.19,-10.54 22.59,0 54.8,0 77.58,-10.54"/>
<text text-anchor="middle" x="38.69" y="-14.3" font-family="Times,serif" font-size="14.00">CI &#45; 0</text>
</g>
<!-- x_1 -->
<g id="node2" class="node">
<title>x_1</title>
<polygon fill="lightgrey" stroke="black" points="172.58,-10.54 172.58,-25.46 149.8,-36 117.59,-36 94.81,-25.46 94.81,-10.54 117.59,0 149.8,0 172.58,-10.54"/>
<text text-anchor="middle" x="133.69" y="-14.3" font-family="Times,serif" font-size="14.00">CI &#45; 1</text>
</g>
<!-- x_2 -->
<g id="node3" class="node">
<title>x_2</title>
<polygon fill="lightgrey" stroke="black" points="267.58,-10.54 267.58,-25.46 244.8,-36 212.59,-36 189.81,-25.46 189.81,-10.54 212.59,0 244.8,0 267.58,-10.54"/>
<text text-anchor="middle" x="228.69" y="-14.3" font-family="Times,serif" font-size="14.00">CI &#45; 2</text>
</g>
<!-- x_3 -->
<g id="node4" class="node">
<title>x_3</title>
<ellipse fill="none" stroke="black" cx="59.69" cy="-90" rx="18" ry="18"/>
<text text-anchor="middle" x="59.69" y="-86.3" font-family="Times,serif" font-size="14.00">3</text>
</g>
<!-- x_3&#45;&gt;x_0 -->
<g id="edge1" class="edge">
<title>x_3&#45;&gt;x_0</title>
<path fill="none" stroke="black" d="M54.72,-72.41C52.35,-64.54 49.47,-54.93 46.8,-46.04"/>
<polygon fill="black" stroke="black" points="50.15,-45.02 43.93,-36.45 43.45,-47.03 50.15,-45.02"/>
</g>
<!-- x_4 -->
<g id="node5" class="node">
<title>x_4</title>
<ellipse fill="none" stroke="black" cx="133.69" cy="-90" rx="18" ry="18"/>
<text text-anchor="middle" x="133.69" y="-86.3" font-family="Times,serif" font-size="14.00">4</text>
</g>
<!-- x_4&#45;&gt;x_1 -->
<g id="edge2" class="edge">
<title>x_4&#45;&gt;x_1</title>
<path fill="none" stroke="black" d="M133.69,-71.7C133.69,-63.98 133.69,-54.71 133.69,-46.11"/>
<polygon fill="black" stroke="black" points="137.19,-46.1 133.69,-36.1 130.19,-46.1 137.19,-46.1"/>
</g>
<!-- x_5 -->
<g id="node6" class="node">
<title>x_5</title>
<ellipse fill="none" stroke="black" cx="207.69" cy="-90" rx="18" ry="18"/>
<text text-anchor="middle" x="207.69" y="-86.3" font-family="Times,serif" font-size="14.00">5</text>
</g>
<!-- x_5&#45;&gt;x_2 -->
<g id="edge3" class="edge">
<title>x_5&#45;&gt;x_2</title>
<path fill="none" stroke="black" d="M212.67,-72.41C215.03,-64.54 217.91,-54.93 220.58,-46.04"/>
<polygon fill="black" stroke="black" points="223.94,-47.03 223.46,-36.45 217.23,-45.02 223.94,-47.03"/>
</g>
<!-- x_6 -->
<g id="node7" class="node">
<title>x_6</title>
<ellipse fill="none" stroke="black" cx="133.69" cy="-162" rx="18" ry="18"/>
<text text-anchor="middle" x="133.69" y="-158.3" font-family="Times,serif" font-size="14.00">6</text>
</g>
<!-- x_6&#45;&gt;x_3 -->
<g id="edge4" class="edge">
<title>x_6&#45;&gt;x_3</title>
<path fill="none" stroke="gray" stroke-dasharray="5,2" d="M120.8,-148.81C109.13,-137.77 91.79,-121.36 78.56,-108.84"/>
<ellipse fill="gray" stroke="gray" cx="75.34" cy="-105.8" rx="4" ry="4"/>
</g>
<!-- x_6&#45;&gt;x_4 -->
<g id="edge5" class="edge">
<title>x_6&#45;&gt;x_4</title>
<path fill="none" stroke="gray" stroke-dasharray="5,2" d="M133.69,-143.7C133.69,-135.39 133.69,-125.28 133.69,-116.14"/>
<ellipse fill="gray" stroke="gray" cx="133.69" cy="-112.1" rx="4" ry="4"/>
</g>
<!-- x_6&#45;&gt;x_5 -->
<g id="edge6" class="edge">
<title>x_6&#45;&gt;x_5</title>
<path fill="none" stroke="gray" stroke-dasharray="5,2" d="M146.58,-148.81C158.25,-137.77 175.6,-121.36 188.83,-108.84"/>
<ellipse fill="gray" stroke="gray" cx="192.04" cy="-105.8" rx="4" ry="4"/>
</g>
</g>
</svg>