<?xml version="1.0" encoding="UTF-8" standalone="no"?>
<!DOCTYPE svg PUBLIC "-//W3C//DTD SVG 1.1//EN"
 "http://www.w3.org/Graphics/SVG/1.1/DTD/svg11.dtd">
<!-- Generated by graphviz version 2.43.0 (0)
 -->
<!-- Title: %3 Pages: 1 -->
<svg width="746pt" height="200pt"
 viewBox="0.00 0.00 745.79 200.08" xmlns="http://www.w3.org/2000/svg" xmlns:xlink="http://www.w3.org/1999/xlink">
<g id="graph0" class="graph" transform="scale(1 1) rotate(0) translate(4 196.08)">
<title>%3</title>
<polygon fill="white" stroke="transparent" points="-4,4 -4,-196.08 741.79,-196.08 741.79,4 -4,4"/>
<!-- omega_3 -->
<g id="node1" class="node">
<title>omega_3</title>
<ellipse fill="none" stroke="black" cx="59.4" cy="-154.61" rx="59.29" ry="37.45"/>
<text text-anchor="middle" x="59.4" y="-165.91" font-family="Times,serif" font-size="14.00">omega_3</text>
<text text-anchor="middle" x="59.4" y="-150.91" font-family="Times,serif" font-size="14.00">~</text>
<text text-anchor="middle" x="59.4" y="-135.91" font-family="Times,serif" font-size="14.00">Censored</text>
</g>
<!-- hgf_loglike -->
<g id="node2" class="node">
<title>hgf_loglike</title>
<polygon fill="lightgrey" stroke="black" points="433.29,-23.74 433.29,-57.39 391.17,-81.19 331.62,-81.19 289.51,-57.39 289.51,-23.74 331.62,0.06 391.17,0.06 433.29,-23.74"/>
<text text-anchor="middle" x="361.4" y="-51.86" font-family="Times,serif" font-size="14.00">hgf_loglike</text>
<text text-anchor="middle" x="361.4" y="-36.86" font-family="Times,serif" font-size="14.00">~</text>
<text text-anchor="middle" x="361.4" y="-21.86" font-family="Times,serif" font-size="14.00">Potential</text>
</g>
<!-- omega_3&#45;&gt;hgf_loglike -->
<g id="edge4" class="edge">
<title>omega_3&#45;&gt;hgf_loglike</title>
<path fill="none" stroke="black" d="M103.02,-129.1C111.32,-124.85 120.03,-120.66 128.4,-117.13 179.23,-95.64 238.4,-76.52 284.39,-62.89"/>
<polygon fill="black" stroke="black" points="285.39,-66.24 293.99,-60.07 283.41,-59.53 285.39,-66.24"/>
</g>
<!-- mu_2 -->
<g id="node3" class="node">
<title>mu_2</title>
<ellipse fill="none" stroke="black" cx="186.4" cy="-154.61" rx="49.49" ry="37.45"/>
<text text-anchor="middle" x="186.4" y="-165.91" font-family="Times,serif" font-size="14.00">mu_2</text>
<text text-anchor="middle" x="186.4" y="-150.91" font-family="Times,serif" font-size="14.00">~</text>
<text text-anchor="middle" x="186.4" y="-135.91" font-family="Times,serif" font-size="14.00">Normal</text>
</g>
<!-- mu_2&#45;&gt;hgf_loglike -->
<g id="edge5" class="edge">
<title>mu_2&#45;&gt;hgf_loglike</title>
<path fill="none" stroke="black" d="M223.94,-129.57C247.86,-114.25 279.28,-94.14 306.04,-77.01"/>
<polygon fill="black" stroke="black" points="308.02,-79.9 314.55,-71.56 304.24,-74 308.02,-79.9"/>
</g>
<!-- mu_1 -->
<g id="node4" class="node">
<title>mu_1</title>
<ellipse fill="none" stroke="black" cx="303.4" cy="-154.61" rx="49.49" ry="37.45"/>
<text text-anchor="middle" x="303.4" y="-165.91" font-family="Times,serif" font-size="14.00">mu_1</text>
<text text-anchor="middle" x="303.4" y="-150.91" font-family="Times,serif" font-size="14.00">~</text>
<text text-anchor="middle" x="303.4" y="-135.91" font-family="Times,serif" font-size="14.00">Normal</text>
</g>
<!-- mu_1&#45;&gt;hgf_loglike -->
<g id="edge1" class="edge">
<title>mu_1&#45;&gt;hgf_loglike</title>
<path fill="none" stroke="black" d="M321.11,-119.38C325.81,-110.31 330.97,-100.34 335.99,-90.64"/>
<polygon fill="black" stroke="black" points="339.25,-91.96 340.74,-81.48 333.03,-88.75 339.25,-91.96"/>
</g>
<!-- mu_3 -->
<g id="node5" class="node">
<title>mu_3</title>
<ellipse fill="none" stroke="black" cx="420.4" cy="-154.61" rx="49.49" ry="37.45"/>
<text text-anchor="middle" x="420.4" y="-165.91" font-family="Times,serif" font-size="14.00">mu_3</text>
<text text-anchor="middle" x="420.4" y="-150.91" font-family="Times,serif" font-size="14.00">~</text>
<text text-anchor="middle" x="420.4" y="-135.91" font-family="Times,serif" font-size="14.00">Normal</text>
</g>
<!-- mu_3&#45;&gt;hgf_loglike -->
<g id="edge2" class="edge">
<title>mu_3&#45;&gt;hgf_loglike</title>
<path fill="none" stroke="black" d="M402.37,-119.38C397.55,-110.22 392.24,-100.13 387.08,-90.34"/>
<polygon fill="black" stroke="black" points="390.17,-88.69 382.41,-81.48 383.98,-91.95 390.17,-88.69"/>
</g>
<!-- omega_1 -->
<g id="node6" class="node">
<title>omega_1</title>
<ellipse fill="none" stroke="black" cx="544.4" cy="-154.61" rx="56.64" ry="37.45"/>
<text text-anchor="middle" x="544.4" y="-165.91" font-family="Times,serif" font-size="14.00">omega_1</text>
<text text-anchor="middle" x="544.4" y="-150.91" font-family="Times,serif" font-size="14.00">~</text>
<text text-anchor="middle" x="544.4" y="-135.91" font-family="Times,serif" font-size="14.00">Normal</text>
</g>
<!-- omega_1&#45;&gt;hgf_loglike -->
<g id="edge3" class="edge">
<title>omega_1&#45;&gt;hgf_loglike</title>
<path fill="none" stroke="black" d="M503.33,-128.46C478.22,-113.09 445.76,-93.21 418.21,-76.35"/>
<polygon fill="black" stroke="black" points="419.81,-73.22 409.46,-70.99 416.16,-79.19 419.81,-73.22"/>
</g>
<!-- omega_2 -->
<g id="node7" class="node">
<title>omega_2</title>
<ellipse fill="none" stroke="black" cx="678.4" cy="-154.61" rx="59.29" ry="37.45"/>
<text text-anchor="middle" x="678.4" y="-165.91" font-family="Times,serif" font-size="14.00">omega_2</text>
<text text-anchor="middle" x="678.4" y="-150.91" font-family="Times,serif" font-size="14.00">~</text>
<text text-anchor="middle" x="678.4" y="-135.91" font-family="Times,serif" font-size="14.00">Censored</text>
</g>
<!-- omega_2&#45;&gt;hgf_loglike -->
<g id="edge6" class="edge">
<title>omega_2&#45;&gt;hgf_loglike</title>
<path fill="none" stroke="black" d="M635.12,-128.75C627.04,-124.59 618.56,-120.52 610.4,-117.13 555.15,-94.19 490.43,-74.77 440.82,-61.35"/>
<polygon fill="black" stroke="black" points="441.68,-57.96 431.11,-58.75 439.87,-64.72 441.68,-57.96"/>
</g>
</g>
</svg>