<?xml version="1.0" encoding="UTF-8" standalone="no"?>
<!DOCTYPE svg PUBLIC "-//W3C//DTD SVG 1.1//EN"
 "http://www.w3.org/Graphics/SVG/1.1/DTD/svg11.dtd">
<!-- Generated by graphviz version 2.43.0 (0)
 -->
<!-- Title: %3 Pages: 1 -->
<svg width="532pt" height="308pt"
 viewBox="0.00 0.00 532.07 308.08" xmlns="http://www.w3.org/2000/svg" xmlns:xlink="http://www.w3.org/1999/xlink">
<g id="graph0" class="graph" transform="scale(1 1) rotate(0) translate(4 304.08)">
<title>%3</title>
<polygon fill="white" stroke="transparent" points="-4,4 -4,-304.08 528.07,-304.08 528.07,4 -4,4"/>
<g id="clust1" class="cluster">
<title>cluster8</title>
<path fill="none" stroke="black" d="M20,-89.13C20,-89.13 150,-89.13 150,-89.13 156,-89.13 162,-95.13 162,-101.13 162,-101.13 162,-280.08 162,-280.08 162,-286.08 156,-292.08 150,-292.08 150,-292.08 20,-292.08 20,-292.08 14,-292.08 8,-286.08 8,-280.08 8,-280.08 8,-101.13 8,-101.13 8,-95.13 14,-89.13 20,-89.13"/>
<text text-anchor="middle" x="149" y="-96.93" font-family="Times,serif" font-size="14.00">8</text>
</g>
<!-- hgf_loglike -->
<g id="node1" class="node">
<title>hgf_loglike</title>
<polygon fill="lightgrey" stroke="black" points="156.89,-23.74 156.89,-57.39 114.78,-81.19 55.22,-81.19 13.11,-57.39 13.11,-23.74 55.22,0.06 114.78,0.06 156.89,-23.74"/>
<text text-anchor="middle" x="85" y="-51.86" font-family="Times,serif" font-size="14.00">hgf_loglike</text>
<text text-anchor="middle" x="85" y="-36.86" font-family="Times,serif" font-size="14.00">~</text>
<text text-anchor="middle" x="85" y="-21.86" font-family="Times,serif" font-size="14.00">Potential</text>
</g>
<!-- sigma_omega_1 -->
<g id="node2" class="node">
<title>sigma_omega_1</title>
<ellipse fill="none" stroke="black" cx="261" cy="-246.61" rx="91.43" ry="37.45"/>
<text text-anchor="middle" x="261" y="-257.91" font-family="Times,serif" font-size="14.00">sigma_omega_1</text>
<text text-anchor="middle" x="261" y="-242.91" font-family="Times,serif" font-size="14.00">~</text>
<text text-anchor="middle" x="261" y="-227.91" font-family="Times,serif" font-size="14.00">HalfCauchy</text>
</g>
<!-- tonic_volatility_1 -->
<g id="node4" class="node">
<title>tonic_volatility_1</title>
<polygon fill="none" stroke="black" points="153.5,-173.13 16.5,-173.13 16.5,-120.13 153.5,-120.13 153.5,-173.13"/>
<text text-anchor="middle" x="85" y="-157.93" font-family="Times,serif" font-size="14.00">tonic_volatility_1</text>
<text text-anchor="middle" x="85" y="-142.93" font-family="Times,serif" font-size="14.00">~</text>
<text text-anchor="middle" x="85" y="-127.93" font-family="Times,serif" font-size="14.00">Deterministic</text>
</g>
<!-- sigma_omega_1&#45;&gt;tonic_volatility_1 -->
<g id="edge2" class="edge">
<title>sigma_omega_1&#45;&gt;tonic_volatility_1</title>
<path fill="none" stroke="black" d="M207.72,-215.94C186.2,-203.96 161.38,-190.15 139.72,-178.09"/>
<polygon fill="black" stroke="black" points="141.4,-175.02 130.96,-173.21 137.99,-181.14 141.4,-175.02"/>
</g>
<!-- mu_omega_1 -->
<g id="node3" class="node">
<title>mu_omega_1</title>
<ellipse fill="none" stroke="black" cx="447" cy="-246.61" rx="77.15" ry="37.45"/>
<text text-anchor="middle" x="447" y="-257.91" font-family="Times,serif" font-size="14.00">mu_omega_1</text>
<text text-anchor="middle" x="447" y="-242.91" font-family="Times,serif" font-size="14.00">~</text>
<text text-anchor="middle" x="447" y="-227.91" font-family="Times,serif" font-size="14.00">Normal</text>
</g>
<!-- mu_omega_1&#45;&gt;tonic_volatility_1 -->
<g id="edge3" class="edge">
<title>mu_omega_1&#45;&gt;tonic_volatility_1</title>
<path fill="none" stroke="black" d="M391.58,-220.36C381.52,-216.28 371.04,-212.35 361,-209.13 295.76,-188.22 219.62,-171.83 163.86,-161.24"/>
<polygon fill="black" stroke="black" points="164.17,-157.74 153.69,-159.34 162.87,-164.62 164.17,-157.74"/>
</g>
<!-- tonic_volatility_1&#45;&gt;hgf_loglike -->
<g id="edge4" class="edge">
<title>tonic_volatility_1&#45;&gt;hgf_loglike</title>
<path fill="none" stroke="black" d="M85,-119.91C85,-111.24 85,-101.25 85,-91.37"/>
<polygon fill="black" stroke="black" points="88.5,-91.17 85,-81.17 81.5,-91.17 88.5,-91.17"/>
</g>
<!-- offset -->
<g id="node5" class="node">
<title>offset</title>
<ellipse fill="none" stroke="black" cx="85" cy="-246.61" rx="49.49" ry="37.45"/>
<text text-anchor="middle" x="85" y="-257.91" font-family="Times,serif" font-size="14.00">offset</text>
<text text-anchor="middle" x="85" y="-242.91" font-family="Times,serif" font-size="14.00">~</text>
<text text-anchor="middle" x="85" y="-227.91" font-family="Times,serif" font-size="14.00">Normal</text>
</g>
<!-- offset&#45;&gt;tonic_volatility_1 -->
<g id="edge1" class="edge">
<title>offset&#45;&gt;tonic_volatility_1</title>
<path fill="none" stroke="black" d="M85,-209.12C85,-200.71 85,-191.76 85,-183.38"/>
<polygon fill="black" stroke="black" points="88.5,-183.14 85,-173.14 81.5,-183.14 88.5,-183.14"/>
</g>
</g>
</svg>