<?xml version="1.0" encoding="UTF-8" standalone="no"?>
<!DOCTYPE svg PUBLIC "-//W3C//DTD SVG 1.1//EN"
 "http://www.w3.org/Graphics/SVG/1.1/DTD/svg11.dtd">
<!-- Generated by graphviz version 2.43.0 (0)
 -->
<!-- Title: %3 Pages: 1 -->
<svg width="746pt" height="200pt"
 viewBox="0.00 0.00 745.89 200.08" xmlns="http://www.w3.org/2000/svg" xmlns:xlink="http://www.w3.org/1999/xlink">
<g id="graph0" class="graph" transform="scale(1 1) rotate(0) translate(4 196.08)">
<title>%3</title>
<polygon fill="white" stroke="transparent" points="-4,4 -4,-196.08 741.89,-196.08 741.89,4 -4,4"/>
<!-- omega_2 -->
<g id="node1" class="node">
<title>omega_2</title>
<ellipse fill="none" stroke="black" cx="59.4" cy="-154.61" rx="59.29" ry="37.45"/>
<text text-anchor="middle" x="59.4" y="-165.91" font-family="Times,serif" font-size="14.00">omega_2</text>
<text text-anchor="middle" x="59.4" y="-150.91" font-family="Times,serif" font-size="14.00">~</text>
<text text-anchor="middle" x="59.4" y="-135.91" font-family="Times,serif" font-size="14.00">Censored</text>
</g>
<!-- hgf_loglike -->
<g id="node2" class="node">
<title>hgf_loglike</title>
<polygon fill="lightgrey" stroke="black" points="457.29,-23.74 457.29,-57.39 415.17,-81.19 355.62,-81.19 313.51,-57.39 313.51,-23.74 355.62,0.06 415.17,0.06 457.29,-23.74"/>
<text text-anchor="middle" x="385.4" y="-51.86" font-family="Times,serif" font-size="14.00">hgf_loglike</text>
<text text-anchor="middle" x="385.4" y="-36.86" font-family="Times,serif" font-size="14.00">~</text>
<text text-anchor="middle" x="385.4" y="-21.86" font-family="Times,serif" font-size="14.00">Potential</text>
</g>
<!-- omega_2&#45;&gt;hgf_loglike -->
<g id="edge3" class="edge">
<title>omega_2&#45;&gt;hgf_loglike</title>
<path fill="none" stroke="black" d="M102.94,-128.91C111.25,-124.68 119.99,-120.55 128.4,-117.13 186.07,-93.68 253.71,-74.09 305.11,-60.74"/>
<polygon fill="black" stroke="black" points="306.03,-64.12 314.84,-58.24 304.29,-57.34 306.03,-64.12"/>
</g>
<!-- omega_3 -->
<g id="node3" class="node">
<title>omega_3</title>
<ellipse fill="none" stroke="black" cx="196.4" cy="-154.61" rx="59.29" ry="37.45"/>
<text text-anchor="middle" x="196.4" y="-165.91" font-family="Times,serif" font-size="14.00">omega_3</text>
<text text-anchor="middle" x="196.4" y="-150.91" font-family="Times,serif" font-size="14.00">~</text>
<text text-anchor="middle" x="196.4" y="-135.91" font-family="Times,serif" font-size="14.00">Censored</text>
</g>
<!-- omega_3&#45;&gt;hgf_loglike -->
<g id="edge5" class="edge">
<title>omega_3&#45;&gt;hgf_loglike</title>
<path fill="none" stroke="black" d="M239.28,-128.18C265.44,-112.68 299.21,-92.66 327.69,-75.78"/>
<polygon fill="black" stroke="black" points="329.53,-78.75 336.34,-70.64 325.96,-72.73 329.53,-78.75"/>
</g>
<!-- mu_3 -->
<g id="node4" class="node">
<title>mu_3</title>
<ellipse fill="none" stroke="black" cx="323.4" cy="-154.61" rx="49.49" ry="37.45"/>
<text text-anchor="middle" x="323.4" y="-165.91" font-family="Times,serif" font-size="14.00">mu_3</text>
<text text-anchor="middle" x="323.4" y="-150.91" font-family="Times,serif" font-size="14.00">~</text>
<text text-anchor="middle" x="323.4" y="-135.91" font-family="Times,serif" font-size="14.00">Normal</text>
</g>
<!-- mu_3&#45;&gt;hgf_loglike -->
<g id="edge2" class="edge">
<title>mu_3&#45;&gt;hgf_loglike</title>
<path fill="none" stroke="black" d="M342.17,-119.69C347.3,-110.41 352.96,-100.18 358.45,-90.26"/>
<polygon fill="black" stroke="black" points="361.64,-91.72 363.42,-81.28 355.52,-88.33 361.64,-91.72"/>
</g>
<!-- omega_1 -->
<g id="node5" class="node">
<title>omega_1</title>
<ellipse fill="none" stroke="black" cx="447.4" cy="-154.61" rx="56.64" ry="37.45"/>
<text text-anchor="middle" x="447.4" y="-165.91" font-family="Times,serif" font-size="14.00">omega_1</text>
<text text-anchor="middle" x="447.4" y="-150.91" font-family="Times,serif" font-size="14.00">~</text>
<text text-anchor="middle" x="447.4" y="-135.91" font-family="Times,serif" font-size="14.00">Normal</text>
</g>
<!-- omega_1&#45;&gt;hgf_loglike -->
<g id="edge6" class="edge">
<title>omega_1&#45;&gt;hgf_loglike</title>
<path fill="none" stroke="black" d="M428.29,-119.08C423.22,-109.92 417.66,-99.86 412.26,-90.11"/>
<polygon fill="black" stroke="black" points="415.28,-88.33 407.37,-81.27 409.15,-91.72 415.28,-88.33"/>
</g>
<!-- mu_2 -->
<g id="node6" class="node">
<title>mu_2</title>
<ellipse fill="none" stroke="black" cx="571.4" cy="-154.61" rx="49.49" ry="37.45"/>
<text text-anchor="middle" x="571.4" y="-165.91" font-family="Times,serif" font-size="14.00">mu_2</text>
<text text-anchor="middle" x="571.4" y="-150.91" font-family="Times,serif" font-size="14.00">~</text>
<text text-anchor="middle" x="571.4" y="-135.91" font-family="Times,serif" font-size="14.00">Normal</text>
</g>
<!-- mu_2&#45;&gt;hgf_loglike -->
<g id="edge4" class="edge">
<title>mu_2&#45;&gt;hgf_loglike</title>
<path fill="none" stroke="black" d="M534.05,-129.9C527.2,-125.62 520.1,-121.21 513.4,-117.13 490.74,-103.32 465.63,-88.41 443.69,-75.52"/>
<polygon fill="black" stroke="black" points="445.22,-72.35 434.82,-70.31 441.68,-78.39 445.22,-72.35"/>
</g>
<!-- mu_1 -->
<g id="node7" class="node">
<title>mu_1</title>
<ellipse fill="none" stroke="black" cx="688.4" cy="-154.61" rx="49.49" ry="37.45"/>
<text text-anchor="middle" x="688.4" y="-165.91" font-family="Times,serif" font-size="14.00">mu_1</text>
<text text-anchor="middle" x="688.4" y="-150.91" font-family="Times,serif" font-size="14.00">~</text>
<text text-anchor="middle" x="688.4" y="-135.91" font-family="Times,serif" font-size="14.00">Normal</text>
</g>
<!-- mu_1&#45;&gt;hgf_loglike -->
<g id="edge1" class="edge">
<title>mu_1&#45;&gt;hgf_loglike</title>
<path fill="none" stroke="black" d="M652.05,-129.16C644.73,-124.81 636.96,-120.57 629.4,-117.13 576.62,-93.12 514.11,-73.92 465.57,-60.89"/>
<polygon fill="black" stroke="black" points="466.31,-57.46 455.75,-58.28 464.52,-64.23 466.31,-57.46"/>
</g>
</g>
</svg>