<?xml version="1.0" encoding="UTF-8" standalone="no"?>
<!DOCTYPE svg PUBLIC "-//W3C//DTD SVG 1.1//EN"
 "http://www.w3.org/Graphics/SVG/1.1/DTD/svg11.dtd">
<!-- Generated by graphviz version 2.43.0 (0)
 -->
<!-- Title: hgf&#45;nodes Pages: 1 -->
<svg width="152pt" height="260pt"
 viewBox="0.00 0.00 152.38 260.00" xmlns="http://www.w3.org/2000/svg" xmlns:xlink="http://www.w3.org/1999/xlink">
<g id="graph0" class="graph" transform="scale(1 1) rotate(0) translate(4 256)">
<title>hgf&#45;nodes</title>
<polygon fill="white" stroke="transparent" points="-4,4 -4,-256 148.38,-256 148.38,4 -4,4"/>
<!-- x_0 -->
<g id="node1" class="node">
<title>x_0</title>
<polygon fill="lightgrey" stroke="black" points="77.58,-82.54 77.58,-97.46 54.8,-108 22.59,-108 -0.19,-97.46 -0.19,-82.54 22.59,-72 54.8,-72 77.58,-82.54"/>
<text text-anchor="middle" x="38.69" y="-86.3" font-family="Times,serif" font-size="14.00">CI &#45; 0</text>
</g>
<!-- x_1 -->
<g id="node2" class="node">
<title>x_1</title>
<polygon fill="lightgrey" stroke="black" points="144.58,-10.54 144.58,-25.46 121.8,-36 89.59,-36 66.81,-25.46 66.81,-10.54 89.59,0 121.8,0 144.58,-10.54"/>
<text text-anchor="middle" x="105.69" y="-14.3" font-family="Times,serif" font-size="14.00">CI &#45; 1</text>
</g>
<!-- x_2 -->
<g id="node3" class="node">
<title>x_2</title>
<ellipse fill="none" stroke="black" cx="71.69" cy="-162" rx="18" ry="18"/>
<text text-anchor="middle" x="71.69" y="-158.3" font-family="Times,serif" font-size="14.00">2</text>
</g>
<!-- x_2&#45;&gt;x_0 -->
<g id="edge1" class="edge">
<title>x_2&#45;&gt;x_0</title>
<path fill="none" stroke="black" d="M64.37,-145.46C60.54,-137.33 55.73,-127.15 51.32,-117.79"/>
<polygon fill="black" stroke="black" points="54.35,-116.01 46.92,-108.46 48.02,-119 54.35,-116.01"/>
</g>
<!-- x_2&#45;&gt;x_1 -->
<g id="edge2" class="edge">
<title>x_2&#45;&gt;x_1</title>
<path fill="none" stroke="black" d="M76.7,-144.37C79.76,-133.96 83.65,-120.25 86.69,-108 91.79,-87.43 96.77,-63.97 100.34,-46.31"/>
<polygon fill="black" stroke="black" points="103.85,-46.63 102.38,-36.14 96.99,-45.26 103.85,-46.63"/>
</g>
<!-- x_3 -->
<g id="node4" class="node">
<title>x_3</title>
<ellipse fill="none" stroke="black" cx="71.69" cy="-234" rx="18" ry="18"/>
<text text-anchor="middle" x="71.69" y="-230.3" font-family="Times,serif" font-size="14.00">3</text>
</g>
<!-- x_3&#45;&gt;x_2 -->
<g id="edge3" class="edge">
<title>x_3&#45;&gt;x_2</title>
<path fill="none" stroke="gray" stroke-dasharray="5,2" d="M71.69,-215.7C71.69,-207.39 71.69,-197.28 71.69,-188.14"/>
<ellipse fill="gray" stroke="gray" cx="71.69" cy="-184.1" rx="4" ry="4"/>
</g>
</g>
</svg>