<?xml version="1.0" encoding="UTF-8" standalone="no"?>
<!DOCTYPE svg PUBLIC "-//W3C//DTD SVG 1.1//EN"
 "http://www.w3.org/Graphics/SVG/1.1/DTD/svg11.dtd">
<!-- Generated by graphviz version 2.43.0 (0)
 -->
<!-- Title: %3 Pages: 1 -->
<svg width="492pt" height="200pt"
 viewBox="0.00 0.00 491.89 200.08" xmlns="http://www.w3.org/2000/svg" xmlns:xlink="http://www.w3.org/1999/xlink">
<g id="graph0" class="graph" transform="scale(1 1) rotate(0) translate(4 196.08)">
<title>%3</title>
<polygon fill="white" stroke="transparent" points="-4,4 -4,-196.08 487.89,-196.08 487.89,4 -4,4"/>
<!-- hgf_loglike -->
<g id="node1" class="node">
<title>hgf_loglike</title>
<polygon fill="lightgrey" stroke="black" points="307.39,-23.74 307.39,-57.39 265.27,-81.19 205.72,-81.19 163.61,-57.39 163.61,-23.74 205.72,0.06 265.27,0.06 307.39,-23.74"/>
<text text-anchor="middle" x="235.5" y="-51.86" font-family="Times,serif" font-size="14.00">hgf_loglike</text>
<text text-anchor="middle" x="235.5" y="-36.86" font-family="Times,serif" font-size="14.00">~</text>
<text text-anchor="middle" x="235.5" y="-21.86" font-family="Times,serif" font-size="14.00">Potential</text>
</g>
<!-- mu_1 -->
<g id="node2" class="node">
<title>mu_1</title>
<ellipse fill="none" stroke="black" cx="49.5" cy="-154.61" rx="49.49" ry="37.45"/>
<text text-anchor="middle" x="49.5" y="-165.91" font-family="Times,serif" font-size="14.00">mu_1</text>
<text text-anchor="middle" x="49.5" y="-150.91" font-family="Times,serif" font-size="14.00">~</text>
<text text-anchor="middle" x="49.5" y="-135.91" font-family="Times,serif" font-size="14.00">Normal</text>
</g>
<!-- mu_1&#45;&gt;hgf_loglike -->
<g id="edge2" class="edge">
<title>mu_1&#45;&gt;hgf_loglike</title>
<path fill="none" stroke="black" d="M86.84,-129.9C93.69,-125.62 100.79,-121.21 107.5,-117.13 130.16,-103.32 155.27,-88.41 177.2,-75.52"/>
<polygon fill="black" stroke="black" points="179.22,-78.39 186.07,-70.31 175.67,-72.35 179.22,-78.39"/>
</g>
<!-- omega_1 -->
<g id="node3" class="node">
<title>omega_1</title>
<ellipse fill="none" stroke="black" cx="173.5" cy="-154.61" rx="56.64" ry="37.45"/>
<text text-anchor="middle" x="173.5" y="-165.91" font-family="Times,serif" font-size="14.00">omega_1</text>
<text text-anchor="middle" x="173.5" y="-150.91" font-family="Times,serif" font-size="14.00">~</text>
<text text-anchor="middle" x="173.5" y="-135.91" font-family="Times,serif" font-size="14.00">Normal</text>
</g>
<!-- omega_1&#45;&gt;hgf_loglike -->
<g id="edge3" class="edge">
<title>omega_1&#45;&gt;hgf_loglike</title>
<path fill="none" stroke="black" d="M192.61,-119.08C197.67,-109.92 203.24,-99.86 208.63,-90.11"/>
<polygon fill="black" stroke="black" points="211.74,-91.72 213.52,-81.27 205.62,-88.33 211.74,-91.72"/>
</g>
<!-- mu_2 -->
<g id="node4" class="node">
<title>mu_2</title>
<ellipse fill="none" stroke="black" cx="297.5" cy="-154.61" rx="49.49" ry="37.45"/>
<text text-anchor="middle" x="297.5" y="-165.91" font-family="Times,serif" font-size="14.00">mu_2</text>
<text text-anchor="middle" x="297.5" y="-150.91" font-family="Times,serif" font-size="14.00">~</text>
<text text-anchor="middle" x="297.5" y="-135.91" font-family="Times,serif" font-size="14.00">Normal</text>
</g>
<!-- mu_2&#45;&gt;hgf_loglike -->
<g id="edge1" class="edge">
<title>mu_2&#45;&gt;hgf_loglike</title>
<path fill="none" stroke="black" d="M278.73,-119.69C273.6,-110.41 267.93,-100.18 262.45,-90.26"/>
<polygon fill="black" stroke="black" points="265.38,-88.33 257.47,-81.28 259.25,-91.72 265.38,-88.33"/>
</g>
<!-- omega_2 -->
<g id="node5" class="node">
<title>omega_2</title>
<ellipse fill="none" stroke="black" cx="424.5" cy="-154.61" rx="59.29" ry="37.45"/>
<text text-anchor="middle" x="424.5" y="-165.91" font-family="Times,serif" font-size="14.00">omega_2</text>
<text text-anchor="middle" x="424.5" y="-150.91" font-family="Times,serif" font-size="14.00">~</text>
<text text-anchor="middle" x="424.5" y="-135.91" font-family="Times,serif" font-size="14.00">Censored</text>
</g>
<!-- omega_2&#45;&gt;hgf_loglike -->
<g id="edge4" class="edge">
<title>omega_2&#45;&gt;hgf_loglike</title>
<path fill="none" stroke="black" d="M381.61,-128.18C355.45,-112.68 321.69,-92.66 293.21,-75.78"/>
<polygon fill="black" stroke="black" points="294.94,-72.73 284.55,-70.64 291.37,-78.75 294.94,-72.73"/>
</g>
</g>
</svg>