<?xml version="1.0" encoding="UTF-8" standalone="no"?>
<!DOCTYPE svg PUBLIC "-//W3C//DTD SVG 1.1//EN"
 "http://www.w3.org/Graphics/SVG/1.1/DTD/svg11.dtd">
<!-- Generated by graphviz version 2.43.0 (0)
 -->
<!-- Title: %3 Pages: 1 -->
<svg width="746pt" height="200pt"
 viewBox="0.00 0.00 745.99 200.08" xmlns="http://www.w3.org/2000/svg" xmlns:xlink="http://www.w3.org/1999/xlink">
<g id="graph0" class="graph" transform="scale(1 1) rotate(0) translate(4 196.08)">
<title>%3</title>
<polygon fill="white" stroke="transparent" points="-4,4 -4,-196.08 741.99,-196.08 741.99,4 -4,4"/>
<!-- mu_3 -->
<g id="node1" class="node">
<title>mu_3</title>
<ellipse fill="none" stroke="black" cx="49.5" cy="-154.61" rx="49.49" ry="37.45"/>
<text text-anchor="middle" x="49.5" y="-165.91" font-family="Times,serif" font-size="14.00">mu_3</text>
<text text-anchor="middle" x="49.5" y="-150.91" font-family="Times,serif" font-size="14.00">~</text>
<text text-anchor="middle" x="49.5" y="-135.91" font-family="Times,serif" font-size="14.00">Normal</text>
</g>
<!-- hgf_loglike -->
<g id="node6" class="node">
<title>hgf_loglike</title>
<polygon fill="lightgrey" stroke="black" points="442.39,-23.74 442.39,-57.39 400.27,-81.19 340.72,-81.19 298.61,-57.39 298.61,-23.74 340.72,0.06 400.27,0.06 442.39,-23.74"/>
<text text-anchor="middle" x="370.5" y="-51.86" font-family="Times,serif" font-size="14.00">hgf_loglike</text>
<text text-anchor="middle" x="370.5" y="-36.86" font-family="Times,serif" font-size="14.00">~</text>
<text text-anchor="middle" x="370.5" y="-21.86" font-family="Times,serif" font-size="14.00">Potential</text>
</g>
<!-- mu_3&#45;&gt;hgf_loglike -->
<g id="edge1" class="edge">
<title>mu_3&#45;&gt;hgf_loglike</title>
<path fill="none" stroke="black" d="M85.45,-128.83C92.56,-124.55 100.11,-120.43 107.5,-117.13 165.86,-91.02 235.54,-71.48 288.51,-58.82"/>
<polygon fill="black" stroke="black" points="289.61,-62.16 298.54,-56.46 288,-55.34 289.61,-62.16"/>
</g>
<!-- omega_1 -->
<g id="node2" class="node">
<title>omega_1</title>
<ellipse fill="none" stroke="black" cx="173.5" cy="-154.61" rx="56.64" ry="37.45"/>
<text text-anchor="middle" x="173.5" y="-165.91" font-family="Times,serif" font-size="14.00">omega_1</text>
<text text-anchor="middle" x="173.5" y="-150.91" font-family="Times,serif" font-size="14.00">~</text>
<text text-anchor="middle" x="173.5" y="-135.91" font-family="Times,serif" font-size="14.00">Normal</text>
</g>
<!-- omega_1&#45;&gt;hgf_loglike -->
<g id="edge2" class="edge">
<title>omega_1&#45;&gt;hgf_loglike</title>
<path fill="none" stroke="black" d="M215.76,-129.57C243.75,-113.65 280.85,-92.55 311.7,-75"/>
<polygon fill="black" stroke="black" points="313.68,-77.9 320.64,-69.92 310.22,-71.82 313.68,-77.9"/>
</g>
<!-- omega_3 -->
<g id="node3" class="node">
<title>omega_3</title>
<ellipse fill="none" stroke="black" cx="307.5" cy="-154.61" rx="59.29" ry="37.45"/>
<text text-anchor="middle" x="307.5" y="-165.91" font-family="Times,serif" font-size="14.00">omega_3</text>
<text text-anchor="middle" x="307.5" y="-150.91" font-family="Times,serif" font-size="14.00">~</text>
<text text-anchor="middle" x="307.5" y="-135.91" font-family="Times,serif" font-size="14.00">Censored</text>
</g>
<!-- omega_3&#45;&gt;hgf_loglike -->
<g id="edge3" class="edge">
<title>omega_3&#45;&gt;hgf_loglike</title>
<path fill="none" stroke="black" d="M326.91,-119.08C332.06,-109.92 337.72,-99.86 343.2,-90.11"/>
<polygon fill="black" stroke="black" points="346.32,-91.71 348.17,-81.27 340.22,-88.28 346.32,-91.71"/>
</g>
<!-- mu_1 -->
<g id="node4" class="node">
<title>mu_1</title>
<ellipse fill="none" stroke="black" cx="434.5" cy="-154.61" rx="49.49" ry="37.45"/>
<text text-anchor="middle" x="434.5" y="-165.91" font-family="Times,serif" font-size="14.00">mu_1</text>
<text text-anchor="middle" x="434.5" y="-150.91" font-family="Times,serif" font-size="14.00">~</text>
<text text-anchor="middle" x="434.5" y="-135.91" font-family="Times,serif" font-size="14.00">Normal</text>
</g>
<!-- mu_1&#45;&gt;hgf_loglike -->
<g id="edge4" class="edge">
<title>mu_1&#45;&gt;hgf_loglike</title>
<path fill="none" stroke="black" d="M415.3,-119.99C409.94,-110.62 404.02,-100.24 398.27,-90.19"/>
<polygon fill="black" stroke="black" points="401.29,-88.42 393.3,-81.48 395.22,-91.89 401.29,-88.42"/>
</g>
<!-- omega_2 -->
<g id="node5" class="node">
<title>omega_2</title>
<ellipse fill="none" stroke="black" cx="561.5" cy="-154.61" rx="59.29" ry="37.45"/>
<text text-anchor="middle" x="561.5" y="-165.91" font-family="Times,serif" font-size="14.00">omega_2</text>
<text text-anchor="middle" x="561.5" y="-150.91" font-family="Times,serif" font-size="14.00">~</text>
<text text-anchor="middle" x="561.5" y="-135.91" font-family="Times,serif" font-size="14.00">Censored</text>
</g>
<!-- omega_2&#45;&gt;hgf_loglike -->
<g id="edge6" class="edge">
<title>omega_2&#45;&gt;hgf_loglike</title>
<path fill="none" stroke="black" d="M518.63,-128.46C492.02,-112.85 457.48,-92.59 428.44,-75.55"/>
<polygon fill="black" stroke="black" points="430.02,-72.42 419.62,-70.38 426.48,-78.46 430.02,-72.42"/>
</g>
<!-- mu_2 -->
<g id="node7" class="node">
<title>mu_2</title>
<ellipse fill="none" stroke="black" cx="688.5" cy="-154.61" rx="49.49" ry="37.45"/>
<text text-anchor="middle" x="688.5" y="-165.91" font-family="Times,serif" font-size="14.00">mu_2</text>
<text text-anchor="middle" x="688.5" y="-150.91" font-family="Times,serif" font-size="14.00">~</text>
<text text-anchor="middle" x="688.5" y="-135.91" font-family="Times,serif" font-size="14.00">Normal</text>
</g>
<!-- mu_2&#45;&gt;hgf_loglike -->
<g id="edge5" class="edge">
<title>mu_2&#45;&gt;hgf_loglike</title>
<path fill="none" stroke="black" d="M652.2,-129.06C644.87,-124.72 637.09,-120.51 629.5,-117.13 572.31,-91.67 504.25,-72.2 452.25,-59.41"/>
<polygon fill="black" stroke="black" points="452.95,-55.97 442.41,-57.01 451.3,-62.78 452.95,-55.97"/>
</g>
</g>
</svg>