<?xml version="1.0" encoding="UTF-8" standalone="no"?>
<!DOCTYPE svg PUBLIC "-//W3C//DTD SVG 1.1//EN"
 "http://www.w3.org/Graphics/SVG/1.1/DTD/svg11.dtd">
<!-- Generated by graphviz version 2.43.0 (0)
 -->
<!-- Title: %3 Pages: 1 -->
<svg width="746pt" height="200pt"
 viewBox="0.00 0.00 745.97 200.08" xmlns="http://www.w3.org/2000/svg" xmlns:xlink="http://www.w3.org/1999/xlink">
<g id="graph0" class="graph" transform="scale(1 1) rotate(0) translate(4 196.08)">
<title>%3</title>
<polygon fill="white" stroke="transparent" points="-4,4 -4,-196.08 741.97,-196.08 741.97,4 -4,4"/>
<!-- omega_3 -->
<g id="node1" class="node">
<title>omega_3</title>
<ellipse fill="none" stroke="black" cx="59.4" cy="-154.61" rx="59.29" ry="37.45"/>
<text text-anchor="middle" x="59.4" y="-165.91" font-family="Times,serif" font-size="14.00">omega_3</text>
<text text-anchor="middle" x="59.4" y="-150.91" font-family="Times,serif" font-size="14.00">~</text>
<text text-anchor="middle" x="59.4" y="-135.91" font-family="Times,serif" font-size="14.00">Censored</text>
</g>
<!-- hgf_loglike -->
<g id="node7" class="node">
<title>hgf_loglike</title>
<polygon fill="lightgrey" stroke="black" points="453.29,-23.74 453.29,-57.39 411.17,-81.19 351.62,-81.19 309.51,-57.39 309.51,-23.74 351.62,0.06 411.17,0.06 453.29,-23.74"/>
<text text-anchor="middle" x="381.4" y="-51.86" font-family="Times,serif" font-size="14.00">hgf_loglike</text>
<text text-anchor="middle" x="381.4" y="-36.86" font-family="Times,serif" font-size="14.00">~</text>
<text text-anchor="middle" x="381.4" y="-21.86" font-family="Times,serif" font-size="14.00">Potential</text>
</g>
<!-- omega_3&#45;&gt;hgf_loglike -->
<g id="edge3" class="edge">
<title>omega_3&#45;&gt;hgf_loglike</title>
<path fill="none" stroke="black" d="M102.95,-128.94C111.26,-124.7 119.99,-120.57 128.4,-117.13 184.88,-94.03 251.04,-74.52 301.53,-61.11"/>
<polygon fill="black" stroke="black" points="302.63,-64.44 311.41,-58.51 300.85,-57.67 302.63,-64.44"/>
</g>
<!-- omega_2 -->
<g id="node2" class="node">
<title>omega_2</title>
<ellipse fill="none" stroke="black" cx="196.4" cy="-154.61" rx="59.29" ry="37.45"/>
<text text-anchor="middle" x="196.4" y="-165.91" font-family="Times,serif" font-size="14.00">omega_2</text>
<text text-anchor="middle" x="196.4" y="-150.91" font-family="Times,serif" font-size="14.00">~</text>
<text text-anchor="middle" x="196.4" y="-135.91" font-family="Times,serif" font-size="14.00">Censored</text>
</g>
<!-- omega_2&#45;&gt;hgf_loglike -->
<g id="edge4" class="edge">
<title>omega_2&#45;&gt;hgf_loglike</title>
<path fill="none" stroke="black" d="M238.84,-127.9C264.16,-112.57 296.63,-92.9 324.19,-76.21"/>
<polygon fill="black" stroke="black" points="326.21,-79.08 332.95,-70.91 322.58,-73.09 326.21,-79.08"/>
</g>
<!-- mu_3 -->
<g id="node3" class="node">
<title>mu_3</title>
<ellipse fill="none" stroke="black" cx="323.4" cy="-154.61" rx="49.49" ry="37.45"/>
<text text-anchor="middle" x="323.4" y="-165.91" font-family="Times,serif" font-size="14.00">mu_3</text>
<text text-anchor="middle" x="323.4" y="-150.91" font-family="Times,serif" font-size="14.00">~</text>
<text text-anchor="middle" x="323.4" y="-135.91" font-family="Times,serif" font-size="14.00">Normal</text>
</g>
<!-- mu_3&#45;&gt;hgf_loglike -->
<g id="edge6" class="edge">
<title>mu_3&#45;&gt;hgf_loglike</title>
<path fill="none" stroke="black" d="M341.11,-119.38C345.81,-110.31 350.97,-100.34 355.99,-90.64"/>
<polygon fill="black" stroke="black" points="359.25,-91.96 360.74,-81.48 353.03,-88.75 359.25,-91.96"/>
</g>
<!-- mu_1 -->
<g id="node4" class="node">
<title>mu_1</title>
<ellipse fill="none" stroke="black" cx="440.4" cy="-154.61" rx="49.49" ry="37.45"/>
<text text-anchor="middle" x="440.4" y="-165.91" font-family="Times,serif" font-size="14.00">mu_1</text>
<text text-anchor="middle" x="440.4" y="-150.91" font-family="Times,serif" font-size="14.00">~</text>
<text text-anchor="middle" x="440.4" y="-135.91" font-family="Times,serif" font-size="14.00">Normal</text>
</g>
<!-- mu_1&#45;&gt;hgf_loglike -->
<g id="edge1" class="edge">
<title>mu_1&#45;&gt;hgf_loglike</title>
<path fill="none" stroke="black" d="M422.37,-119.38C417.55,-110.22 412.24,-100.13 407.08,-90.34"/>
<polygon fill="black" stroke="black" points="410.17,-88.69 402.41,-81.48 403.98,-91.95 410.17,-88.69"/>
</g>
<!-- mu_2 -->
<g id="node5" class="node">
<title>mu_2</title>
<ellipse fill="none" stroke="black" cx="557.4" cy="-154.61" rx="49.49" ry="37.45"/>
<text text-anchor="middle" x="557.4" y="-165.91" font-family="Times,serif" font-size="14.00">mu_2</text>
<text text-anchor="middle" x="557.4" y="-150.91" font-family="Times,serif" font-size="14.00">~</text>
<text text-anchor="middle" x="557.4" y="-135.91" font-family="Times,serif" font-size="14.00">Normal</text>
</g>
<!-- mu_2&#45;&gt;hgf_loglike -->
<g id="edge2" class="edge">
<title>mu_2&#45;&gt;hgf_loglike</title>
<path fill="none" stroke="black" d="M520.07,-129.84C495.94,-114.48 464.1,-94.22 437.02,-76.97"/>
<polygon fill="black" stroke="black" points="438.73,-73.91 428.41,-71.49 434.97,-79.82 438.73,-73.91"/>
</g>
<!-- omega_1 -->
<g id="node6" class="node">
<title>omega_1</title>
<ellipse fill="none" stroke="black" cx="681.4" cy="-154.61" rx="56.64" ry="37.45"/>
<text text-anchor="middle" x="681.4" y="-165.91" font-family="Times,serif" font-size="14.00">omega_1</text>
<text text-anchor="middle" x="681.4" y="-150.91" font-family="Times,serif" font-size="14.00">~</text>
<text text-anchor="middle" x="681.4" y="-135.91" font-family="Times,serif" font-size="14.00">Normal</text>
</g>
<!-- omega_1&#45;&gt;hgf_loglike -->
<g id="edge5" class="edge">
<title>omega_1&#45;&gt;hgf_loglike</title>
<path fill="none" stroke="black" d="M639.76,-129.02C631.8,-124.77 623.45,-120.61 615.4,-117.13 564.56,-95.12 505.13,-76 458.89,-62.51"/>
<polygon fill="black" stroke="black" points="459.81,-59.13 449.23,-59.71 457.86,-65.85 459.81,-59.13"/>
</g>
</g>
</svg>