<?xml version="1.0" encoding="UTF-8" standalone="no"?>
<!DOCTYPE svg PUBLIC "-//W3C//DTD SVG 1.1//EN"
 "http://www.w3.org/Graphics/SVG/1.1/DTD/svg11.dtd">
<!-- Generated by graphviz version 2.43.0 (0)
 -->
<!-- Title: %3 Pages: 1 -->
<svg width="746pt" height="200pt"
 viewBox="0.00 0.00 745.89 200.08" xmlns="http://www.w3.org/2000/svg" xmlns:xlink="http://www.w3.org/1999/xlink">
<g id="graph0" class="graph" transform="scale(1 1) rotate(0) translate(4 196.08)">
<title>%3</title>
<polygon fill="white" stroke="transparent" points="-4,4 -4,-196.08 741.89,-196.08 741.89,4 -4,4"/>
<!-- omega_3 -->
<g id="node1" class="node">
<title>omega_3</title>
<ellipse fill="none" stroke="black" cx="59.4" cy="-154.61" rx="59.29" ry="37.45"/>
<text text-anchor="middle" x="59.4" y="-165.91" font-family="Times,serif" font-size="14.00">omega_3</text>
<text text-anchor="middle" x="59.4" y="-150.91" font-family="Times,serif" font-size="14.00">~</text>
<text text-anchor="middle" x="59.4" y="-135.91" font-family="Times,serif" font-size="14.00">Censored</text>
</g>
<!-- hgf_loglike -->
<g id="node4" class="node">
<title>hgf_loglike</title>
<polygon fill="lightgrey" stroke="black" points="452.29,-23.74 452.29,-57.39 410.17,-81.19 350.62,-81.19 308.51,-57.39 308.51,-23.74 350.62,0.06 410.17,0.06 452.29,-23.74"/>
<text text-anchor="middle" x="380.4" y="-51.86" font-family="Times,serif" font-size="14.00">hgf_loglike</text>
<text text-anchor="middle" x="380.4" y="-36.86" font-family="Times,serif" font-size="14.00">~</text>
<text text-anchor="middle" x="380.4" y="-21.86" font-family="Times,serif" font-size="14.00">Potential</text>
</g>
<!-- omega_3&#45;&gt;hgf_loglike -->
<g id="edge1" class="edge">
<title>omega_3&#45;&gt;hgf_loglike</title>
<path fill="none" stroke="black" d="M102.96,-128.94C111.27,-124.71 120,-120.57 128.4,-117.13 184.56,-94.12 250.32,-74.64 300.58,-61.22"/>
<polygon fill="black" stroke="black" points="301.65,-64.56 310.42,-58.62 299.86,-57.79 301.65,-64.56"/>
</g>
<!-- mu_2 -->
<g id="node2" class="node">
<title>mu_2</title>
<ellipse fill="none" stroke="black" cx="186.4" cy="-154.61" rx="49.49" ry="37.45"/>
<text text-anchor="middle" x="186.4" y="-165.91" font-family="Times,serif" font-size="14.00">mu_2</text>
<text text-anchor="middle" x="186.4" y="-150.91" font-family="Times,serif" font-size="14.00">~</text>
<text text-anchor="middle" x="186.4" y="-135.91" font-family="Times,serif" font-size="14.00">Normal</text>
</g>
<!-- mu_2&#45;&gt;hgf_loglike -->
<g id="edge3" class="edge">
<title>mu_2&#45;&gt;hgf_loglike</title>
<path fill="none" stroke="black" d="M224.02,-130.01C231.09,-125.67 238.44,-121.22 245.4,-117.13 269.82,-102.75 297.05,-87.39 320.62,-74.3"/>
<polygon fill="black" stroke="black" points="322.41,-77.3 329.46,-69.39 319.01,-71.18 322.41,-77.3"/>
</g>
<!-- omega_2 -->
<g id="node3" class="node">
<title>omega_2</title>
<ellipse fill="none" stroke="black" cx="313.4" cy="-154.61" rx="59.29" ry="37.45"/>
<text text-anchor="middle" x="313.4" y="-165.91" font-family="Times,serif" font-size="14.00">omega_2</text>
<text text-anchor="middle" x="313.4" y="-150.91" font-family="Times,serif" font-size="14.00">~</text>
<text text-anchor="middle" x="313.4" y="-135.91" font-family="Times,serif" font-size="14.00">Censored</text>
</g>
<!-- omega_2&#45;&gt;hgf_loglike -->
<g id="edge6" class="edge">
<title>omega_2&#45;&gt;hgf_loglike</title>
<path fill="none" stroke="black" d="M333.86,-119.38C339.34,-110.22 345.38,-100.13 351.23,-90.34"/>
<polygon fill="black" stroke="black" points="354.4,-91.85 356.53,-81.48 348.39,-88.26 354.4,-91.85"/>
</g>
<!-- omega_1 -->
<g id="node5" class="node">
<title>omega_1</title>
<ellipse fill="none" stroke="black" cx="447.4" cy="-154.61" rx="56.64" ry="37.45"/>
<text text-anchor="middle" x="447.4" y="-165.91" font-family="Times,serif" font-size="14.00">omega_1</text>
<text text-anchor="middle" x="447.4" y="-150.91" font-family="Times,serif" font-size="14.00">~</text>
<text text-anchor="middle" x="447.4" y="-135.91" font-family="Times,serif" font-size="14.00">Normal</text>
</g>
<!-- omega_1&#45;&gt;hgf_loglike -->
<g id="edge2" class="edge">
<title>omega_1&#45;&gt;hgf_loglike</title>
<path fill="none" stroke="black" d="M426.93,-119.38C421.45,-110.22 415.42,-100.13 409.57,-90.34"/>
<polygon fill="black" stroke="black" points="412.4,-88.26 404.26,-81.48 406.39,-91.85 412.4,-88.26"/>
</g>
<!-- mu_3 -->
<g id="node6" class="node">
<title>mu_3</title>
<ellipse fill="none" stroke="black" cx="571.4" cy="-154.61" rx="49.49" ry="37.45"/>
<text text-anchor="middle" x="571.4" y="-165.91" font-family="Times,serif" font-size="14.00">mu_3</text>
<text text-anchor="middle" x="571.4" y="-150.91" font-family="Times,serif" font-size="14.00">~</text>
<text text-anchor="middle" x="571.4" y="-135.91" font-family="Times,serif" font-size="14.00">Normal</text>
</g>
<!-- mu_3&#45;&gt;hgf_loglike -->
<g id="edge4" class="edge">
<title>mu_3&#45;&gt;hgf_loglike</title>
<path fill="none" stroke="black" d="M534.11,-129.81C527.25,-125.54 520.13,-121.16 513.4,-117.13 489.55,-102.87 462.99,-87.64 439.91,-74.63"/>
<polygon fill="black" stroke="black" points="441.34,-71.42 430.91,-69.56 437.91,-77.52 441.34,-71.42"/>
</g>
<!-- mu_1 -->
<g id="node7" class="node">
<title>mu_1</title>
<ellipse fill="none" stroke="black" cx="688.4" cy="-154.61" rx="49.49" ry="37.45"/>
<text text-anchor="middle" x="688.4" y="-165.91" font-family="Times,serif" font-size="14.00">mu_1</text>
<text text-anchor="middle" x="688.4" y="-150.91" font-family="Times,serif" font-size="14.00">~</text>
<text text-anchor="middle" x="688.4" y="-135.91" font-family="Times,serif" font-size="14.00">Normal</text>
</g>
<!-- mu_1&#45;&gt;hgf_loglike -->
<g id="edge5" class="edge">
<title>mu_1&#45;&gt;hgf_loglike</title>
<path fill="none" stroke="black" d="M652.07,-129.12C644.75,-124.78 636.97,-120.55 629.4,-117.13 575.26,-92.68 511.05,-73.41 461.39,-60.45"/>
<polygon fill="black" stroke="black" points="462.22,-57.05 451.66,-57.95 460.47,-63.83 462.22,-57.05"/>
</g>
</g>
</svg>