<?xml version="1.0" encoding="UTF-8" standalone="no"?>
<!DOCTYPE svg PUBLIC "-//W3C//DTD SVG 1.1//EN"
 "http://www.w3.org/Graphics/SVG/1.1/DTD/svg11.dtd">
<!-- Generated by graphviz version 2.43.0 (0)
 -->
<!-- Title: %3 Pages: 1 -->
<svg width="154pt" height="219pt"
 viewBox="0.00 0.00 154.00 219.08" xmlns="http://www.w3.org/2000/svg" xmlns:xlink="http://www.w3.org/1999/xlink">
<g id="graph0" class="graph" transform="scale(1 1) rotate(0) translate(4 215.08)">
<title>%3</title>
<polygon fill="white" stroke="transparent" points="-4,4 -4,-215.08 150,-215.08 150,4 -4,4"/>
<g id="clust1" class="cluster">
<title>cluster6</title>
<path fill="none" stroke="black" d="M20,-89.13C20,-89.13 126,-89.13 126,-89.13 132,-89.13 138,-95.13 138,-101.13 138,-101.13 138,-191.08 138,-191.08 138,-197.08 132,-203.08 126,-203.08 126,-203.08 20,-203.08 20,-203.08 14,-203.08 8,-197.08 8,-191.08 8,-191.08 8,-101.13 8,-101.13 8,-95.13 14,-89.13 20,-89.13"/>
<text text-anchor="middle" x="125" y="-96.93" font-family="Times,serif" font-size="14.00">6</text>
</g>
<!-- omega_1 -->
<g id="node1" class="node">
<title>omega_1</title>
<ellipse fill="none" stroke="black" cx="73" cy="-157.61" rx="56.64" ry="37.45"/>
<text text-anchor="middle" x="73" y="-168.91" font-family="Times,serif" font-size="14.00">omega_1</text>
<text text-anchor="middle" x="73" y="-153.91" font-family="Times,serif" font-size="14.00">~</text>
<text text-anchor="middle" x="73" y="-138.91" font-family="Times,serif" font-size="14.00">Normal</text>
</g>
<!-- hgf_loglike -->
<g id="node2" class="node">
<title>hgf_loglike</title>
<polygon fill="lightgrey" stroke="black" points="144.89,-23.74 144.89,-57.39 102.78,-81.19 43.22,-81.19 1.11,-57.39 1.11,-23.74 43.22,0.06 102.78,0.06 144.89,-23.74"/>
<text text-anchor="middle" x="73" y="-51.86" font-family="Times,serif" font-size="14.00">hgf_loglike</text>
<text text-anchor="middle" x="73" y="-36.86" font-family="Times,serif" font-size="14.00">~</text>
<text text-anchor="middle" x="73" y="-21.86" font-family="Times,serif" font-size="14.00">Potential</text>
</g>
<!-- omega_1&#45;&gt;hgf_loglike -->
<g id="edge1" class="edge">
<title>omega_1&#45;&gt;hgf_loglike</title>
<path fill="none" stroke="black" d="M73,-119.89C73,-110.91 73,-101.14 73,-91.65"/>
<polygon fill="black" stroke="black" points="76.5,-91.51 73,-81.51 69.5,-91.51 76.5,-91.51"/>
</g>
</g>
</svg>