<?xml version="1.0" encoding="UTF-8" standalone="no"?>
<!DOCTYPE svg PUBLIC "-//W3C//DTD SVG 1.1//EN"
 "http://www.w3.org/Graphics/SVG/1.1/DTD/svg11.dtd">
<!-- Generated by graphviz version 2.43.0 (0)
 -->
<!-- Title: hgf&#45;nodes Pages: 1 -->
<svg width="180pt" height="260pt"
 viewBox="0.00 0.00 180.38 260.00" xmlns="http://www.w3.org/2000/svg" xmlns:xlink="http://www.w3.org/1999/xlink">
<g id="graph0" class="graph" transform="scale(1 1) rotate(0) translate(4 256)">
<title>hgf&#45;nodes</title>
<polygon fill="white" stroke="transparent" points="-4,4 -4,-256 176.38,-256 176.38,4 -4,4"/>
<!-- x_0 -->
<g id="node1" class="node">
<title>x_0</title>
<polygon fill="lightgrey" stroke="black" points="77.58,-10.54 77.58,-25.46 54.8,-36 22.59,-36 -0.19,-25.46 -0.19,-10.54 22.59,0 54.8,0 77.58,-10.54"/>
<text text-anchor="middle" x="38.69" y="-14.3" font-family="Times,serif" font-size="14.00">BI &#45; 0</text>
</g>
<!-- x_1 -->
<g id="node2" class="node">
<title>x_1</title>
<polygon fill="lightgrey" stroke="black" points="172.58,-10.54 172.58,-25.46 149.8,-36 117.59,-36 94.81,-25.46 94.81,-10.54 117.59,0 149.8,0 172.58,-10.54"/>
<text text-anchor="middle" x="133.69" y="-14.3" font-family="Times,serif" font-size="14.00">BI &#45; 1</text>
</g>
<!-- x_2 -->
<g id="node3" class="node">
<title>x_2</title>
<ellipse fill="none" stroke="black" cx="58.69" cy="-90" rx="18" ry="18"/>
<text text-anchor="middle" x="58.69" y="-86.3" font-family="Times,serif" font-size="14.00">2</text>
</g>
<!-- x_2&#45;&gt;x_0 -->
<g id="edge1" class="edge">
<title>x_2&#45;&gt;x_0</title>
<path fill="none" stroke="black" d="M53.95,-72.41C51.73,-64.62 49.02,-55.14 46.5,-46.33"/>
<polygon fill="black" stroke="black" points="49.79,-45.1 43.68,-36.45 43.06,-47.02 49.79,-45.1"/>
</g>
<!-- x_3 -->
<g id="node4" class="node">
<title>x_3</title>
<ellipse fill="none" stroke="black" cx="122.69" cy="-90" rx="18" ry="18"/>
<text text-anchor="middle" x="122.69" y="-86.3" font-family="Times,serif" font-size="14.00">3</text>
</g>
<!-- x_3&#45;&gt;x_1 -->
<g id="edge2" class="edge">
<title>x_3&#45;&gt;x_1</title>
<path fill="none" stroke="black" d="M125.35,-72.05C126.57,-64.35 128.03,-55.03 129.39,-46.36"/>
<polygon fill="black" stroke="black" points="132.88,-46.7 130.98,-36.28 125.97,-45.61 132.88,-46.7"/>
</g>
<!-- x_4 -->
<g id="node5" class="node">
<title>x_4</title>
<ellipse fill="none" stroke="black" cx="85.69" cy="-162" rx="18" ry="18"/>
<text text-anchor="middle" x="85.69" y="-158.3" font-family="Times,serif" font-size="14.00">4</text>
</g>
<!-- x_4&#45;&gt;x_2 -->
<g id="edge3" class="edge">
<title>x_4&#45;&gt;x_2</title>
<path fill="none" stroke="black" d="M79.43,-144.76C76.19,-136.37 72.17,-125.93 68.53,-116.5"/>
<polygon fill="black" stroke="black" points="71.78,-115.22 64.92,-107.15 65.25,-117.74 71.78,-115.22"/>
</g>
<!-- x_4&#45;&gt;x_3 -->
<g id="edge4" class="edge">
<title>x_4&#45;&gt;x_3</title>
<path fill="none" stroke="black" d="M93.72,-145.81C98.47,-136.82 104.6,-125.23 109.99,-115.03"/>
<polygon fill="black" stroke="black" points="113.1,-116.64 114.68,-106.16 106.91,-113.36 113.1,-116.64"/>
</g>
<!-- x_5 -->
<g id="node6" class="node">
<title>x_5</title>
<ellipse fill="none" stroke="black" cx="85.69" cy="-234" rx="18" ry="18"/>
<text text-anchor="middle" x="85.69" y="-230.3" font-family="Times,serif" font-size="14.00">5</text>
</g>
<!-- x_5&#45;&gt;x_4 -->
<g id="edge5" class="edge">
<title>x_5&#45;&gt;x_4</title>
<path fill="none" stroke="gray" stroke-dasharray="5,2" d="M85.69,-215.7C85.69,-207.39 85.69,-197.28 85.69,-188.14"/>
<ellipse fill="gray" stroke="gray" cx="85.69" cy="-184.1" rx="4" ry="4"/>
</g>
</g>
</svg>