<?xml version="1.0" encoding="UTF-8" standalone="no"?>
<!DOCTYPE svg PUBLIC "-//W3C//DTD SVG 1.1//EN"
 "http://www.w3.org/Graphics/SVG/1.1/DTD/svg11.dtd">
<!-- Generated by graphviz version 2.43.0 (0)
 -->
<!-- Title: hgf&#45;nodes Pages: 1 -->
<svg width="180pt" height="188pt"
 viewBox="0.00 0.00 180.38 188.00" xmlns="http://www.w3.org/2000/svg" xmlns:xlink="http://www.w3.org/1999/xlink">
<g id="graph0" class="graph" transform="scale(1 1) rotate(0) translate(4 184)">
<title>hgf&#45;nodes</title>
<polygon fill="white" stroke="transparent" points="-4,4 -4,-184 176.38,-184 176.38,4 -4,4"/>
<!-- x_0 -->
<g id="node1" class="node">
<title>x_0</title>
<polygon fill="lightgrey" stroke="black" points="77.58,-10.54 77.58,-25.46 54.8,-36 22.59,-36 -0.19,-25.46 -0.19,-10.54 22.59,0 54.8,0 77.58,-10.54"/>
<text text-anchor="middle" x="38.69" y="-14.3" font-family="Times,serif" font-size="14.00">CI &#45; 0</text>
</g>
<!-- x_1 -->
<g id="node2" class="node">
<title>x_1</title>
<polygon fill="lightgrey" stroke="black" points="172.58,-10.54 172.58,-25.46 149.8,-36 117.59,-36 94.81,-25.46 94.81,-10.54 117.59,0 149.8,0 172.58,-10.54"/>
<text text-anchor="middle" x="133.69" y="-14.3" font-family="Times,serif" font-size="14.00">CI &#45; 1</text>
</g>
<!-- x_2 -->
<g id="node3" class="node">
<title>x_2</title>
<ellipse fill="none" stroke="black" cx="48.69" cy="-90" rx="18" ry="18"/>
<text text-anchor="middle" x="48.69" y="-86.3" font-family="Times,serif" font-size="14.00">2</text>
</g>
<!-- x_2&#45;&gt;x_0 -->
<g id="edge1" class="edge">
<title>x_2&#45;&gt;x_0</title>
<path fill="none" stroke="black" d="M46.27,-72.05C45.17,-64.35 43.84,-55.03 42.6,-46.36"/>
<polygon fill="black" stroke="black" points="46.04,-45.68 41.16,-36.28 39.11,-46.67 46.04,-45.68"/>
</g>
<!-- x_3 -->
<g id="node4" class="node">
<title>x_3</title>
<ellipse fill="none" stroke="black" cx="122.69" cy="-90" rx="18" ry="18"/>
<text text-anchor="middle" x="122.69" y="-86.3" font-family="Times,serif" font-size="14.00">3</text>
</g>
<!-- x_3&#45;&gt;x_1 -->
<g id="edge2" class="edge">
<title>x_3&#45;&gt;x_1</title>
<path fill="none" stroke="black" d="M125.35,-72.05C126.57,-64.35 128.03,-55.03 129.39,-46.36"/>
<polygon fill="black" stroke="black" points="132.88,-46.7 130.98,-36.28 125.97,-45.61 132.88,-46.7"/>
</g>
<!-- x_4 -->
<g id="node5" class="node">
<title>x_4</title>
<ellipse fill="none" stroke="black" cx="85.69" cy="-162" rx="18" ry="18"/>
<text text-anchor="middle" x="85.69" y="-158.3" font-family="Times,serif" font-size="14.00">4</text>
</g>
<!-- x_4&#45;&gt;x_2 -->
<g id="edge3" class="edge">
<title>x_4&#45;&gt;x_2</title>
<path fill="none" stroke="gray" stroke-dasharray="5,2" d="M77.66,-145.81C72.67,-136.36 66.16,-124.04 60.57,-113.48"/>
<ellipse fill="gray" stroke="gray" cx="58.57" cy="-109.7" rx="4" ry="4"/>
</g>
<!-- x_4&#45;&gt;x_3 -->
<g id="edge4" class="edge">
<title>x_4&#45;&gt;x_3</title>
<path fill="none" stroke="gray" stroke-dasharray="5,2" d="M93.72,-145.81C98.71,-136.36 105.23,-124.04 110.81,-113.48"/>
<ellipse fill="gray" stroke="gray" cx="112.81" cy="-109.7" rx="4" ry="4"/>
</g>
</g>
</svg>