<?xml version="1.0" encoding="UTF-8" standalone="no"?>
<!DOCTYPE svg PUBLIC "-//W3C//DTD SVG 1.1//EN"
 "http://www.w3.org/Graphics/SVG/1.1/DTD/svg11.dtd">
<!-- Generated by graphviz version 2.43.0 (0)
 -->
<!-- Title: %3 Pages: 1 -->
<svg width="746pt" height="200pt"
 viewBox="0.00 0.00 746.07 200.08" xmlns="http://www.w3.org/2000/svg" xmlns:xlink="http://www.w3.org/1999/xlink">
<g id="graph0" class="graph" transform="scale(1 1) rotate(0) translate(4 196.08)">
<title>%3</title>
<polygon fill="white" stroke="transparent" points="-4,4 -4,-196.08 742.07,-196.08 742.07,4 -4,4"/>
<!-- mu_1 -->
<g id="node1" class="node">
<title>mu_1</title>
<ellipse fill="none" stroke="black" cx="49.5" cy="-154.61" rx="49.49" ry="37.45"/>
<text text-anchor="middle" x="49.5" y="-165.91" font-family="Times,serif" font-size="14.00">mu_1</text>
<text text-anchor="middle" x="49.5" y="-150.91" font-family="Times,serif" font-size="14.00">~</text>
<text text-anchor="middle" x="49.5" y="-135.91" font-family="Times,serif" font-size="14.00">Normal</text>
</g>
<!-- hgf_loglike -->
<g id="node4" class="node">
<title>hgf_loglike</title>
<polygon fill="lightgrey" stroke="black" points="433.39,-23.74 433.39,-57.39 391.27,-81.19 331.72,-81.19 289.61,-57.39 289.61,-23.74 331.72,0.06 391.27,0.06 433.39,-23.74"/>
<text text-anchor="middle" x="361.5" y="-51.86" font-family="Times,serif" font-size="14.00">hgf_loglike</text>
<text text-anchor="middle" x="361.5" y="-36.86" font-family="Times,serif" font-size="14.00">~</text>
<text text-anchor="middle" x="361.5" y="-21.86" font-family="Times,serif" font-size="14.00">Potential</text>
</g>
<!-- mu_1&#45;&gt;hgf_loglike -->
<g id="edge1" class="edge">
<title>mu_1&#45;&gt;hgf_loglike</title>
<path fill="none" stroke="black" d="M85.81,-129.1C93.14,-124.75 100.92,-120.53 108.5,-117.13 163.78,-92.31 229.43,-72.98 279.99,-60.08"/>
<polygon fill="black" stroke="black" points="281.06,-63.42 289.9,-57.58 279.35,-56.63 281.06,-63.42"/>
</g>
<!-- omega_2 -->
<g id="node2" class="node">
<title>omega_2</title>
<ellipse fill="none" stroke="black" cx="176.5" cy="-154.61" rx="59.29" ry="37.45"/>
<text text-anchor="middle" x="176.5" y="-165.91" font-family="Times,serif" font-size="14.00">omega_2</text>
<text text-anchor="middle" x="176.5" y="-150.91" font-family="Times,serif" font-size="14.00">~</text>
<text text-anchor="middle" x="176.5" y="-135.91" font-family="Times,serif" font-size="14.00">Censored</text>
</g>
<!-- omega_2&#45;&gt;hgf_loglike -->
<g id="edge4" class="edge">
<title>omega_2&#45;&gt;hgf_loglike</title>
<path fill="none" stroke="black" d="M218.94,-127.9C244.26,-112.57 276.73,-92.9 304.29,-76.21"/>
<polygon fill="black" stroke="black" points="306.31,-79.08 313.05,-70.91 302.68,-73.09 306.31,-79.08"/>
</g>
<!-- mu_3 -->
<g id="node3" class="node">
<title>mu_3</title>
<ellipse fill="none" stroke="black" cx="303.5" cy="-154.61" rx="49.49" ry="37.45"/>
<text text-anchor="middle" x="303.5" y="-165.91" font-family="Times,serif" font-size="14.00">mu_3</text>
<text text-anchor="middle" x="303.5" y="-150.91" font-family="Times,serif" font-size="14.00">~</text>
<text text-anchor="middle" x="303.5" y="-135.91" font-family="Times,serif" font-size="14.00">Normal</text>
</g>
<!-- mu_3&#45;&gt;hgf_loglike -->
<g id="edge6" class="edge">
<title>mu_3&#45;&gt;hgf_loglike</title>
<path fill="none" stroke="black" d="M321.21,-119.38C325.91,-110.31 331.07,-100.34 336.09,-90.64"/>
<polygon fill="black" stroke="black" points="339.35,-91.96 340.84,-81.48 333.13,-88.75 339.35,-91.96"/>
</g>
<!-- mu_2 -->
<g id="node5" class="node">
<title>mu_2</title>
<ellipse fill="none" stroke="black" cx="420.5" cy="-154.61" rx="49.49" ry="37.45"/>
<text text-anchor="middle" x="420.5" y="-165.91" font-family="Times,serif" font-size="14.00">mu_2</text>
<text text-anchor="middle" x="420.5" y="-150.91" font-family="Times,serif" font-size="14.00">~</text>
<text text-anchor="middle" x="420.5" y="-135.91" font-family="Times,serif" font-size="14.00">Normal</text>
</g>
<!-- mu_2&#45;&gt;hgf_loglike -->
<g id="edge2" class="edge">
<title>mu_2&#45;&gt;hgf_loglike</title>
<path fill="none" stroke="black" d="M402.47,-119.38C397.65,-110.22 392.34,-100.13 387.18,-90.34"/>
<polygon fill="black" stroke="black" points="390.27,-88.69 382.51,-81.48 384.08,-91.95 390.27,-88.69"/>
</g>
<!-- omega_3 -->
<g id="node6" class="node">
<title>omega_3</title>
<ellipse fill="none" stroke="black" cx="547.5" cy="-154.61" rx="59.29" ry="37.45"/>
<text text-anchor="middle" x="547.5" y="-165.91" font-family="Times,serif" font-size="14.00">omega_3</text>
<text text-anchor="middle" x="547.5" y="-150.91" font-family="Times,serif" font-size="14.00">~</text>
<text text-anchor="middle" x="547.5" y="-135.91" font-family="Times,serif" font-size="14.00">Censored</text>
</g>
<!-- omega_3&#45;&gt;hgf_loglike -->
<g id="edge3" class="edge">
<title>omega_3&#45;&gt;hgf_loglike</title>
<path fill="none" stroke="black" d="M505.29,-128.18C479.76,-112.8 446.86,-92.98 418.97,-76.18"/>
<polygon fill="black" stroke="black" points="420.48,-73.01 410.11,-70.85 416.87,-79 420.48,-73.01"/>
</g>
<!-- omega_1 -->
<g id="node7" class="node">
<title>omega_1</title>
<ellipse fill="none" stroke="black" cx="681.5" cy="-154.61" rx="56.64" ry="37.45"/>
<text text-anchor="middle" x="681.5" y="-165.91" font-family="Times,serif" font-size="14.00">omega_1</text>
<text text-anchor="middle" x="681.5" y="-150.91" font-family="Times,serif" font-size="14.00">~</text>
<text text-anchor="middle" x="681.5" y="-135.91" font-family="Times,serif" font-size="14.00">Normal</text>
</g>
<!-- omega_1&#45;&gt;hgf_loglike -->
<g id="edge5" class="edge">
<title>omega_1&#45;&gt;hgf_loglike</title>
<path fill="none" stroke="black" d="M639.92,-128.86C631.96,-124.64 623.59,-120.52 615.5,-117.13 559.11,-93.49 492.82,-74.03 442.1,-60.78"/>
<polygon fill="black" stroke="black" points="442.73,-57.33 432.18,-58.21 440.98,-64.11 442.73,-57.33"/>
</g>
</g>
</svg>