<?xml version="1.0" encoding="UTF-8" standalone="no"?>
<!DOCTYPE svg PUBLIC "-//W3C//DTD SVG 1.1//EN"
 "http://www.w3.org/Graphics/SVG/1.1/DTD/svg11.dtd">
<!-- Generated by graphviz version 2.43.0 (0)
 -->
<!-- Title: %3 Pages: 1 -->
<svg width="746pt" height="200pt"
 viewBox="0.00 0.00 745.89 200.08" xmlns="http://www.w3.org/2000/svg" xmlns:xlink="http://www.w3.org/1999/xlink">
<g id="graph0" class="graph" transform="scale(1 1) rotate(0) translate(4 196.08)">
<title>%3</title>
<polygon fill="white" stroke="transparent" points="-4,4 -4,-196.08 741.89,-196.08 741.89,4 -4,4"/>
<!-- hgf_loglike -->
<g id="node1" class="node">
<title>hgf_loglike</title>
<polygon fill="lightgrey" stroke="black" points="444.29,-23.74 444.29,-57.39 402.17,-81.19 342.62,-81.19 300.51,-57.39 300.51,-23.74 342.62,0.06 402.17,0.06 444.29,-23.74"/>
<text text-anchor="middle" x="372.4" y="-51.86" font-family="Times,serif" font-size="14.00">hgf_loglike</text>
<text text-anchor="middle" x="372.4" y="-36.86" font-family="Times,serif" font-size="14.00">~</text>
<text text-anchor="middle" x="372.4" y="-21.86" font-family="Times,serif" font-size="14.00">Potential</text>
</g>
<!-- omega_3 -->
<g id="node2" class="node">
<title>omega_3</title>
<ellipse fill="none" stroke="black" cx="59.4" cy="-154.61" rx="59.29" ry="37.45"/>
<text text-anchor="middle" x="59.4" y="-165.91" font-family="Times,serif" font-size="14.00">omega_3</text>
<text text-anchor="middle" x="59.4" y="-150.91" font-family="Times,serif" font-size="14.00">~</text>
<text text-anchor="middle" x="59.4" y="-135.91" font-family="Times,serif" font-size="14.00">Censored</text>
</g>
<!-- omega_3&#45;&gt;hgf_loglike -->
<g id="edge1" class="edge">
<title>omega_3&#45;&gt;hgf_loglike</title>
<path fill="none" stroke="black" d="M102.98,-129.01C111.29,-124.76 120.01,-120.61 128.4,-117.13 182.33,-94.75 245.34,-75.4 293.81,-61.88"/>
<polygon fill="black" stroke="black" points="294.91,-65.21 303.62,-59.18 293.05,-58.47 294.91,-65.21"/>
</g>
<!-- mu_1 -->
<g id="node3" class="node">
<title>mu_1</title>
<ellipse fill="none" stroke="black" cx="186.4" cy="-154.61" rx="49.49" ry="37.45"/>
<text text-anchor="middle" x="186.4" y="-165.91" font-family="Times,serif" font-size="14.00">mu_1</text>
<text text-anchor="middle" x="186.4" y="-150.91" font-family="Times,serif" font-size="14.00">~</text>
<text text-anchor="middle" x="186.4" y="-135.91" font-family="Times,serif" font-size="14.00">Normal</text>
</g>
<!-- mu_1&#45;&gt;hgf_loglike -->
<g id="edge3" class="edge">
<title>mu_1&#45;&gt;hgf_loglike</title>
<path fill="none" stroke="black" d="M223.74,-129.9C230.59,-125.62 237.69,-121.21 244.4,-117.13 267.06,-103.32 292.17,-88.41 314.1,-75.52"/>
<polygon fill="black" stroke="black" points="316.12,-78.39 322.97,-70.31 312.57,-72.35 316.12,-78.39"/>
</g>
<!-- omega_1 -->
<g id="node4" class="node">
<title>omega_1</title>
<ellipse fill="none" stroke="black" cx="310.4" cy="-154.61" rx="56.64" ry="37.45"/>
<text text-anchor="middle" x="310.4" y="-165.91" font-family="Times,serif" font-size="14.00">omega_1</text>
<text text-anchor="middle" x="310.4" y="-150.91" font-family="Times,serif" font-size="14.00">~</text>
<text text-anchor="middle" x="310.4" y="-135.91" font-family="Times,serif" font-size="14.00">Normal</text>
</g>
<!-- omega_1&#45;&gt;hgf_loglike -->
<g id="edge4" class="edge">
<title>omega_1&#45;&gt;hgf_loglike</title>
<path fill="none" stroke="black" d="M329.5,-119.08C334.57,-109.92 340.14,-99.86 345.53,-90.11"/>
<polygon fill="black" stroke="black" points="348.64,-91.72 350.42,-81.27 342.52,-88.33 348.64,-91.72"/>
</g>
<!-- mu_2 -->
<g id="node5" class="node">
<title>mu_2</title>
<ellipse fill="none" stroke="black" cx="434.4" cy="-154.61" rx="49.49" ry="37.45"/>
<text text-anchor="middle" x="434.4" y="-165.91" font-family="Times,serif" font-size="14.00">mu_2</text>
<text text-anchor="middle" x="434.4" y="-150.91" font-family="Times,serif" font-size="14.00">~</text>
<text text-anchor="middle" x="434.4" y="-135.91" font-family="Times,serif" font-size="14.00">Normal</text>
</g>
<!-- mu_2&#45;&gt;hgf_loglike -->
<g id="edge5" class="edge">
<title>mu_2&#45;&gt;hgf_loglike</title>
<path fill="none" stroke="black" d="M415.63,-119.69C410.5,-110.41 404.83,-100.18 399.34,-90.26"/>
<polygon fill="black" stroke="black" points="402.28,-88.33 394.37,-81.28 396.15,-91.72 402.28,-88.33"/>
</g>
<!-- omega_2 -->
<g id="node6" class="node">
<title>omega_2</title>
<ellipse fill="none" stroke="black" cx="561.4" cy="-154.61" rx="59.29" ry="37.45"/>
<text text-anchor="middle" x="561.4" y="-165.91" font-family="Times,serif" font-size="14.00">omega_2</text>
<text text-anchor="middle" x="561.4" y="-150.91" font-family="Times,serif" font-size="14.00">~</text>
<text text-anchor="middle" x="561.4" y="-135.91" font-family="Times,serif" font-size="14.00">Censored</text>
</g>
<!-- omega_2&#45;&gt;hgf_loglike -->
<g id="edge2" class="edge">
<title>omega_2&#45;&gt;hgf_loglike</title>
<path fill="none" stroke="black" d="M518.51,-128.18C492.35,-112.68 458.59,-92.66 430.11,-75.78"/>
<polygon fill="black" stroke="black" points="431.84,-72.73 421.45,-70.64 428.27,-78.75 431.84,-72.73"/>
</g>
<!-- mu_3 -->
<g id="node7" class="node">
<title>mu_3</title>
<ellipse fill="none" stroke="black" cx="688.4" cy="-154.61" rx="49.49" ry="37.45"/>
<text text-anchor="middle" x="688.4" y="-165.91" font-family="Times,serif" font-size="14.00">mu_3</text>
<text text-anchor="middle" x="688.4" y="-150.91" font-family="Times,serif" font-size="14.00">~</text>
<text text-anchor="middle" x="688.4" y="-135.91" font-family="Times,serif" font-size="14.00">Normal</text>
</g>
<!-- mu_3&#45;&gt;hgf_loglike -->
<g id="edge6" class="edge">
<title>mu_3&#45;&gt;hgf_loglike</title>
<path fill="none" stroke="black" d="M652.09,-129.07C644.77,-124.73 636.98,-120.52 629.4,-117.13 572.84,-91.88 505.58,-72.46 454.06,-59.62"/>
<polygon fill="black" stroke="black" points="454.85,-56.21 444.3,-57.23 453.18,-63.01 454.85,-56.21"/>
</g>
</g>
</svg>