<?xml version="1.0" encoding="UTF-8" standalone="no"?>
<!DOCTYPE svg PUBLIC "-//W3C//DTD SVG 1.1//EN"
 "http://www.w3.org/Graphics/SVG/1.1/DTD/svg11.dtd">
<!-- Generated by graphviz version 2.43.0 (0)
 -->
<!-- Title: hgf&#45;nodes Pages: 1 -->
<svg width="275pt" height="116pt"
 viewBox="0.00 0.00 275.38 116.00" xmlns="http://www.w3.org/2000/svg" xmlns:xlink="http://www.w3.org/1999/xlink">
<g id="graph0" class="graph" transform="scale(1 1) rotate(0) translate(4 112)">
<title>hgf&#45;nodes</title>
<polygon fill="white" stroke="transparent" points="-4,4 -4,-112 271.38,-112 271.38,4 -4,4"/>
<!-- x_0 -->
<g id="node1" class="node">
<title>x_0</title>
<polygon fill="lightgrey" stroke="black" points="77.58,-10.54 77.58,-25.46 54.8,-36 22.59,-36 -0.19,-25.46 -0.19,-10.54 22.59,0 54.8,0 77.58,-10.54"/>
<text text-anchor="middle" x="38.69" y="-14.3" font-family="Times,serif" font-size="14.00">CI &#45; 0</text>
</g>
<!-- x_1 -->
<g id="node2" class="node">
<title>x_1</title>
<polygon fill="lightgrey" stroke="black" points="172.58,-10.54 172.58,-25.46 149.8,-36 117.59,-36 94.81,-25.46 94.81,-10.54 117.59,0 149.8,0 172.58,-10.54"/>
<text text-anchor="middle" x="133.69" y="-14.3" font-family="Times,serif" font-size="14.00">CI &#45; 1</text>
</g>
<!-- x_2 -->
<g id="node3" class="node">
<title>x_2</title>
<polygon fill="lightgrey" stroke="black" points="267.58,-10.54 267.58,-25.46 244.8,-36 212.59,-36 189.81,-25.46 189.81,-10.54 212.59,0 244.8,0 267.58,-10.54"/>
<text text-anchor="middle" x="228.69" y="-14.3" font-family="Times,serif" font-size="14.00">CI &#45; 2</text>
</g>
<!-- x_3 -->
<g id="node4" class="node">
<title>x_3</title>
<ellipse fill="none" stroke="black" cx="38.69" cy="-90" rx="18" ry="18"/>
<text text-anchor="middle" x="38.69" y="-86.3" font-family="Times,serif" font-size="14.00">3</text>
</g>
<!-- x_3&#45;&gt;x_0 -->
<g id="edge1" class="edge">
<title>x_3&#45;&gt;x_0</title>
<path fill="none" stroke="black" d="M38.69,-71.7C38.69,-63.98 38.69,-54.71 38.69,-46.11"/>
<polygon fill="black" stroke="black" points="42.19,-46.1 38.69,-36.1 35.19,-46.1 42.19,-46.1"/>
</g>
<!-- x_4 -->
<g id="node5" class="node">
<title>x_4</title>
<ellipse fill="none" stroke="black" cx="160.69" cy="-90" rx="18" ry="18"/>
<text text-anchor="middle" x="160.69" y="-86.3" font-family="Times,serif" font-size="14.00">4</text>
</g>
<!-- x_4&#45;&gt;x_1 -->
<g id="edge2" class="edge">
<title>x_4&#45;&gt;x_1</title>
<path fill="none" stroke="black" d="M154.43,-72.76C151.32,-64.7 147.48,-54.74 143.95,-45.6"/>
<polygon fill="black" stroke="black" points="147.16,-44.19 140.3,-36.12 140.63,-46.71 147.16,-44.19"/>
</g>
<!-- x_5 -->
<g id="node6" class="node">
<title>x_5</title>
<ellipse fill="none" stroke="black" cx="228.69" cy="-90" rx="18" ry="18"/>
<text text-anchor="middle" x="228.69" y="-86.3" font-family="Times,serif" font-size="14.00">5</text>
</g>
<!-- x_5&#45;&gt;x_2 -->
<g id="edge3" class="edge">
<title>x_5&#45;&gt;x_2</title>
<path fill="none" stroke="black" d="M228.69,-71.7C228.69,-63.98 228.69,-54.71 228.69,-46.11"/>
<polygon fill="black" stroke="black" points="232.19,-46.1 228.69,-36.1 225.19,-46.1 232.19,-46.1"/>
</g>
<!-- x_6 -->
<g id="node7" class="node">
<title>x_6</title>
<ellipse fill="none" stroke="black" cx="106.69" cy="-90" rx="18" ry="18"/>
<text text-anchor="middle" x="106.69" y="-86.3" font-family="Times,serif" font-size="14.00">6</text>
</g>
<!-- x_6&#45;&gt;x_0 -->
<g id="edge4" class="edge">
<title>x_6&#45;&gt;x_0</title>
<path fill="none" stroke="gray" stroke-dasharray="5,2" d="M94.54,-76.49C85.17,-66.84 71.96,-53.25 60.74,-41.7"/>
<ellipse fill="gray" stroke="gray" cx="57.88" cy="-38.75" rx="4" ry="4"/>
</g>
<!-- x_6&#45;&gt;x_1 -->
<g id="edge5" class="edge">
<title>x_6&#45;&gt;x_1</title>
<path fill="none" stroke="gray" stroke-dasharray="5,2" d="M112.95,-72.76C116.26,-64.18 120.4,-53.46 124.1,-43.86"/>
<ellipse fill="gray" stroke="gray" cx="125.65" cy="-39.86" rx="4" ry="4"/>
</g>
<!-- x_6&#45;&gt;x_2 -->
<g id="edge6" class="edge">
<title>x_6&#45;&gt;x_2</title>
<path fill="none" stroke="gray" stroke-dasharray="5,2" d="M121.46,-79.5C125.41,-77.02 129.69,-74.37 133.69,-72 154.48,-59.67 178.24,-46.41 196.79,-36.25"/>
<ellipse fill="gray" stroke="gray" cx="200.37" cy="-34.29" rx="4" ry="4"/>
</g>
</g>
</svg>