<?xml version="1.0" encoding="UTF-8" standalone="no"?>
<!DOCTYPE svg PUBLIC "-//W3C//DTD SVG 1.1//EN"
 "http://www.w3.org/Graphics/SVG/1.1/DTD/svg11.dtd">
<!-- Generated by graphviz version 2.43.0 (0)
 -->
<!-- Title: %3 Pages: 1 -->
<svg width="746pt" height="200pt"
 viewBox="0.00 0.00 745.99 200.08" xmlns="http://www.w3.org/2000/svg" xmlns:xlink="http://www.w3.org/1999/xlink">
<g id="graph0" class="graph" transform="scale(1 1) rotate(0) translate(4 196.08)">
<title>%3</title>
<polygon fill="white" stroke="transparent" points="-4,4 -4,-196.08 741.99,-196.08 741.99,4 -4,4"/>
<!-- mu_3 -->
<g id="node1" class="node">
<title>mu_3</title>
<ellipse fill="none" stroke="black" cx="49.5" cy="-154.61" rx="49.49" ry="37.45"/>
<text text-anchor="middle" x="49.5" y="-165.91" font-family="Times,serif" font-size="14.00">mu_3</text>
<text text-anchor="middle" x="49.5" y="-150.91" font-family="Times,serif" font-size="14.00">~</text>
<text text-anchor="middle" x="49.5" y="-135.91" font-family="Times,serif" font-size="14.00">Normal</text>
</g>
<!-- hgf_loglike -->
<g id="node5" class="node">
<title>hgf_loglike</title>
<polygon fill="lightgrey" stroke="black" points="432.39,-23.74 432.39,-57.39 390.27,-81.19 330.72,-81.19 288.61,-57.39 288.61,-23.74 330.72,0.06 390.27,0.06 432.39,-23.74"/>
<text text-anchor="middle" x="360.5" y="-51.86" font-family="Times,serif" font-size="14.00">hgf_loglike</text>
<text text-anchor="middle" x="360.5" y="-36.86" font-family="Times,serif" font-size="14.00">~</text>
<text text-anchor="middle" x="360.5" y="-21.86" font-family="Times,serif" font-size="14.00">Potential</text>
</g>
<!-- mu_3&#45;&gt;hgf_loglike -->
<g id="edge2" class="edge">
<title>mu_3&#45;&gt;hgf_loglike</title>
<path fill="none" stroke="black" d="M85.82,-129.1C93.14,-124.76 100.92,-120.54 108.5,-117.13 163.47,-92.41 228.72,-73.1 279.05,-60.19"/>
<polygon fill="black" stroke="black" points="280.08,-63.54 288.91,-57.69 278.36,-56.75 280.08,-63.54"/>
</g>
<!-- mu_1 -->
<g id="node2" class="node">
<title>mu_1</title>
<ellipse fill="none" stroke="black" cx="166.5" cy="-154.61" rx="49.49" ry="37.45"/>
<text text-anchor="middle" x="166.5" y="-165.91" font-family="Times,serif" font-size="14.00">mu_1</text>
<text text-anchor="middle" x="166.5" y="-150.91" font-family="Times,serif" font-size="14.00">~</text>
<text text-anchor="middle" x="166.5" y="-135.91" font-family="Times,serif" font-size="14.00">Normal</text>
</g>
<!-- mu_1&#45;&gt;hgf_loglike -->
<g id="edge3" class="edge">
<title>mu_1&#45;&gt;hgf_loglike</title>
<path fill="none" stroke="black" d="M204.12,-130.01C211.19,-125.67 218.54,-121.22 225.5,-117.13 249.92,-102.75 277.15,-87.39 300.72,-74.3"/>
<polygon fill="black" stroke="black" points="302.51,-77.3 309.56,-69.39 299.11,-71.18 302.51,-77.3"/>
</g>
<!-- omega_3 -->
<g id="node3" class="node">
<title>omega_3</title>
<ellipse fill="none" stroke="black" cx="293.5" cy="-154.61" rx="59.29" ry="37.45"/>
<text text-anchor="middle" x="293.5" y="-165.91" font-family="Times,serif" font-size="14.00">omega_3</text>
<text text-anchor="middle" x="293.5" y="-150.91" font-family="Times,serif" font-size="14.00">~</text>
<text text-anchor="middle" x="293.5" y="-135.91" font-family="Times,serif" font-size="14.00">Censored</text>
</g>
<!-- omega_3&#45;&gt;hgf_loglike -->
<g id="edge6" class="edge">
<title>omega_3&#45;&gt;hgf_loglike</title>
<path fill="none" stroke="black" d="M313.96,-119.38C319.44,-110.22 325.48,-100.13 331.33,-90.34"/>
<polygon fill="black" stroke="black" points="334.5,-91.85 336.63,-81.48 328.49,-88.26 334.5,-91.85"/>
</g>
<!-- omega_1 -->
<g id="node4" class="node">
<title>omega_1</title>
<ellipse fill="none" stroke="black" cx="427.5" cy="-154.61" rx="56.64" ry="37.45"/>
<text text-anchor="middle" x="427.5" y="-165.91" font-family="Times,serif" font-size="14.00">omega_1</text>
<text text-anchor="middle" x="427.5" y="-150.91" font-family="Times,serif" font-size="14.00">~</text>
<text text-anchor="middle" x="427.5" y="-135.91" font-family="Times,serif" font-size="14.00">Normal</text>
</g>
<!-- omega_1&#45;&gt;hgf_loglike -->
<g id="edge1" class="edge">
<title>omega_1&#45;&gt;hgf_loglike</title>
<path fill="none" stroke="black" d="M407.03,-119.38C401.55,-110.22 395.52,-100.13 389.67,-90.34"/>
<polygon fill="black" stroke="black" points="392.5,-88.26 384.36,-81.48 386.49,-91.85 392.5,-88.26"/>
</g>
<!-- omega_2 -->
<g id="node6" class="node">
<title>omega_2</title>
<ellipse fill="none" stroke="black" cx="561.5" cy="-154.61" rx="59.29" ry="37.45"/>
<text text-anchor="middle" x="561.5" y="-165.91" font-family="Times,serif" font-size="14.00">omega_2</text>
<text text-anchor="middle" x="561.5" y="-150.91" font-family="Times,serif" font-size="14.00">~</text>
<text text-anchor="middle" x="561.5" y="-135.91" font-family="Times,serif" font-size="14.00">Censored</text>
</g>
<!-- omega_2&#45;&gt;hgf_loglike -->
<g id="edge4" class="edge">
<title>omega_2&#45;&gt;hgf_loglike</title>
<path fill="none" stroke="black" d="M517.39,-129.02C488.78,-113.07 451.16,-92.1 419.92,-74.69"/>
<polygon fill="black" stroke="black" points="421.32,-71.46 410.88,-69.65 417.91,-77.57 421.32,-71.46"/>
</g>
<!-- mu_2 -->
<g id="node7" class="node">
<title>mu_2</title>
<ellipse fill="none" stroke="black" cx="688.5" cy="-154.61" rx="49.49" ry="37.45"/>
<text text-anchor="middle" x="688.5" y="-165.91" font-family="Times,serif" font-size="14.00">mu_2</text>
<text text-anchor="middle" x="688.5" y="-150.91" font-family="Times,serif" font-size="14.00">~</text>
<text text-anchor="middle" x="688.5" y="-135.91" font-family="Times,serif" font-size="14.00">Normal</text>
</g>
<!-- mu_2&#45;&gt;hgf_loglike -->
<g id="edge5" class="edge">
<title>mu_2&#45;&gt;hgf_loglike</title>
<path fill="none" stroke="black" d="M652.22,-129C644.9,-124.66 637.11,-120.47 629.5,-117.13 569.08,-90.6 496.91,-70.92 442.55,-58.31"/>
<polygon fill="black" stroke="black" points="443.14,-54.86 432.61,-56.04 441.58,-61.68 443.14,-54.86"/>
</g>
</g>
</svg>