<?xml version="1.0" encoding="UTF-8" standalone="no"?>
<!DOCTYPE svg PUBLIC "-//W3C//DTD SVG 1.1//EN"
 "http://www.w3.org/Graphics/SVG/1.1/DTD/svg11.dtd">
<!-- Generated by graphviz version 2.43.0 (0)
 -->
<!-- Title: %3 Pages: 1 -->
<svg width="746pt" height="200pt"
 viewBox="0.00 0.00 745.89 200.08" xmlns="http://www.w3.org/2000/svg" xmlns:xlink="http://www.w3.org/1999/xlink">
<g id="graph0" class="graph" transform="scale(1 1) rotate(0) translate(4 196.08)">
<title>%3</title>
<polygon fill="white" stroke="transparent" points="-4,4 -4,-196.08 741.89,-196.08 741.89,4 -4,4"/>
<!-- omega_3 -->
<g id="node1" class="node">
<title>omega_3</title>
<ellipse fill="none" stroke="black" cx="59.4" cy="-154.61" rx="59.29" ry="37.45"/>
<text text-anchor="middle" x="59.4" y="-165.91" font-family="Times,serif" font-size="14.00">omega_3</text>
<text text-anchor="middle" x="59.4" y="-150.91" font-family="Times,serif" font-size="14.00">~</text>
<text text-anchor="middle" x="59.4" y="-135.91" font-family="Times,serif" font-size="14.00">Censored</text>
</g>
<!-- hgf_loglike -->
<g id="node3" class="node">
<title>hgf_loglike</title>
<polygon fill="lightgrey" stroke="black" points="448.29,-23.74 448.29,-57.39 406.17,-81.19 346.62,-81.19 304.51,-57.39 304.51,-23.74 346.62,0.06 406.17,0.06 448.29,-23.74"/>
<text text-anchor="middle" x="376.4" y="-51.86" font-family="Times,serif" font-size="14.00">hgf_loglike</text>
<text text-anchor="middle" x="376.4" y="-36.86" font-family="Times,serif" font-size="14.00">~</text>
<text text-anchor="middle" x="376.4" y="-21.86" font-family="Times,serif" font-size="14.00">Potential</text>
</g>
<!-- omega_3&#45;&gt;hgf_loglike -->
<g id="edge1" class="edge">
<title>omega_3&#45;&gt;hgf_loglike</title>
<path fill="none" stroke="black" d="M102.97,-128.97C111.28,-124.74 120,-120.59 128.4,-117.13 183.5,-94.41 247.95,-74.98 297.34,-61.51"/>
<polygon fill="black" stroke="black" points="298.27,-64.88 307.01,-58.9 296.44,-58.13 298.27,-64.88"/>
</g>
<!-- mu_3 -->
<g id="node2" class="node">
<title>mu_3</title>
<ellipse fill="none" stroke="black" cx="186.4" cy="-154.61" rx="49.49" ry="37.45"/>
<text text-anchor="middle" x="186.4" y="-165.91" font-family="Times,serif" font-size="14.00">mu_3</text>
<text text-anchor="middle" x="186.4" y="-150.91" font-family="Times,serif" font-size="14.00">~</text>
<text text-anchor="middle" x="186.4" y="-135.91" font-family="Times,serif" font-size="14.00">Normal</text>
</g>
<!-- mu_3&#45;&gt;hgf_loglike -->
<g id="edge4" class="edge">
<title>mu_3&#45;&gt;hgf_loglike</title>
<path fill="none" stroke="black" d="M224.06,-130.08C231.13,-125.74 238.47,-121.27 245.4,-117.13 268.88,-103.1 294.94,-87.98 317.6,-74.97"/>
<polygon fill="black" stroke="black" points="319.49,-77.92 326.42,-69.91 316.01,-71.85 319.49,-77.92"/>
</g>
<!-- omega_2 -->
<g id="node4" class="node">
<title>omega_2</title>
<ellipse fill="none" stroke="black" cx="313.4" cy="-154.61" rx="59.29" ry="37.45"/>
<text text-anchor="middle" x="313.4" y="-165.91" font-family="Times,serif" font-size="14.00">omega_2</text>
<text text-anchor="middle" x="313.4" y="-150.91" font-family="Times,serif" font-size="14.00">~</text>
<text text-anchor="middle" x="313.4" y="-135.91" font-family="Times,serif" font-size="14.00">Censored</text>
</g>
<!-- omega_2&#45;&gt;hgf_loglike -->
<g id="edge2" class="edge">
<title>omega_2&#45;&gt;hgf_loglike</title>
<path fill="none" stroke="black" d="M332.81,-119.08C337.96,-109.92 343.62,-99.86 349.1,-90.11"/>
<polygon fill="black" stroke="black" points="352.22,-91.71 354.07,-81.27 346.12,-88.28 352.22,-91.71"/>
</g>
<!-- mu_1 -->
<g id="node5" class="node">
<title>mu_1</title>
<ellipse fill="none" stroke="black" cx="440.4" cy="-154.61" rx="49.49" ry="37.45"/>
<text text-anchor="middle" x="440.4" y="-165.91" font-family="Times,serif" font-size="14.00">mu_1</text>
<text text-anchor="middle" x="440.4" y="-150.91" font-family="Times,serif" font-size="14.00">~</text>
<text text-anchor="middle" x="440.4" y="-135.91" font-family="Times,serif" font-size="14.00">Normal</text>
</g>
<!-- mu_1&#45;&gt;hgf_loglike -->
<g id="edge3" class="edge">
<title>mu_1&#45;&gt;hgf_loglike</title>
<path fill="none" stroke="black" d="M421.19,-119.99C415.84,-110.62 409.92,-100.24 404.17,-90.19"/>
<polygon fill="black" stroke="black" points="407.19,-88.42 399.19,-81.48 401.12,-91.89 407.19,-88.42"/>
</g>
<!-- omega_1 -->
<g id="node6" class="node">
<title>omega_1</title>
<ellipse fill="none" stroke="black" cx="564.4" cy="-154.61" rx="56.64" ry="37.45"/>
<text text-anchor="middle" x="564.4" y="-165.91" font-family="Times,serif" font-size="14.00">omega_1</text>
<text text-anchor="middle" x="564.4" y="-150.91" font-family="Times,serif" font-size="14.00">~</text>
<text text-anchor="middle" x="564.4" y="-135.91" font-family="Times,serif" font-size="14.00">Normal</text>
</g>
<!-- omega_1&#45;&gt;hgf_loglike -->
<g id="edge5" class="edge">
<title>omega_1&#45;&gt;hgf_loglike</title>
<path fill="none" stroke="black" d="M522.67,-128.74C496.6,-113.2 462.65,-92.97 434.02,-75.91"/>
<polygon fill="black" stroke="black" points="435.71,-72.84 425.32,-70.72 432.12,-78.85 435.71,-72.84"/>
</g>
<!-- mu_2 -->
<g id="node7" class="node">
<title>mu_2</title>
<ellipse fill="none" stroke="black" cx="688.4" cy="-154.61" rx="49.49" ry="37.45"/>
<text text-anchor="middle" x="688.4" y="-165.91" font-family="Times,serif" font-size="14.00">mu_2</text>
<text text-anchor="middle" x="688.4" y="-150.91" font-family="Times,serif" font-size="14.00">~</text>
<text text-anchor="middle" x="688.4" y="-135.91" font-family="Times,serif" font-size="14.00">Normal</text>
</g>
<!-- mu_2&#45;&gt;hgf_loglike -->
<g id="edge6" class="edge">
<title>mu_2&#45;&gt;hgf_loglike</title>
<path fill="none" stroke="black" d="M652.11,-128.69C645.09,-124.48 637.66,-120.42 630.4,-117.13 575,-92.04 509.09,-72.71 458.29,-59.89"/>
<polygon fill="black" stroke="black" points="458.89,-56.43 448.34,-57.41 457.2,-63.22 458.89,-56.43"/>
</g>
</g>
</svg>