<?xml version="1.0" encoding="UTF-8" standalone="no"?>
<!DOCTYPE svg PUBLIC "-//W3C//DTD SVG 1.1//EN"
 "http://www.w3.org/Graphics/SVG/1.1/DTD/svg11.dtd">
<!-- Generated by graphviz version 2.43.0 (0)
 -->
<!-- Title: %3 Pages: 1 -->
<svg width="746pt" height="200pt"
 viewBox="0.00 0.00 745.99 200.08" xmlns="http://www.w3.org/2000/svg" xmlns:xlink="http://www.w3.org/1999/xlink">
<g id="graph0" class="graph" transform="scale(1 1) rotate(0) translate(4 196.08)">
<title>%3</title>
<polygon fill="white" stroke="transparent" points="-4,4 -4,-196.08 741.99,-196.08 741.99,4 -4,4"/>
<!-- mu_3 -->
<g id="node1" class="node">
<title>mu_3</title>
<ellipse fill="none" stroke="black" cx="49.5" cy="-154.61" rx="49.49" ry="37.45"/>
<text text-anchor="middle" x="49.5" y="-165.91" font-family="Times,serif" font-size="14.00">mu_3</text>
<text text-anchor="middle" x="49.5" y="-150.91" font-family="Times,serif" font-size="14.00">~</text>
<text text-anchor="middle" x="49.5" y="-135.91" font-family="Times,serif" font-size="14.00">Normal</text>
</g>
<!-- hgf_loglike -->
<g id="node7" class="node">
<title>hgf_loglike</title>
<polygon fill="lightgrey" stroke="black" points="429.39,-23.74 429.39,-57.39 387.27,-81.19 327.72,-81.19 285.61,-57.39 285.61,-23.74 327.72,0.06 387.27,0.06 429.39,-23.74"/>
<text text-anchor="middle" x="357.5" y="-51.86" font-family="Times,serif" font-size="14.00">hgf_loglike</text>
<text text-anchor="middle" x="357.5" y="-36.86" font-family="Times,serif" font-size="14.00">~</text>
<text text-anchor="middle" x="357.5" y="-21.86" font-family="Times,serif" font-size="14.00">Potential</text>
</g>
<!-- mu_3&#45;&gt;hgf_loglike -->
<g id="edge1" class="edge">
<title>mu_3&#45;&gt;hgf_loglike</title>
<path fill="none" stroke="black" d="M85.83,-129.12C93.15,-124.78 100.92,-120.55 108.5,-117.13 162.63,-92.68 226.84,-73.41 276.5,-60.45"/>
<polygon fill="black" stroke="black" points="277.42,-63.83 286.23,-57.95 275.67,-57.05 277.42,-63.83"/>
</g>
<!-- mu_2 -->
<g id="node2" class="node">
<title>mu_2</title>
<ellipse fill="none" stroke="black" cx="166.5" cy="-154.61" rx="49.49" ry="37.45"/>
<text text-anchor="middle" x="166.5" y="-165.91" font-family="Times,serif" font-size="14.00">mu_2</text>
<text text-anchor="middle" x="166.5" y="-150.91" font-family="Times,serif" font-size="14.00">~</text>
<text text-anchor="middle" x="166.5" y="-135.91" font-family="Times,serif" font-size="14.00">Normal</text>
</g>
<!-- mu_2&#45;&gt;hgf_loglike -->
<g id="edge2" class="edge">
<title>mu_2&#45;&gt;hgf_loglike</title>
<path fill="none" stroke="black" d="M203.79,-129.81C210.64,-125.54 217.76,-121.16 224.5,-117.13 248.34,-102.87 274.91,-87.64 297.99,-74.63"/>
<polygon fill="black" stroke="black" points="299.98,-77.52 306.98,-69.56 296.55,-71.42 299.98,-77.52"/>
</g>
<!-- omega_1 -->
<g id="node3" class="node">
<title>omega_1</title>
<ellipse fill="none" stroke="black" cx="290.5" cy="-154.61" rx="56.64" ry="37.45"/>
<text text-anchor="middle" x="290.5" y="-165.91" font-family="Times,serif" font-size="14.00">omega_1</text>
<text text-anchor="middle" x="290.5" y="-150.91" font-family="Times,serif" font-size="14.00">~</text>
<text text-anchor="middle" x="290.5" y="-135.91" font-family="Times,serif" font-size="14.00">Normal</text>
</g>
<!-- omega_1&#45;&gt;hgf_loglike -->
<g id="edge4" class="edge">
<title>omega_1&#45;&gt;hgf_loglike</title>
<path fill="none" stroke="black" d="M310.96,-119.38C316.44,-110.22 322.48,-100.13 328.33,-90.34"/>
<polygon fill="black" stroke="black" points="331.5,-91.85 333.63,-81.48 325.49,-88.26 331.5,-91.85"/>
</g>
<!-- omega_2 -->
<g id="node4" class="node">
<title>omega_2</title>
<ellipse fill="none" stroke="black" cx="424.5" cy="-154.61" rx="59.29" ry="37.45"/>
<text text-anchor="middle" x="424.5" y="-165.91" font-family="Times,serif" font-size="14.00">omega_2</text>
<text text-anchor="middle" x="424.5" y="-150.91" font-family="Times,serif" font-size="14.00">~</text>
<text text-anchor="middle" x="424.5" y="-135.91" font-family="Times,serif" font-size="14.00">Censored</text>
</g>
<!-- omega_2&#45;&gt;hgf_loglike -->
<g id="edge5" class="edge">
<title>omega_2&#45;&gt;hgf_loglike</title>
<path fill="none" stroke="black" d="M404.03,-119.38C398.55,-110.22 392.52,-100.13 386.67,-90.34"/>
<polygon fill="black" stroke="black" points="389.5,-88.26 381.36,-81.48 383.49,-91.85 389.5,-88.26"/>
</g>
<!-- omega_3 -->
<g id="node5" class="node">
<title>omega_3</title>
<ellipse fill="none" stroke="black" cx="561.5" cy="-154.61" rx="59.29" ry="37.45"/>
<text text-anchor="middle" x="561.5" y="-165.91" font-family="Times,serif" font-size="14.00">omega_3</text>
<text text-anchor="middle" x="561.5" y="-150.91" font-family="Times,serif" font-size="14.00">~</text>
<text text-anchor="middle" x="561.5" y="-135.91" font-family="Times,serif" font-size="14.00">Censored</text>
</g>
<!-- omega_3&#45;&gt;hgf_loglike -->
<g id="edge3" class="edge">
<title>omega_3&#45;&gt;hgf_loglike</title>
<path fill="none" stroke="black" d="M517.48,-129.43C488.15,-113.32 449.23,-91.95 417.12,-74.31"/>
<polygon fill="black" stroke="black" points="418.71,-71.19 408.26,-69.45 415.34,-77.33 418.71,-71.19"/>
</g>
<!-- mu_1 -->
<g id="node6" class="node">
<title>mu_1</title>
<ellipse fill="none" stroke="black" cx="688.5" cy="-154.61" rx="49.49" ry="37.45"/>
<text text-anchor="middle" x="688.5" y="-165.91" font-family="Times,serif" font-size="14.00">mu_1</text>
<text text-anchor="middle" x="688.5" y="-150.91" font-family="Times,serif" font-size="14.00">~</text>
<text text-anchor="middle" x="688.5" y="-135.91" font-family="Times,serif" font-size="14.00">Normal</text>
</g>
<!-- mu_1&#45;&gt;hgf_loglike -->
<g id="edge6" class="edge">
<title>mu_1&#45;&gt;hgf_loglike</title>
<path fill="none" stroke="black" d="M652.23,-128.98C644.91,-124.64 637.11,-120.46 629.5,-117.13 568.1,-90.27 494.69,-70.55 439.61,-58"/>
<polygon fill="black" stroke="black" points="440.08,-54.51 429.55,-55.74 438.54,-61.34 440.08,-54.51"/>
</g>
</g>
</svg>