<?xml version="1.0" encoding="UTF-8" standalone="no"?>
<!DOCTYPE svg PUBLIC "-//W3C//DTD SVG 1.1//EN"
 "http://www.w3.org/Graphics/SVG/1.1/DTD/svg11.dtd">
<!-- Generated by graphviz version 2.43.0 (0)
 -->
<!-- Title: %3 Pages: 1 -->
<svg width="492pt" height="200pt"
 viewBox="0.00 0.00 491.99 200.08" xmlns="http://www.w3.org/2000/svg" xmlns:xlink="http://www.w3.org/1999/xlink">
<g id="graph0" class="graph" transform="scale(1 1) rotate(0) translate(4 196.08)">
<title>%3</title>
<polygon fill="white" stroke="transparent" points="-4,4 -4,-196.08 487.99,-196.08 487.99,4 -4,4"/>
<!-- mu_2 -->
<g id="node1" class="node">
<title>mu_2</title>
<ellipse fill="none" stroke="black" cx="49.5" cy="-154.61" rx="49.49" ry="37.45"/>
<text text-anchor="middle" x="49.5" y="-165.91" font-family="Times,serif" font-size="14.00">mu_2</text>
<text text-anchor="middle" x="49.5" y="-150.91" font-family="Times,serif" font-size="14.00">~</text>
<text text-anchor="middle" x="49.5" y="-135.91" font-family="Times,serif" font-size="14.00">Normal</text>
</g>
<!-- hgf_loglike -->
<g id="node2" class="node">
<title>hgf_loglike</title>
<polygon fill="lightgrey" stroke="black" points="312.39,-23.74 312.39,-57.39 270.27,-81.19 210.72,-81.19 168.61,-57.39 168.61,-23.74 210.72,0.06 270.27,0.06 312.39,-23.74"/>
<text text-anchor="middle" x="240.5" y="-51.86" font-family="Times,serif" font-size="14.00">hgf_loglike</text>
<text text-anchor="middle" x="240.5" y="-36.86" font-family="Times,serif" font-size="14.00">~</text>
<text text-anchor="middle" x="240.5" y="-21.86" font-family="Times,serif" font-size="14.00">Potential</text>
</g>
<!-- mu_2&#45;&gt;hgf_loglike -->
<g id="edge2" class="edge">
<title>mu_2&#45;&gt;hgf_loglike</title>
<path fill="none" stroke="black" d="M86.79,-129.81C93.64,-125.54 100.76,-121.16 107.5,-117.13 131.34,-102.87 157.91,-87.64 180.99,-74.63"/>
<polygon fill="black" stroke="black" points="182.98,-77.52 189.98,-69.56 179.55,-71.42 182.98,-77.52"/>
</g>
<!-- omega_1 -->
<g id="node3" class="node">
<title>omega_1</title>
<ellipse fill="none" stroke="black" cx="173.5" cy="-154.61" rx="56.64" ry="37.45"/>
<text text-anchor="middle" x="173.5" y="-165.91" font-family="Times,serif" font-size="14.00">omega_1</text>
<text text-anchor="middle" x="173.5" y="-150.91" font-family="Times,serif" font-size="14.00">~</text>
<text text-anchor="middle" x="173.5" y="-135.91" font-family="Times,serif" font-size="14.00">Normal</text>
</g>
<!-- omega_1&#45;&gt;hgf_loglike -->
<g id="edge3" class="edge">
<title>omega_1&#45;&gt;hgf_loglike</title>
<path fill="none" stroke="black" d="M193.96,-119.38C199.44,-110.22 205.48,-100.13 211.33,-90.34"/>
<polygon fill="black" stroke="black" points="214.5,-91.85 216.63,-81.48 208.49,-88.26 214.5,-91.85"/>
</g>
<!-- omega_2 -->
<g id="node4" class="node">
<title>omega_2</title>
<ellipse fill="none" stroke="black" cx="307.5" cy="-154.61" rx="59.29" ry="37.45"/>
<text text-anchor="middle" x="307.5" y="-165.91" font-family="Times,serif" font-size="14.00">omega_2</text>
<text text-anchor="middle" x="307.5" y="-150.91" font-family="Times,serif" font-size="14.00">~</text>
<text text-anchor="middle" x="307.5" y="-135.91" font-family="Times,serif" font-size="14.00">Censored</text>
</g>
<!-- omega_2&#45;&gt;hgf_loglike -->
<g id="edge4" class="edge">
<title>omega_2&#45;&gt;hgf_loglike</title>
<path fill="none" stroke="black" d="M287.03,-119.38C281.55,-110.22 275.52,-100.13 269.67,-90.34"/>
<polygon fill="black" stroke="black" points="272.5,-88.26 264.36,-81.48 266.49,-91.85 272.5,-88.26"/>
</g>
<!-- mu_1 -->
<g id="node5" class="node">
<title>mu_1</title>
<ellipse fill="none" stroke="black" cx="434.5" cy="-154.61" rx="49.49" ry="37.45"/>
<text text-anchor="middle" x="434.5" y="-165.91" font-family="Times,serif" font-size="14.00">mu_1</text>
<text text-anchor="middle" x="434.5" y="-150.91" font-family="Times,serif" font-size="14.00">~</text>
<text text-anchor="middle" x="434.5" y="-135.91" font-family="Times,serif" font-size="14.00">Normal</text>
</g>
<!-- mu_1&#45;&gt;hgf_loglike -->
<g id="edge1" class="edge">
<title>mu_1&#45;&gt;hgf_loglike</title>
<path fill="none" stroke="black" d="M396.88,-130.01C389.81,-125.67 382.45,-121.22 375.5,-117.13 351.07,-102.75 323.85,-87.39 300.28,-74.3"/>
<polygon fill="black" stroke="black" points="301.88,-71.18 291.44,-69.39 298.49,-77.3 301.88,-71.18"/>
</g>
</g>
</svg>