<?xml version="1.0" encoding="UTF-8" standalone="no"?>
<!DOCTYPE svg PUBLIC "-//W3C//DTD SVG 1.1//EN"
 "http://www.w3.org/Graphics/SVG/1.1/DTD/svg11.dtd">
<!-- Generated by graphviz version 2.43.0 (0)
 -->
<!-- Title: %3 Pages: 1 -->
<svg width="492pt" height="200pt"
 viewBox="0.00 0.00 491.89 200.08" xmlns="http://www.w3.org/2000/svg" xmlns:xlink="http://www.w3.org/1999/xlink">
<g id="graph0" class="graph" transform="scale(1 1) rotate(0) translate(4 196.08)">
<title>%3</title>
<polygon fill="white" stroke="transparent" points="-4,4 -4,-196.08 487.89,-196.08 487.89,4 -4,4"/>
<!-- hgf_loglike -->
<g id="node1" class="node">
<title>hgf_loglike</title>
<polygon fill="lightgrey" stroke="black" points="300.39,-23.74 300.39,-57.39 258.27,-81.19 198.72,-81.19 156.61,-57.39 156.61,-23.74 198.72,0.06 258.27,0.06 300.39,-23.74"/>
<text text-anchor="middle" x="228.5" y="-51.86" font-family="Times,serif" font-size="14.00">hgf_loglike</text>
<text text-anchor="middle" x="228.5" y="-36.86" font-family="Times,serif" font-size="14.00">~</text>
<text text-anchor="middle" x="228.5" y="-21.86" font-family="Times,serif" font-size="14.00">Potential</text>
</g>
<!-- mu_2 -->
<g id="node2" class="node">
<title>mu_2</title>
<ellipse fill="none" stroke="black" cx="49.5" cy="-154.61" rx="49.49" ry="37.45"/>
<text text-anchor="middle" x="49.5" y="-165.91" font-family="Times,serif" font-size="14.00">mu_2</text>
<text text-anchor="middle" x="49.5" y="-150.91" font-family="Times,serif" font-size="14.00">~</text>
<text text-anchor="middle" x="49.5" y="-135.91" font-family="Times,serif" font-size="14.00">Normal</text>
</g>
<!-- mu_2&#45;&gt;hgf_loglike -->
<g id="edge1" class="edge">
<title>mu_2&#45;&gt;hgf_loglike</title>
<path fill="none" stroke="black" d="M87.02,-130.12C111.63,-114.72 144.26,-94.29 171.98,-76.94"/>
<polygon fill="black" stroke="black" points="174.17,-79.7 180.79,-71.43 170.45,-73.77 174.17,-79.7"/>
</g>
<!-- mu_1 -->
<g id="node3" class="node">
<title>mu_1</title>
<ellipse fill="none" stroke="black" cx="166.5" cy="-154.61" rx="49.49" ry="37.45"/>
<text text-anchor="middle" x="166.5" y="-165.91" font-family="Times,serif" font-size="14.00">mu_1</text>
<text text-anchor="middle" x="166.5" y="-150.91" font-family="Times,serif" font-size="14.00">~</text>
<text text-anchor="middle" x="166.5" y="-135.91" font-family="Times,serif" font-size="14.00">Normal</text>
</g>
<!-- mu_1&#45;&gt;hgf_loglike -->
<g id="edge2" class="edge">
<title>mu_1&#45;&gt;hgf_loglike</title>
<path fill="none" stroke="black" d="M185.27,-119.69C190.4,-110.41 196.06,-100.18 201.55,-90.26"/>
<polygon fill="black" stroke="black" points="204.74,-91.72 206.52,-81.28 198.62,-88.33 204.74,-91.72"/>
</g>
<!-- omega_1 -->
<g id="node4" class="node">
<title>omega_1</title>
<ellipse fill="none" stroke="black" cx="290.5" cy="-154.61" rx="56.64" ry="37.45"/>
<text text-anchor="middle" x="290.5" y="-165.91" font-family="Times,serif" font-size="14.00">omega_1</text>
<text text-anchor="middle" x="290.5" y="-150.91" font-family="Times,serif" font-size="14.00">~</text>
<text text-anchor="middle" x="290.5" y="-135.91" font-family="Times,serif" font-size="14.00">Normal</text>
</g>
<!-- omega_1&#45;&gt;hgf_loglike -->
<g id="edge4" class="edge">
<title>omega_1&#45;&gt;hgf_loglike</title>
<path fill="none" stroke="black" d="M271.39,-119.08C266.32,-109.92 260.76,-99.86 255.36,-90.11"/>
<polygon fill="black" stroke="black" points="258.38,-88.33 250.47,-81.27 252.25,-91.72 258.38,-88.33"/>
</g>
<!-- omega_2 -->
<g id="node5" class="node">
<title>omega_2</title>
<ellipse fill="none" stroke="black" cx="424.5" cy="-154.61" rx="59.29" ry="37.45"/>
<text text-anchor="middle" x="424.5" y="-165.91" font-family="Times,serif" font-size="14.00">omega_2</text>
<text text-anchor="middle" x="424.5" y="-150.91" font-family="Times,serif" font-size="14.00">~</text>
<text text-anchor="middle" x="424.5" y="-135.91" font-family="Times,serif" font-size="14.00">Censored</text>
</g>
<!-- omega_2&#45;&gt;hgf_loglike -->
<g id="edge3" class="edge">
<title>omega_2&#45;&gt;hgf_loglike</title>
<path fill="none" stroke="black" d="M381,-128.74C353.39,-112.96 317.31,-92.33 287.18,-75.11"/>
<polygon fill="black" stroke="black" points="288.86,-72.04 278.44,-70.12 285.39,-78.12 288.86,-72.04"/>
</g>
</g>
</svg>