<?xml version="1.0" encoding="UTF-8" standalone="no"?>
<!DOCTYPE svg PUBLIC "-//W3C//DTD SVG 1.1//EN"
 "http://www.w3.org/Graphics/SVG/1.1/DTD/svg11.dtd">
<!-- Generated by graphviz version 2.43.0 (0)
 -->
<!-- Title: %3 Pages: 1 -->
<svg width="492pt" height="200pt"
 viewBox="0.00 0.00 492.07 200.08" xmlns="http://www.w3.org/2000/svg" xmlns:xlink="http://www.w3.org/1999/xlink">
<g id="graph0" class="graph" transform="scale(1 1) rotate(0) translate(4 196.08)">
<title>%3</title>
<polygon fill="white" stroke="transparent" points="-4,4 -4,-196.08 488.07,-196.08 488.07,4 -4,4"/>
<!-- mu_1 -->
<g id="node1" class="node">
<title>mu_1</title>
<ellipse fill="none" stroke="black" cx="49.5" cy="-154.61" rx="49.49" ry="37.45"/>
<text text-anchor="middle" x="49.5" y="-165.91" font-family="Times,serif" font-size="14.00">mu_1</text>
<text text-anchor="middle" x="49.5" y="-150.91" font-family="Times,serif" font-size="14.00">~</text>
<text text-anchor="middle" x="49.5" y="-135.91" font-family="Times,serif" font-size="14.00">Normal</text>
</g>
<!-- hgf_loglike -->
<g id="node3" class="node">
<title>hgf_loglike</title>
<polygon fill="lightgrey" stroke="black" points="311.39,-23.74 311.39,-57.39 269.27,-81.19 209.72,-81.19 167.61,-57.39 167.61,-23.74 209.72,0.06 269.27,0.06 311.39,-23.74"/>
<text text-anchor="middle" x="239.5" y="-51.86" font-family="Times,serif" font-size="14.00">hgf_loglike</text>
<text text-anchor="middle" x="239.5" y="-36.86" font-family="Times,serif" font-size="14.00">~</text>
<text text-anchor="middle" x="239.5" y="-21.86" font-family="Times,serif" font-size="14.00">Potential</text>
</g>
<!-- mu_1&#45;&gt;hgf_loglike -->
<g id="edge1" class="edge">
<title>mu_1&#45;&gt;hgf_loglike</title>
<path fill="none" stroke="black" d="M87.16,-130.08C94.23,-125.74 101.57,-121.27 108.5,-117.13 131.98,-103.1 158.04,-87.98 180.7,-74.97"/>
<polygon fill="black" stroke="black" points="182.59,-77.92 189.52,-69.91 179.11,-71.85 182.59,-77.92"/>
</g>
<!-- omega_2 -->
<g id="node2" class="node">
<title>omega_2</title>
<ellipse fill="none" stroke="black" cx="176.5" cy="-154.61" rx="59.29" ry="37.45"/>
<text text-anchor="middle" x="176.5" y="-165.91" font-family="Times,serif" font-size="14.00">omega_2</text>
<text text-anchor="middle" x="176.5" y="-150.91" font-family="Times,serif" font-size="14.00">~</text>
<text text-anchor="middle" x="176.5" y="-135.91" font-family="Times,serif" font-size="14.00">Censored</text>
</g>
<!-- omega_2&#45;&gt;hgf_loglike -->
<g id="edge4" class="edge">
<title>omega_2&#45;&gt;hgf_loglike</title>
<path fill="none" stroke="black" d="M195.91,-119.08C201.06,-109.92 206.72,-99.86 212.2,-90.11"/>
<polygon fill="black" stroke="black" points="215.32,-91.71 217.17,-81.27 209.22,-88.28 215.32,-91.71"/>
</g>
<!-- mu_2 -->
<g id="node4" class="node">
<title>mu_2</title>
<ellipse fill="none" stroke="black" cx="303.5" cy="-154.61" rx="49.49" ry="37.45"/>
<text text-anchor="middle" x="303.5" y="-165.91" font-family="Times,serif" font-size="14.00">mu_2</text>
<text text-anchor="middle" x="303.5" y="-150.91" font-family="Times,serif" font-size="14.00">~</text>
<text text-anchor="middle" x="303.5" y="-135.91" font-family="Times,serif" font-size="14.00">Normal</text>
</g>
<!-- mu_2&#45;&gt;hgf_loglike -->
<g id="edge3" class="edge">
<title>mu_2&#45;&gt;hgf_loglike</title>
<path fill="none" stroke="black" d="M284.3,-119.99C278.94,-110.62 273.02,-100.24 267.27,-90.19"/>
<polygon fill="black" stroke="black" points="270.29,-88.42 262.3,-81.48 264.22,-91.89 270.29,-88.42"/>
</g>
<!-- omega_1 -->
<g id="node5" class="node">
<title>omega_1</title>
<ellipse fill="none" stroke="black" cx="427.5" cy="-154.61" rx="56.64" ry="37.45"/>
<text text-anchor="middle" x="427.5" y="-165.91" font-family="Times,serif" font-size="14.00">omega_1</text>
<text text-anchor="middle" x="427.5" y="-150.91" font-family="Times,serif" font-size="14.00">~</text>
<text text-anchor="middle" x="427.5" y="-135.91" font-family="Times,serif" font-size="14.00">Normal</text>
</g>
<!-- omega_1&#45;&gt;hgf_loglike -->
<g id="edge2" class="edge">
<title>omega_1&#45;&gt;hgf_loglike</title>
<path fill="none" stroke="black" d="M385.77,-128.74C359.7,-113.2 325.75,-92.97 297.12,-75.91"/>
<polygon fill="black" stroke="black" points="298.81,-72.84 288.42,-70.72 295.22,-78.85 298.81,-72.84"/>
</g>
</g>
</svg>