<?xml version="1.0" encoding="UTF-8" standalone="no"?>
<!DOCTYPE svg PUBLIC "-//W3C//DTD SVG 1.1//EN"
 "http://www.w3.org/Graphics/SVG/1.1/DTD/svg11.dtd">
<!-- Generated by graphviz version 2.43.0 (0)
 -->
<!-- Title: %3 Pages: 1 -->
<svg width="166pt" height="200pt"
 viewBox="0.00 0.00 165.67 200.08" xmlns="http://www.w3.org/2000/svg" xmlns:xlink="http://www.w3.org/1999/xlink">
<g id="graph0" class="graph" transform="scale(1 1) rotate(0) translate(4 196.08)">
<title>%3</title>
<polygon fill="white" stroke="transparent" points="-4,4 -4,-196.08 161.67,-196.08 161.67,4 -4,4"/>
<!-- omega_2 -->
<g id="node1" class="node">
<title>omega_2</title>
<ellipse fill="none" stroke="black" cx="78.83" cy="-154.61" rx="56.64" ry="37.45"/>
<text text-anchor="middle" x="78.83" y="-165.91" font-family="Times,serif" font-size="14.00">omega_2</text>
<text text-anchor="middle" x="78.83" y="-150.91" font-family="Times,serif" font-size="14.00">~</text>
<text text-anchor="middle" x="78.83" y="-135.91" font-family="Times,serif" font-size="14.00">Normal</text>
</g>
<!-- hhgf_loglike -->
<g id="node2" class="node">
<title>hhgf_loglike</title>
<polygon fill="lightgrey" stroke="black" points="157.5,-23.74 157.5,-57.39 111.42,-81.19 46.25,-81.19 0.17,-57.39 0.17,-23.74 46.25,0.06 111.42,0.06 157.5,-23.74"/>
<text text-anchor="middle" x="78.83" y="-51.86" font-family="Times,serif" font-size="14.00">hhgf_loglike</text>
<text text-anchor="middle" x="78.83" y="-36.86" font-family="Times,serif" font-size="14.00">~</text>
<text text-anchor="middle" x="78.83" y="-21.86" font-family="Times,serif" font-size="14.00">Potential</text>
</g>
<!-- omega_2&#45;&gt;hhgf_loglike -->
<g id="edge1" class="edge">
<title>omega_2&#45;&gt;hhgf_loglike</title>
<path fill="none" stroke="black" d="M78.83,-116.92C78.83,-108.84 78.83,-100.16 78.83,-91.65"/>
<polygon fill="black" stroke="black" points="82.33,-91.43 78.83,-81.43 75.33,-91.43 82.33,-91.43"/>
</g>
</g>
</svg>