<?xml version="1.0" encoding="UTF-8" standalone="no"?>
<!DOCTYPE svg PUBLIC "-//W3C//DTD SVG 1.1//EN"
 "http://www.w3.org/Graphics/SVG/1.1/DTD/svg11.dtd">
<!-- Generated by graphviz version 2.43.0 (0)
 -->
<!-- Title: hgf&#45;nodes Pages: 1 -->
<svg width="85pt" height="260pt"
 viewBox="0.00 0.00 85.38 260.00" xmlns="http://www.w3.org/2000/svg" xmlns:xlink="http://www.w3.org/1999/xlink">
<g id="graph0" class="graph" transform="scale(1 1) rotate(0) translate(4 256)">
<title>hgf&#45;nodes</title>
<polygon fill="white" stroke="transparent" points="-4,4 -4,-256 81.38,-256 81.38,4 -4,4"/>
<!-- x_0 -->
<g id="node1" class="node">
<title>x_0</title>
<polygon fill="lightgrey" stroke="black" points="77.58,-10.54 77.58,-25.46 54.8,-36 22.59,-36 -0.19,-25.46 -0.19,-10.54 22.59,0 54.8,0 77.58,-10.54"/>
<text text-anchor="middle" x="38.69" y="-14.3" font-family="Times,serif" font-size="14.00">BI &#45; 0</text>
</g>
<!-- x_1 -->
<g id="node2" class="node">
<title>x_1</title>
<ellipse fill="none" stroke="black" cx="38.69" cy="-90" rx="18" ry="18"/>
<text text-anchor="middle" x="38.69" y="-86.3" font-family="Times,serif" font-size="14.00">1</text>
</g>
<!-- x_1&#45;&gt;x_0 -->
<g id="edge1" class="edge">
<title>x_1&#45;&gt;x_0</title>
<path fill="none" stroke="black" d="M38.69,-71.7C38.69,-63.98 38.69,-54.71 38.69,-46.11"/>
<polygon fill="black" stroke="black" points="42.19,-46.1 38.69,-36.1 35.19,-46.1 42.19,-46.1"/>
</g>
<!-- x_2 -->
<g id="node3" class="node">
<title>x_2</title>
<ellipse fill="none" stroke="black" cx="38.69" cy="-162" rx="18" ry="18"/>
<text text-anchor="middle" x="38.69" y="-158.3" font-family="Times,serif" font-size="14.00">2</text>
</g>
<!-- x_2&#45;&gt;x_1 -->
<g id="edge2" class="edge">
<title>x_2&#45;&gt;x_1</title>
<path fill="none" stroke="black" d="M38.69,-143.7C38.69,-135.98 38.69,-126.71 38.69,-118.11"/>
<polygon fill="black" stroke="black" points="42.19,-118.1 38.69,-108.1 35.19,-118.1 42.19,-118.1"/>
</g>
<!-- x_3 -->
<g id="node4" class="node">
<title>x_3</title>
<ellipse fill="none" stroke="black" cx="38.69" cy="-234" rx="18" ry="18"/>
<text text-anchor="middle" x="38.69" y="-230.3" font-family="Times,serif" font-size="14.00">3</text>
</g>
<!-- x_3&#45;&gt;x_2 -->
<g id="edge3" class="edge">
<title>x_3&#45;&gt;x_2</title>
<path fill="none" stroke="gray" stroke-dasharray="5,2" d="M38.69,-215.7C38.69,-207.39 38.69,-197.28 38.69,-188.14"/>
<ellipse fill="gray" stroke="gray" cx="38.69" cy="-184.1" rx="4" ry="4"/>
</g>
</g>
</svg>