<?xml version="1.0" encoding="UTF-8" standalone="no"?>
<!DOCTYPE svg PUBLIC "-//W3C//DTD SVG 1.1//EN"
 "http://www.w3.org/Graphics/SVG/1.1/DTD/svg11.dtd">
<!-- Generated by graphviz version 2.43.0 (0)
 -->
<!-- Title: %3 Pages: 1 -->
<svg width="375pt" height="200pt"
 viewBox="0.00 0.00 374.89 200.08" xmlns="http://www.w3.org/2000/svg" xmlns:xlink="http://www.w3.org/1999/xlink">
<g id="graph0" class="graph" transform="scale(1 1) rotate(0) translate(4 196.08)">
<title>%3</title>
<polygon fill="white" stroke="transparent" points="-4,4 -4,-196.08 370.89,-196.08 370.89,4 -4,4"/>
<!-- mu_1 -->
<g id="node1" class="node">
<title>mu_1</title>
<ellipse fill="none" stroke="black" cx="49.5" cy="-154.61" rx="49.49" ry="37.45"/>
<text text-anchor="middle" x="49.5" y="-165.91" font-family="Times,serif" font-size="14.00">mu_1</text>
<text text-anchor="middle" x="49.5" y="-150.91" font-family="Times,serif" font-size="14.00">~</text>
<text text-anchor="middle" x="49.5" y="-135.91" font-family="Times,serif" font-size="14.00">Normal</text>
</g>
<!-- hhgf_loglike -->
<g id="node3" class="node">
<title>hhgf_loglike</title>
<polygon fill="lightgrey" stroke="black" points="252.16,-23.74 252.16,-57.39 206.08,-81.19 140.91,-81.19 94.83,-57.39 94.83,-23.74 140.91,0.06 206.08,0.06 252.16,-23.74"/>
<text text-anchor="middle" x="173.5" y="-51.86" font-family="Times,serif" font-size="14.00">hhgf_loglike</text>
<text text-anchor="middle" x="173.5" y="-36.86" font-family="Times,serif" font-size="14.00">~</text>
<text text-anchor="middle" x="173.5" y="-21.86" font-family="Times,serif" font-size="14.00">Potential</text>
</g>
<!-- mu_1&#45;&gt;hhgf_loglike -->
<g id="edge3" class="edge">
<title>mu_1&#45;&gt;hhgf_loglike</title>
<path fill="none" stroke="black" d="M80.79,-125.33C94.35,-113.08 110.54,-98.45 125.56,-84.88"/>
<polygon fill="black" stroke="black" points="128.22,-87.19 133.29,-77.89 123.53,-82 128.22,-87.19"/>
</g>
<!-- omega_1 -->
<g id="node2" class="node">
<title>omega_1</title>
<ellipse fill="none" stroke="black" cx="173.5" cy="-154.61" rx="56.64" ry="37.45"/>
<text text-anchor="middle" x="173.5" y="-165.91" font-family="Times,serif" font-size="14.00">omega_1</text>
<text text-anchor="middle" x="173.5" y="-150.91" font-family="Times,serif" font-size="14.00">~</text>
<text text-anchor="middle" x="173.5" y="-135.91" font-family="Times,serif" font-size="14.00">Normal</text>
</g>
<!-- omega_1&#45;&gt;hhgf_loglike -->
<g id="edge1" class="edge">
<title>omega_1&#45;&gt;hhgf_loglike</title>
<path fill="none" stroke="black" d="M173.5,-116.92C173.5,-108.84 173.5,-100.16 173.5,-91.65"/>
<polygon fill="black" stroke="black" points="177,-91.43 173.5,-81.43 170,-91.43 177,-91.43"/>
</g>
<!-- omega_2 -->
<g id="node4" class="node">
<title>omega_2</title>
<ellipse fill="none" stroke="black" cx="307.5" cy="-154.61" rx="59.29" ry="37.45"/>
<text text-anchor="middle" x="307.5" y="-165.91" font-family="Times,serif" font-size="14.00">omega_2</text>
<text text-anchor="middle" x="307.5" y="-150.91" font-family="Times,serif" font-size="14.00">~</text>
<text text-anchor="middle" x="307.5" y="-135.91" font-family="Times,serif" font-size="14.00">Censored</text>
</g>
<!-- omega_2&#45;&gt;hhgf_loglike -->
<g id="edge2" class="edge">
<title>omega_2&#45;&gt;hhgf_loglike</title>
<path fill="none" stroke="black" d="M272.29,-124.17C257.36,-111.69 239.7,-96.91 223.46,-83.34"/>
<polygon fill="black" stroke="black" points="225.54,-80.51 215.62,-76.78 221.05,-85.88 225.54,-80.51"/>
</g>
</g>
</svg>