<?xml version="1.0" encoding="UTF-8" standalone="no"?>
<!DOCTYPE svg PUBLIC "-//W3C//DTD SVG 1.1//EN"
 "http://www.w3.org/Graphics/SVG/1.1/DTD/svg11.dtd">
<!-- Generated by graphviz version 2.43.0 (0)
 -->
<!-- Title: %3 Pages: 1 -->
<svg width="492pt" height="200pt"
 viewBox="0.00 0.00 491.97 200.08" xmlns="http://www.w3.org/2000/svg" xmlns:xlink="http://www.w3.org/1999/xlink">
<g id="graph0" class="graph" transform="scale(1 1) rotate(0) translate(4 196.08)">
<title>%3</title>
<polygon fill="white" stroke="transparent" points="-4,4 -4,-196.08 487.97,-196.08 487.97,4 -4,4"/>
<!-- hgf_loglike -->
<g id="node1" class="node">
<title>hgf_loglike</title>
<polygon fill="lightgrey" stroke="black" points="310.46,-23.74 310.46,-57.39 268.35,-81.19 208.79,-81.19 166.68,-57.39 166.68,-23.74 208.79,0.06 268.35,0.06 310.46,-23.74"/>
<text text-anchor="middle" x="238.57" y="-51.86" font-family="Times,serif" font-size="14.00">hgf_loglike</text>
<text text-anchor="middle" x="238.57" y="-36.86" font-family="Times,serif" font-size="14.00">~</text>
<text text-anchor="middle" x="238.57" y="-21.86" font-family="Times,serif" font-size="14.00">Potential</text>
</g>
<!-- omega_1 -->
<g id="node2" class="node">
<title>omega_1</title>
<ellipse fill="none" stroke="black" cx="56.57" cy="-154.61" rx="56.64" ry="37.45"/>
<text text-anchor="middle" x="56.57" y="-165.91" font-family="Times,serif" font-size="14.00">omega_1</text>
<text text-anchor="middle" x="56.57" y="-150.91" font-family="Times,serif" font-size="14.00">~</text>
<text text-anchor="middle" x="56.57" y="-135.91" font-family="Times,serif" font-size="14.00">Normal</text>
</g>
<!-- omega_1&#45;&gt;hgf_loglike -->
<g id="edge1" class="edge">
<title>omega_1&#45;&gt;hgf_loglike</title>
<path fill="none" stroke="black" d="M97.41,-128.46C122.28,-113.15 154.43,-93.36 181.75,-76.54"/>
<polygon fill="black" stroke="black" points="183.76,-79.41 190.44,-71.19 180.09,-73.45 183.76,-79.41"/>
</g>
<!-- mu_1 -->
<g id="node3" class="node">
<title>mu_1</title>
<ellipse fill="none" stroke="black" cx="180.57" cy="-154.61" rx="49.49" ry="37.45"/>
<text text-anchor="middle" x="180.57" y="-165.91" font-family="Times,serif" font-size="14.00">mu_1</text>
<text text-anchor="middle" x="180.57" y="-150.91" font-family="Times,serif" font-size="14.00">~</text>
<text text-anchor="middle" x="180.57" y="-135.91" font-family="Times,serif" font-size="14.00">Normal</text>
</g>
<!-- mu_1&#45;&gt;hgf_loglike -->
<g id="edge2" class="edge">
<title>mu_1&#45;&gt;hgf_loglike</title>
<path fill="none" stroke="black" d="M198.29,-119.38C202.98,-110.31 208.14,-100.34 213.16,-90.64"/>
<polygon fill="black" stroke="black" points="216.42,-91.96 217.91,-81.48 210.2,-88.75 216.42,-91.96"/>
</g>
<!-- mu_2 -->
<g id="node4" class="node">
<title>mu_2</title>
<ellipse fill="none" stroke="black" cx="297.57" cy="-154.61" rx="49.49" ry="37.45"/>
<text text-anchor="middle" x="297.57" y="-165.91" font-family="Times,serif" font-size="14.00">mu_2</text>
<text text-anchor="middle" x="297.57" y="-150.91" font-family="Times,serif" font-size="14.00">~</text>
<text text-anchor="middle" x="297.57" y="-135.91" font-family="Times,serif" font-size="14.00">Normal</text>
</g>
<!-- mu_2&#45;&gt;hgf_loglike -->
<g id="edge3" class="edge">
<title>mu_2&#45;&gt;hgf_loglike</title>
<path fill="none" stroke="black" d="M279.55,-119.38C274.72,-110.22 269.41,-100.13 264.26,-90.34"/>
<polygon fill="black" stroke="black" points="267.34,-88.69 259.59,-81.48 261.15,-91.95 267.34,-88.69"/>
</g>
<!-- omega_2 -->
<g id="node5" class="node">
<title>omega_2</title>
<ellipse fill="none" stroke="black" cx="424.57" cy="-154.61" rx="59.29" ry="37.45"/>
<text text-anchor="middle" x="424.57" y="-165.91" font-family="Times,serif" font-size="14.00">omega_2</text>
<text text-anchor="middle" x="424.57" y="-150.91" font-family="Times,serif" font-size="14.00">~</text>
<text text-anchor="middle" x="424.57" y="-135.91" font-family="Times,serif" font-size="14.00">Censored</text>
</g>
<!-- omega_2&#45;&gt;hgf_loglike -->
<g id="edge4" class="edge">
<title>omega_2&#45;&gt;hgf_loglike</title>
<path fill="none" stroke="black" d="M382.36,-128.18C356.83,-112.8 323.93,-92.98 296.04,-76.18"/>
<polygon fill="black" stroke="black" points="297.55,-73.01 287.18,-70.85 293.94,-79 297.55,-73.01"/>
</g>
</g>
</svg>