<?xml version="1.0" encoding="UTF-8" standalone="no"?>
<!DOCTYPE svg PUBLIC "-//W3C//DTD SVG 1.1//EN"
 "http://www.w3.org/Graphics/SVG/1.1/DTD/svg11.dtd">
<!-- Generated by graphviz version 2.43.0 (0)
 -->
<!-- Title: %3 Pages: 1 -->
<svg width="152pt" height="200pt"
 viewBox="0.00 0.00 151.89 200.08" xmlns="http://www.w3.org/2000/svg" xmlns:xlink="http://www.w3.org/1999/xlink">
<g id="graph0" class="graph" transform="scale(1 1) rotate(0) translate(4 196.08)">
<title>%3</title>
<polygon fill="white" stroke="transparent" points="-4,4 -4,-196.08 147.89,-196.08 147.89,4 -4,4"/>
<!-- hgf_loglike -->
<g id="node1" class="node">
<title>hgf_loglike</title>
<polygon fill="lightgrey" stroke="black" points="143.83,-23.74 143.83,-57.39 101.72,-81.19 42.17,-81.19 0.06,-57.39 0.06,-23.74 42.17,0.06 101.72,0.06 143.83,-23.74"/>
<text text-anchor="middle" x="71.94" y="-51.86" font-family="Times,serif" font-size="14.00">hgf_loglike</text>
<text text-anchor="middle" x="71.94" y="-36.86" font-family="Times,serif" font-size="14.00">~</text>
<text text-anchor="middle" x="71.94" y="-21.86" font-family="Times,serif" font-size="14.00">Potential</text>
</g>
<!-- omega_2 -->
<g id="node2" class="node">
<title>omega_2</title>
<ellipse fill="none" stroke="black" cx="71.94" cy="-154.61" rx="56.64" ry="37.45"/>
<text text-anchor="middle" x="71.94" y="-165.91" font-family="Times,serif" font-size="14.00">omega_2</text>
<text text-anchor="middle" x="71.94" y="-150.91" font-family="Times,serif" font-size="14.00">~</text>
<text text-anchor="middle" x="71.94" y="-135.91" font-family="Times,serif" font-size="14.00">Normal</text>
</g>
<!-- omega_2&#45;&gt;hgf_loglike -->
<g id="edge1" class="edge">
<title>omega_2&#45;&gt;hgf_loglike</title>
<path fill="none" stroke="black" d="M71.94,-116.92C71.94,-108.84 71.94,-100.16 71.94,-91.65"/>
<polygon fill="black" stroke="black" points="75.44,-91.43 71.94,-81.43 68.44,-91.43 75.44,-91.43"/>
</g>
</g>
</svg>