<?xml version="1.0" encoding="UTF-8" standalone="no"?>
<!DOCTYPE svg PUBLIC "-//W3C//DTD SVG 1.1//EN"
 "http://www.w3.org/Graphics/SVG/1.1/DTD/svg11.dtd">
<!-- Generated by graphviz version 2.43.0 (0)
 -->
<!-- Title: %3 Pages: 1 -->
<svg width="375pt" height="200pt"
 viewBox="0.00 0.00 374.89 200.08" xmlns="http://www.w3.org/2000/svg" xmlns:xlink="http://www.w3.org/1999/xlink">
<g id="graph0" class="graph" transform="scale(1 1) rotate(0) translate(4 196.08)">
<title>%3</title>
<polygon fill="white" stroke="transparent" points="-4,4 -4,-196.08 370.89,-196.08 370.89,4 -4,4"/>
<!-- hhgf_loglike -->
<g id="node1" class="node">
<title>hhgf_loglike</title>
<polygon fill="lightgrey" stroke="black" points="272.06,-23.74 272.06,-57.39 225.98,-81.19 160.81,-81.19 114.73,-57.39 114.73,-23.74 160.81,0.06 225.98,0.06 272.06,-23.74"/>
<text text-anchor="middle" x="193.4" y="-51.86" font-family="Times,serif" font-size="14.00">hhgf_loglike</text>
<text text-anchor="middle" x="193.4" y="-36.86" font-family="Times,serif" font-size="14.00">~</text>
<text text-anchor="middle" x="193.4" y="-21.86" font-family="Times,serif" font-size="14.00">Potential</text>
</g>
<!-- omega_2 -->
<g id="node2" class="node">
<title>omega_2</title>
<ellipse fill="none" stroke="black" cx="59.4" cy="-154.61" rx="59.29" ry="37.45"/>
<text text-anchor="middle" x="59.4" y="-165.91" font-family="Times,serif" font-size="14.00">omega_2</text>
<text text-anchor="middle" x="59.4" y="-150.91" font-family="Times,serif" font-size="14.00">~</text>
<text text-anchor="middle" x="59.4" y="-135.91" font-family="Times,serif" font-size="14.00">Censored</text>
</g>
<!-- omega_2&#45;&gt;hhgf_loglike -->
<g id="edge1" class="edge">
<title>omega_2&#45;&gt;hhgf_loglike</title>
<path fill="none" stroke="black" d="M94.6,-124.17C109.53,-111.69 127.2,-96.91 143.44,-83.34"/>
<polygon fill="black" stroke="black" points="145.85,-85.88 151.27,-76.78 141.36,-80.51 145.85,-85.88"/>
</g>
<!-- omega_1 -->
<g id="node3" class="node">
<title>omega_1</title>
<ellipse fill="none" stroke="black" cx="193.4" cy="-154.61" rx="56.64" ry="37.45"/>
<text text-anchor="middle" x="193.4" y="-165.91" font-family="Times,serif" font-size="14.00">omega_1</text>
<text text-anchor="middle" x="193.4" y="-150.91" font-family="Times,serif" font-size="14.00">~</text>
<text text-anchor="middle" x="193.4" y="-135.91" font-family="Times,serif" font-size="14.00">Normal</text>
</g>
<!-- omega_1&#45;&gt;hhgf_loglike -->
<g id="edge2" class="edge">
<title>omega_1&#45;&gt;hhgf_loglike</title>
<path fill="none" stroke="black" d="M193.4,-116.92C193.4,-108.84 193.4,-100.16 193.4,-91.65"/>
<polygon fill="black" stroke="black" points="196.9,-91.43 193.4,-81.43 189.9,-91.43 196.9,-91.43"/>
</g>
<!-- mu_1 -->
<g id="node4" class="node">
<title>mu_1</title>
<ellipse fill="none" stroke="black" cx="317.4" cy="-154.61" rx="49.49" ry="37.45"/>
<text text-anchor="middle" x="317.4" y="-165.91" font-family="Times,serif" font-size="14.00">mu_1</text>
<text text-anchor="middle" x="317.4" y="-150.91" font-family="Times,serif" font-size="14.00">~</text>
<text text-anchor="middle" x="317.4" y="-135.91" font-family="Times,serif" font-size="14.00">Normal</text>
</g>
<!-- mu_1&#45;&gt;hhgf_loglike -->
<g id="edge3" class="edge">
<title>mu_1&#45;&gt;hhgf_loglike</title>
<path fill="none" stroke="black" d="M286.11,-125.33C272.54,-113.08 256.36,-98.45 241.33,-84.88"/>
<polygon fill="black" stroke="black" points="243.37,-82 233.6,-77.89 238.68,-87.19 243.37,-82"/>
</g>
</g>
</svg>