<?xml version="1.0" encoding="UTF-8" standalone="no"?>
<!DOCTYPE svg PUBLIC "-//W3C//DTD SVG 1.1//EN"
 "http://www.w3.org/Graphics/SVG/1.1/DTD/svg11.dtd">
<!-- Generated by graphviz version 2.43.0 (0)
 -->
<!-- Title: hgf&#45;nodes Pages: 1 -->
<svg width="90pt" height="297pt"
 viewBox="0.00 0.00 90.00 296.99" xmlns="http://www.w3.org/2000/svg" xmlns:xlink="http://www.w3.org/1999/xlink">
<g id="graph0" class="graph" transform="scale(1 1) rotate(0) translate(4 292.99)">
<title>hgf&#45;nodes</title>
<polygon fill="white" stroke="transparent" points="-4,4 -4,-292.99 86,-292.99 86,4 -4,4"/>
<!-- x_0 -->
<g id="node1" class="node">
<title>x_0</title>
<ellipse fill="lightgrey" stroke="black" cx="41" cy="-36.5" rx="32.49" ry="32.49"/>
<ellipse fill="none" stroke="black" cx="41" cy="-36.5" rx="36.49" ry="36.49"/>
<text text-anchor="middle" x="41" y="-32.8" font-family="Times,serif" font-size="14.00">DP&#45;0</text>
</g>
<!-- x_1 -->
<g id="node2" class="node">
<title>x_1</title>
<ellipse fill="lightgrey" stroke="black" cx="41" cy="-126.99" rx="31.7" ry="18"/>
<text text-anchor="middle" x="41" y="-123.29" font-family="Times,serif" font-size="14.00">Co&#45;1</text>
</g>
<!-- x_1&#45;&gt;x_0 -->
<g id="edge1" class="edge">
<title>x_1&#45;&gt;x_0</title>
<path fill="none" stroke="black" d="M41,-108.93C41,-101.56 41,-92.54 41,-83.43"/>
<polygon fill="black" stroke="black" points="44.5,-83.19 41,-73.19 37.5,-83.19 44.5,-83.19"/>
</g>
<!-- x_2 -->
<g id="node3" class="node">
<title>x_2</title>
<ellipse fill="none" stroke="black" cx="18" cy="-198.99" rx="18" ry="18"/>
<text text-anchor="middle" x="18" y="-195.29" font-family="Times,serif" font-size="14.00">2</text>
</g>
<!-- x_2&#45;&gt;x_1 -->
<g id="edge2" class="edge">
<title>x_2&#45;&gt;x_1</title>
<path fill="none" stroke="black" d="M23.33,-181.76C25.96,-173.78 29.19,-163.95 32.16,-154.88"/>
<polygon fill="black" stroke="black" points="35.58,-155.71 35.37,-145.12 28.93,-153.53 35.58,-155.71"/>
</g>
<!-- x_3 -->
<g id="node4" class="node">
<title>x_3</title>
<ellipse fill="none" stroke="black" cx="64" cy="-270.99" rx="18" ry="18"/>
<text text-anchor="middle" x="64" y="-267.29" font-family="Times,serif" font-size="14.00">3</text>
</g>
<!-- x_3&#45;&gt;x_1 -->
<g id="edge3" class="edge">
<title>x_3&#45;&gt;x_1</title>
<path fill="none" stroke="gray" stroke-dasharray="5,2" d="M61.27,-253.15C57.26,-228.41 49.76,-182.07 45.09,-153.25"/>
<ellipse fill="gray" stroke="gray" cx="44.44" cy="-149.21" rx="4" ry="4"/>
</g>
</g>
</svg>