<?xml version="1.0" encoding="UTF-8" standalone="no"?>
<!DOCTYPE svg PUBLIC "-//W3C//DTD SVG 1.1//EN"
 "http://www.w3.org/Graphics/SVG/1.1/DTD/svg11.dtd">
<!-- Generated by graphviz version 2.43.0 (0)
 -->
<!-- Title: %3 Pages: 1 -->
<svg width="746pt" height="200pt"
 viewBox="0.00 0.00 745.97 200.08" xmlns="http://www.w3.org/2000/svg" xmlns:xlink="http://www.w3.org/1999/xlink">
<g id="graph0" class="graph" transform="scale(1 1) rotate(0) translate(4 196.08)">
<title>%3</title>
<polygon fill="white" stroke="transparent" points="-4,4 -4,-196.08 741.97,-196.08 741.97,4 -4,4"/>
<!-- hgf_loglike -->
<g id="node1" class="node">
<title>hgf_loglike</title>
<polygon fill="lightgrey" stroke="black" points="432.46,-23.74 432.46,-57.39 390.35,-81.19 330.79,-81.19 288.68,-57.39 288.68,-23.74 330.79,0.06 390.35,0.06 432.46,-23.74"/>
<text text-anchor="middle" x="360.57" y="-51.86" font-family="Times,serif" font-size="14.00">hgf_loglike</text>
<text text-anchor="middle" x="360.57" y="-36.86" font-family="Times,serif" font-size="14.00">~</text>
<text text-anchor="middle" x="360.57" y="-21.86" font-family="Times,serif" font-size="14.00">Potential</text>
</g>
<!-- omega_1 -->
<g id="node2" class="node">
<title>omega_1</title>
<ellipse fill="none" stroke="black" cx="56.57" cy="-154.61" rx="56.64" ry="37.45"/>
<text text-anchor="middle" x="56.57" y="-165.91" font-family="Times,serif" font-size="14.00">omega_1</text>
<text text-anchor="middle" x="56.57" y="-150.91" font-family="Times,serif" font-size="14.00">~</text>
<text text-anchor="middle" x="56.57" y="-135.91" font-family="Times,serif" font-size="14.00">Normal</text>
</g>
<!-- omega_1&#45;&gt;hgf_loglike -->
<g id="edge3" class="edge">
<title>omega_1&#45;&gt;hgf_loglike</title>
<path fill="none" stroke="black" d="M98.2,-128.98C106.15,-124.74 114.51,-120.59 122.57,-117.13 174.44,-94.82 235.13,-75.65 282.24,-62.21"/>
<polygon fill="black" stroke="black" points="283.41,-65.51 292.08,-59.42 281.5,-58.78 283.41,-65.51"/>
</g>
<!-- mu_1 -->
<g id="node3" class="node">
<title>mu_1</title>
<ellipse fill="none" stroke="black" cx="180.57" cy="-154.61" rx="49.49" ry="37.45"/>
<text text-anchor="middle" x="180.57" y="-165.91" font-family="Times,serif" font-size="14.00">mu_1</text>
<text text-anchor="middle" x="180.57" y="-150.91" font-family="Times,serif" font-size="14.00">~</text>
<text text-anchor="middle" x="180.57" y="-135.91" font-family="Times,serif" font-size="14.00">Normal</text>
</g>
<!-- mu_1&#45;&gt;hgf_loglike -->
<g id="edge4" class="edge">
<title>mu_1&#45;&gt;hgf_loglike</title>
<path fill="none" stroke="black" d="M218.3,-130.12C243.25,-114.59 276.39,-93.96 304.41,-76.52"/>
<polygon fill="black" stroke="black" points="306.28,-79.48 312.93,-71.22 302.59,-73.53 306.28,-79.48"/>
</g>
<!-- mu_2 -->
<g id="node4" class="node">
<title>mu_2</title>
<ellipse fill="none" stroke="black" cx="297.57" cy="-154.61" rx="49.49" ry="37.45"/>
<text text-anchor="middle" x="297.57" y="-165.91" font-family="Times,serif" font-size="14.00">mu_2</text>
<text text-anchor="middle" x="297.57" y="-150.91" font-family="Times,serif" font-size="14.00">~</text>
<text text-anchor="middle" x="297.57" y="-135.91" font-family="Times,serif" font-size="14.00">Normal</text>
</g>
<!-- mu_2&#45;&gt;hgf_loglike -->
<g id="edge5" class="edge">
<title>mu_2&#45;&gt;hgf_loglike</title>
<path fill="none" stroke="black" d="M316.64,-119.69C321.85,-110.41 327.61,-100.18 333.19,-90.26"/>
<polygon fill="black" stroke="black" points="336.39,-91.71 338.24,-81.28 330.29,-88.28 336.39,-91.71"/>
</g>
<!-- omega_3 -->
<g id="node5" class="node">
<title>omega_3</title>
<ellipse fill="none" stroke="black" cx="424.57" cy="-154.61" rx="59.29" ry="37.45"/>
<text text-anchor="middle" x="424.57" y="-165.91" font-family="Times,serif" font-size="14.00">omega_3</text>
<text text-anchor="middle" x="424.57" y="-150.91" font-family="Times,serif" font-size="14.00">~</text>
<text text-anchor="middle" x="424.57" y="-135.91" font-family="Times,serif" font-size="14.00">Censored</text>
</g>
<!-- omega_3&#45;&gt;hgf_loglike -->
<g id="edge1" class="edge">
<title>omega_3&#45;&gt;hgf_loglike</title>
<path fill="none" stroke="black" d="M404.84,-119.08C399.61,-109.92 393.87,-99.86 388.3,-90.11"/>
<polygon fill="black" stroke="black" points="391.25,-88.22 383.25,-81.27 385.17,-91.69 391.25,-88.22"/>
</g>
<!-- mu_3 -->
<g id="node6" class="node">
<title>mu_3</title>
<ellipse fill="none" stroke="black" cx="551.57" cy="-154.61" rx="49.49" ry="37.45"/>
<text text-anchor="middle" x="551.57" y="-165.91" font-family="Times,serif" font-size="14.00">mu_3</text>
<text text-anchor="middle" x="551.57" y="-150.91" font-family="Times,serif" font-size="14.00">~</text>
<text text-anchor="middle" x="551.57" y="-135.91" font-family="Times,serif" font-size="14.00">Normal</text>
</g>
<!-- mu_3&#45;&gt;hgf_loglike -->
<g id="edge2" class="edge">
<title>mu_3&#45;&gt;hgf_loglike</title>
<path fill="none" stroke="black" d="M513.91,-130.06C506.85,-125.72 499.5,-121.26 492.57,-117.13 468.93,-103.06 442.67,-87.93 419.84,-74.93"/>
<polygon fill="black" stroke="black" points="421.37,-71.77 410.94,-69.87 417.91,-77.86 421.37,-71.77"/>
</g>
<!-- omega_2 -->
<g id="node7" class="node">
<title>omega_2</title>
<ellipse fill="none" stroke="black" cx="678.57" cy="-154.61" rx="59.29" ry="37.45"/>
<text text-anchor="middle" x="678.57" y="-165.91" font-family="Times,serif" font-size="14.00">omega_2</text>
<text text-anchor="middle" x="678.57" y="-150.91" font-family="Times,serif" font-size="14.00">~</text>
<text text-anchor="middle" x="678.57" y="-135.91" font-family="Times,serif" font-size="14.00">Censored</text>
</g>
<!-- omega_2&#45;&gt;hgf_loglike -->
<g id="edge6" class="edge">
<title>omega_2&#45;&gt;hgf_loglike</title>
<path fill="none" stroke="black" d="M635,-128.97C626.69,-124.73 617.96,-120.58 609.57,-117.13 554.25,-94.36 489.53,-74.93 439.95,-61.47"/>
<polygon fill="black" stroke="black" points="440.8,-58.08 430.24,-58.86 438.99,-64.84 440.8,-58.08"/>
</g>
</g>
</svg>