<?xml version="1.0" encoding="UTF-8" standalone="no"?>
<!DOCTYPE svg PUBLIC "-//W3C//DTD SVG 1.1//EN"
 "http://www.w3.org/Graphics/SVG/1.1/DTD/svg11.dtd">
<!-- Generated by graphviz version 2.43.0 (0)
 -->
<!-- Title: hgf&#45;nodes Pages: 1 -->
<svg width="490pt" height="316pt"
 viewBox="0.00 0.00 489.75 315.99" xmlns="http://www.w3.org/2000/svg" xmlns:xlink="http://www.w3.org/1999/xlink">
<g id="graph0" class="graph" transform="scale(1 1) rotate(0) translate(4 311.99)">
<title>hgf&#45;nodes</title>
<polygon fill="white" stroke="transparent" points="-4,4 -4,-311.99 485.75,-311.99 485.75,4 -4,4"/>
<!-- x_0 -->
<g id="node1" class="node">
<title>x_0</title>
<ellipse fill="lightgrey" stroke="black" cx="227" cy="-36.5" rx="32.49" ry="32.49"/>
<ellipse fill="none" stroke="black" cx="227" cy="-36.5" rx="36.49" ry="36.49"/>
<text text-anchor="middle" x="227" y="-32.8" font-family="Times,serif" font-size="14.00">DP&#45;0</text>
</g>
<!-- x_1 -->
<g id="node2" class="node">
<title>x_1</title>
<ellipse fill="lightgrey" stroke="black" cx="63" cy="-126.99" rx="31.7" ry="18"/>
<text text-anchor="middle" x="63" y="-123.29" font-family="Times,serif" font-size="14.00">Co&#45;1</text>
</g>
<!-- x_1&#45;&gt;x_0 -->
<g id="edge1" class="edge">
<title>x_1&#45;&gt;x_0</title>
<path fill="none" stroke="black" d="M85.46,-113.87C111.33,-99.92 154.35,-76.7 186.19,-59.52"/>
<polygon fill="black" stroke="black" points="188.12,-62.45 195.26,-54.62 184.8,-56.29 188.12,-62.45"/>
</g>
<!-- x_4 -->
<g id="node3" class="node">
<title>x_4</title>
<ellipse fill="lightgrey" stroke="black" cx="145" cy="-126.99" rx="31.7" ry="18"/>
<text text-anchor="middle" x="145" y="-123.29" font-family="Times,serif" font-size="14.00">Co&#45;4</text>
</g>
<!-- x_4&#45;&gt;x_0 -->
<g id="edge2" class="edge">
<title>x_4&#45;&gt;x_0</title>
<path fill="none" stroke="black" d="M159.28,-110.58C169.35,-99.72 183.22,-84.74 195.79,-71.18"/>
<polygon fill="black" stroke="black" points="198.38,-73.54 202.61,-63.82 193.24,-68.78 198.38,-73.54"/>
</g>
<!-- x_7 -->
<g id="node4" class="node">
<title>x_7</title>
<ellipse fill="lightgrey" stroke="black" cx="227" cy="-126.99" rx="31.7" ry="18"/>
<text text-anchor="middle" x="227" y="-123.29" font-family="Times,serif" font-size="14.00">Co&#45;7</text>
</g>
<!-- x_7&#45;&gt;x_0 -->
<g id="edge3" class="edge">
<title>x_7&#45;&gt;x_0</title>
<path fill="none" stroke="black" d="M227,-108.93C227,-101.56 227,-92.54 227,-83.43"/>
<polygon fill="black" stroke="black" points="230.5,-83.19 227,-73.19 223.5,-83.19 230.5,-83.19"/>
</g>
<!-- x_10 -->
<g id="node5" class="node">
<title>x_10</title>
<ellipse fill="lightgrey" stroke="black" cx="315" cy="-126.99" rx="37.89" ry="18"/>
<text text-anchor="middle" x="315" y="-123.29" font-family="Times,serif" font-size="14.00">Co&#45;10</text>
</g>
<!-- x_10&#45;&gt;x_0 -->
<g id="edge4" class="edge">
<title>x_10&#45;&gt;x_0</title>
<path fill="none" stroke="black" d="M299.27,-110.17C288.26,-99.1 273.15,-83.9 259.59,-70.27"/>
<polygon fill="black" stroke="black" points="261.79,-67.52 252.25,-62.89 256.82,-72.45 261.79,-67.52"/>
</g>
<!-- x_13 -->
<g id="node6" class="node">
<title>x_13</title>
<ellipse fill="lightgrey" stroke="black" cx="408" cy="-126.99" rx="37.89" ry="18"/>
<text text-anchor="middle" x="408" y="-123.29" font-family="Times,serif" font-size="14.00">Co&#45;13</text>
</g>
<!-- x_13&#45;&gt;x_0 -->
<g id="edge5" class="edge">
<title>x_13&#45;&gt;x_0</title>
<path fill="none" stroke="black" d="M382.45,-113.5C352.84,-99.03 303.63,-74.96 268.51,-57.79"/>
<polygon fill="black" stroke="black" points="269.97,-54.61 259.45,-53.36 266.9,-60.9 269.97,-54.61"/>
</g>
<!-- x_2 -->
<g id="node7" class="node">
<title>x_2</title>
<ellipse fill="none" stroke="black" cx="18" cy="-203.74" rx="18" ry="18"/>
<text text-anchor="middle" x="18" y="-200.04" font-family="Times,serif" font-size="14.00">2</text>
</g>
<!-- x_2&#45;&gt;x_1 -->
<g id="edge6" class="edge">
<title>x_2&#45;&gt;x_1</title>
<path fill="none" stroke="black" d="M26.89,-187.97C32.87,-178.04 40.91,-164.68 47.89,-153.1"/>
<polygon fill="black" stroke="black" points="51.03,-154.66 53.19,-144.29 45.03,-151.05 51.03,-154.66"/>
</g>
<!-- x_3 -->
<g id="node8" class="node">
<title>x_3</title>
<ellipse fill="none" stroke="black" cx="64" cy="-285.24" rx="18" ry="18"/>
<text text-anchor="middle" x="64" y="-281.54" font-family="Times,serif" font-size="14.00">3</text>
</g>
<!-- x_3&#45;&gt;x_1 -->
<g id="edge7" class="edge">
<title>x_3&#45;&gt;x_1</title>
<path fill="none" stroke="gray" stroke-dasharray="5,2" d="M63.89,-267.22C63.72,-239.78 63.37,-185.58 63.16,-153.5"/>
<ellipse fill="gray" stroke="gray" cx="63.14" cy="-149.47" rx="4" ry="4"/>
</g>
<!-- x_5 -->
<g id="node9" class="node">
<title>x_5</title>
<ellipse fill="none" stroke="black" cx="114" cy="-203.74" rx="18" ry="18"/>
<text text-anchor="middle" x="114" y="-200.04" font-family="Times,serif" font-size="14.00">5</text>
</g>
<!-- x_5&#45;&gt;x_4 -->
<g id="edge8" class="edge">
<title>x_5&#45;&gt;x_4</title>
<path fill="none" stroke="black" d="M120.57,-186.89C124.52,-177.38 129.64,-165.04 134.17,-154.11"/>
<polygon fill="black" stroke="black" points="137.51,-155.18 138.11,-144.6 131.05,-152.5 137.51,-155.18"/>
</g>
<!-- x_6 -->
<g id="node10" class="node">
<title>x_6</title>
<ellipse fill="none" stroke="black" cx="160" cy="-285.24" rx="18" ry="18"/>
<text text-anchor="middle" x="160" y="-281.54" font-family="Times,serif" font-size="14.00">6</text>
</g>
<!-- x_6&#45;&gt;x_4 -->
<g id="edge9" class="edge">
<title>x_6&#45;&gt;x_4</title>
<path fill="none" stroke="gray" stroke-dasharray="5,2" d="M158.37,-267.22C155.72,-239.63 150.47,-185.01 147.4,-153"/>
<ellipse fill="gray" stroke="gray" cx="147.01" cy="-148.97" rx="4" ry="4"/>
</g>
<!-- x_8 -->
<g id="node11" class="node">
<title>x_8</title>
<ellipse fill="none" stroke="black" cx="208" cy="-203.74" rx="18" ry="18"/>
<text text-anchor="middle" x="208" y="-200.04" font-family="Times,serif" font-size="14.00">8</text>
</g>
<!-- x_8&#45;&gt;x_7 -->
<g id="edge10" class="edge">
<title>x_8&#45;&gt;x_7</title>
<path fill="none" stroke="black" d="M212.22,-186.15C214.55,-176.99 217.5,-165.39 220.15,-154.96"/>
<polygon fill="black" stroke="black" points="223.59,-155.61 222.66,-145.06 216.81,-153.88 223.59,-155.61"/>
</g>
<!-- x_9 -->
<g id="node12" class="node">
<title>x_9</title>
<ellipse fill="none" stroke="black" cx="254" cy="-285.24" rx="18" ry="18"/>
<text text-anchor="middle" x="254" y="-281.54" font-family="Times,serif" font-size="14.00">9</text>
</g>
<!-- x_9&#45;&gt;x_7 -->
<g id="edge11" class="edge">
<title>x_9&#45;&gt;x_7</title>
<path fill="none" stroke="gray" stroke-dasharray="5,2" d="M251.06,-267.22C246.29,-239.63 236.85,-185.01 231.32,-153"/>
<ellipse fill="gray" stroke="gray" cx="230.62" cy="-148.93" rx="4" ry="4"/>
</g>
<!-- x_11 -->
<g id="node13" class="node">
<title>x_11</title>
<ellipse fill="none" stroke="black" cx="306" cy="-203.74" rx="23" ry="23"/>
<text text-anchor="middle" x="306" y="-200.04" font-family="Times,serif" font-size="14.00">11</text>
</g>
<!-- x_11&#45;&gt;x_10 -->
<g id="edge12" class="edge">
<title>x_11&#45;&gt;x_10</title>
<path fill="none" stroke="black" d="M308.6,-181.12C309.57,-173.12 310.67,-163.93 311.69,-155.48"/>
<polygon fill="black" stroke="black" points="315.2,-155.65 312.92,-145.3 308.25,-154.81 315.2,-155.65"/>
</g>
<!-- x_12 -->
<g id="node14" class="node">
<title>x_12</title>
<ellipse fill="none" stroke="black" cx="357" cy="-285.24" rx="23" ry="23"/>
<text text-anchor="middle" x="357" y="-281.54" font-family="Times,serif" font-size="14.00">12</text>
</g>
<!-- x_12&#45;&gt;x_10 -->
<g id="edge13" class="edge">
<title>x_12&#45;&gt;x_10</title>
<path fill="none" stroke="gray" stroke-dasharray="5,2" d="M354.47,-262.54C351.66,-241.41 346.39,-208.54 338,-180.99 335.06,-171.35 330.88,-161.1 326.89,-152.22"/>
<ellipse fill="gray" stroke="gray" cx="325.15" cy="-148.44" rx="4" ry="4"/>
</g>
<!-- x_14 -->
<g id="node15" class="node">
<title>x_14</title>
<ellipse fill="none" stroke="black" cx="408" cy="-203.74" rx="23" ry="23"/>
<text text-anchor="middle" x="408" y="-200.04" font-family="Times,serif" font-size="14.00">14</text>
</g>
<!-- x_14&#45;&gt;x_13 -->
<g id="edge14" class="edge">
<title>x_14&#45;&gt;x_13</title>
<path fill="none" stroke="black" d="M408,-180.72C408,-172.73 408,-163.6 408,-155.21"/>
<polygon fill="black" stroke="black" points="411.5,-155.12 408,-145.12 404.5,-155.12 411.5,-155.12"/>
</g>
<!-- x_15 -->
<g id="node16" class="node">
<title>x_15</title>
<ellipse fill="none" stroke="black" cx="459" cy="-285.24" rx="23" ry="23"/>
<text text-anchor="middle" x="459" y="-281.54" font-family="Times,serif" font-size="14.00">15</text>
</g>
<!-- x_15&#45;&gt;x_13 -->
<g id="edge15" class="edge">
<title>x_15&#45;&gt;x_13</title>
<path fill="none" stroke="gray" stroke-dasharray="5,2" d="M457.27,-262.27C455.06,-240.94 450.21,-207.92 440,-180.99 436.09,-170.69 430.17,-160.13 424.49,-151.18"/>
<ellipse fill="gray" stroke="gray" cx="422.22" cy="-147.72" rx="4" ry="4"/>
</g>
</g>
</svg>