<?xml version="1.0" encoding="UTF-8" standalone="no"?>
<!DOCTYPE svg PUBLIC "-//W3C//DTD SVG 1.1//EN"
 "http://www.w3.org/Graphics/SVG/1.1/DTD/svg11.dtd">
<!-- Generated by graphviz version 2.43.0 (0)
 -->
<!-- Title: %3 Pages: 1 -->
<svg width="238pt" height="200pt"
 viewBox="0.00 0.00 238.07 200.08" xmlns="http://www.w3.org/2000/svg" xmlns:xlink="http://www.w3.org/1999/xlink">
<g id="graph0" class="graph" transform="scale(1 1) rotate(0) translate(4 196.08)">
<title>%3</title>
<polygon fill="white" stroke="transparent" points="-4,4 -4,-196.08 234.07,-196.08 234.07,4 -4,4"/>
<!-- hgf_loglike -->
<g id="node1" class="node">
<title>hgf_loglike</title>
<polygon fill="lightgrey" stroke="black" points="183.39,-23.74 183.39,-57.39 141.27,-81.19 81.72,-81.19 39.61,-57.39 39.61,-23.74 81.72,0.06 141.27,0.06 183.39,-23.74"/>
<text text-anchor="middle" x="111.5" y="-51.86" font-family="Times,serif" font-size="14.00">hgf_loglike</text>
<text text-anchor="middle" x="111.5" y="-36.86" font-family="Times,serif" font-size="14.00">~</text>
<text text-anchor="middle" x="111.5" y="-21.86" font-family="Times,serif" font-size="14.00">Potential</text>
</g>
<!-- mu_2 -->
<g id="node2" class="node">
<title>mu_2</title>
<ellipse fill="none" stroke="black" cx="49.5" cy="-154.61" rx="49.49" ry="37.45"/>
<text text-anchor="middle" x="49.5" y="-165.91" font-family="Times,serif" font-size="14.00">mu_2</text>
<text text-anchor="middle" x="49.5" y="-150.91" font-family="Times,serif" font-size="14.00">~</text>
<text text-anchor="middle" x="49.5" y="-135.91" font-family="Times,serif" font-size="14.00">Normal</text>
</g>
<!-- mu_2&#45;&gt;hgf_loglike -->
<g id="edge1" class="edge">
<title>mu_2&#45;&gt;hgf_loglike</title>
<path fill="none" stroke="black" d="M68.27,-119.69C73.4,-110.41 79.06,-100.18 84.55,-90.26"/>
<polygon fill="black" stroke="black" points="87.74,-91.72 89.52,-81.28 81.62,-88.33 87.74,-91.72"/>
</g>
<!-- omega_2 -->
<g id="node3" class="node">
<title>omega_2</title>
<ellipse fill="none" stroke="black" cx="173.5" cy="-154.61" rx="56.64" ry="37.45"/>
<text text-anchor="middle" x="173.5" y="-165.91" font-family="Times,serif" font-size="14.00">omega_2</text>
<text text-anchor="middle" x="173.5" y="-150.91" font-family="Times,serif" font-size="14.00">~</text>
<text text-anchor="middle" x="173.5" y="-135.91" font-family="Times,serif" font-size="14.00">Uniform</text>
</g>
<!-- omega_2&#45;&gt;hgf_loglike -->
<g id="edge2" class="edge">
<title>omega_2&#45;&gt;hgf_loglike</title>
<path fill="none" stroke="black" d="M154.39,-119.08C149.32,-109.92 143.76,-99.86 138.36,-90.11"/>
<polygon fill="black" stroke="black" points="141.38,-88.33 133.47,-81.27 135.25,-91.72 141.38,-88.33"/>
</g>
</g>
</svg>