<?xml version="1.0" encoding="UTF-8" standalone="no"?>
<!DOCTYPE svg PUBLIC "-//W3C//DTD SVG 1.1//EN"
 "http://www.w3.org/Graphics/SVG/1.1/DTD/svg11.dtd">
<!-- Generated by graphviz version 2.43.0 (0)
 -->
<!-- Title: %3 Pages: 1 -->
<svg width="746pt" height="200pt"
 viewBox="0.00 0.00 745.89 200.08" xmlns="http://www.w3.org/2000/svg" xmlns:xlink="http://www.w3.org/1999/xlink">
<g id="graph0" class="graph" transform="scale(1 1) rotate(0) translate(4 196.08)">
<title>%3</title>
<polygon fill="white" stroke="transparent" points="-4,4 -4,-196.08 741.89,-196.08 741.89,4 -4,4"/>
<!-- mu_1 -->
<g id="node1" class="node">
<title>mu_1</title>
<ellipse fill="none" stroke="black" cx="49.5" cy="-154.61" rx="49.49" ry="37.45"/>
<text text-anchor="middle" x="49.5" y="-165.91" font-family="Times,serif" font-size="14.00">mu_1</text>
<text text-anchor="middle" x="49.5" y="-150.91" font-family="Times,serif" font-size="14.00">~</text>
<text text-anchor="middle" x="49.5" y="-135.91" font-family="Times,serif" font-size="14.00">Normal</text>
</g>
<!-- hgf_loglike -->
<g id="node6" class="node">
<title>hgf_loglike</title>
<polygon fill="lightgrey" stroke="black" points="427.39,-23.74 427.39,-57.39 385.27,-81.19 325.72,-81.19 283.61,-57.39 283.61,-23.74 325.72,0.06 385.27,0.06 427.39,-23.74"/>
<text text-anchor="middle" x="355.5" y="-51.86" font-family="Times,serif" font-size="14.00">hgf_loglike</text>
<text text-anchor="middle" x="355.5" y="-36.86" font-family="Times,serif" font-size="14.00">~</text>
<text text-anchor="middle" x="355.5" y="-21.86" font-family="Times,serif" font-size="14.00">Potential</text>
</g>
<!-- mu_1&#45;&gt;hgf_loglike -->
<g id="edge3" class="edge">
<title>mu_1&#45;&gt;hgf_loglike</title>
<path fill="none" stroke="black" d="M85.81,-128.73C92.82,-124.52 100.25,-120.44 107.5,-117.13 161.23,-92.58 225.05,-73.34 274.5,-60.42"/>
<polygon fill="black" stroke="black" points="275.38,-63.81 284.19,-57.92 273.63,-57.03 275.38,-63.81"/>
</g>
<!-- omega_1 -->
<g id="node2" class="node">
<title>omega_1</title>
<ellipse fill="none" stroke="black" cx="173.5" cy="-154.61" rx="56.64" ry="37.45"/>
<text text-anchor="middle" x="173.5" y="-165.91" font-family="Times,serif" font-size="14.00">omega_1</text>
<text text-anchor="middle" x="173.5" y="-150.91" font-family="Times,serif" font-size="14.00">~</text>
<text text-anchor="middle" x="173.5" y="-135.91" font-family="Times,serif" font-size="14.00">Normal</text>
</g>
<!-- omega_1&#45;&gt;hgf_loglike -->
<g id="edge5" class="edge">
<title>omega_1&#45;&gt;hgf_loglike</title>
<path fill="none" stroke="black" d="M214.34,-128.46C239.21,-113.15 271.35,-93.36 298.68,-76.54"/>
<polygon fill="black" stroke="black" points="300.69,-79.41 307.37,-71.19 297.02,-73.45 300.69,-79.41"/>
</g>
<!-- mu_3 -->
<g id="node3" class="node">
<title>mu_3</title>
<ellipse fill="none" stroke="black" cx="297.5" cy="-154.61" rx="49.49" ry="37.45"/>
<text text-anchor="middle" x="297.5" y="-165.91" font-family="Times,serif" font-size="14.00">mu_3</text>
<text text-anchor="middle" x="297.5" y="-150.91" font-family="Times,serif" font-size="14.00">~</text>
<text text-anchor="middle" x="297.5" y="-135.91" font-family="Times,serif" font-size="14.00">Normal</text>
</g>
<!-- mu_3&#45;&gt;hgf_loglike -->
<g id="edge6" class="edge">
<title>mu_3&#45;&gt;hgf_loglike</title>
<path fill="none" stroke="black" d="M315.21,-119.38C319.91,-110.31 325.07,-100.34 330.09,-90.64"/>
<polygon fill="black" stroke="black" points="333.35,-91.96 334.84,-81.48 327.13,-88.75 333.35,-91.96"/>
</g>
<!-- mu_2 -->
<g id="node4" class="node">
<title>mu_2</title>
<ellipse fill="none" stroke="black" cx="414.5" cy="-154.61" rx="49.49" ry="37.45"/>
<text text-anchor="middle" x="414.5" y="-165.91" font-family="Times,serif" font-size="14.00">mu_2</text>
<text text-anchor="middle" x="414.5" y="-150.91" font-family="Times,serif" font-size="14.00">~</text>
<text text-anchor="middle" x="414.5" y="-135.91" font-family="Times,serif" font-size="14.00">Normal</text>
</g>
<!-- mu_2&#45;&gt;hgf_loglike -->
<g id="edge1" class="edge">
<title>mu_2&#45;&gt;hgf_loglike</title>
<path fill="none" stroke="black" d="M396.47,-119.38C391.65,-110.22 386.34,-100.13 381.18,-90.34"/>
<polygon fill="black" stroke="black" points="384.27,-88.69 376.51,-81.48 378.08,-91.95 384.27,-88.69"/>
</g>
<!-- omega_3 -->
<g id="node5" class="node">
<title>omega_3</title>
<ellipse fill="none" stroke="black" cx="541.5" cy="-154.61" rx="59.29" ry="37.45"/>
<text text-anchor="middle" x="541.5" y="-165.91" font-family="Times,serif" font-size="14.00">omega_3</text>
<text text-anchor="middle" x="541.5" y="-150.91" font-family="Times,serif" font-size="14.00">~</text>
<text text-anchor="middle" x="541.5" y="-135.91" font-family="Times,serif" font-size="14.00">Censored</text>
</g>
<!-- omega_3&#45;&gt;hgf_loglike -->
<g id="edge2" class="edge">
<title>omega_3&#45;&gt;hgf_loglike</title>
<path fill="none" stroke="black" d="M499.29,-128.18C473.76,-112.8 440.86,-92.98 412.97,-76.18"/>
<polygon fill="black" stroke="black" points="414.48,-73.01 404.11,-70.85 410.87,-79 414.48,-73.01"/>
</g>
<!-- omega_2 -->
<g id="node7" class="node">
<title>omega_2</title>
<ellipse fill="none" stroke="black" cx="678.5" cy="-154.61" rx="59.29" ry="37.45"/>
<text text-anchor="middle" x="678.5" y="-165.91" font-family="Times,serif" font-size="14.00">omega_2</text>
<text text-anchor="middle" x="678.5" y="-150.91" font-family="Times,serif" font-size="14.00">~</text>
<text text-anchor="middle" x="678.5" y="-135.91" font-family="Times,serif" font-size="14.00">Censored</text>
</g>
<!-- omega_2&#45;&gt;hgf_loglike -->
<g id="edge4" class="edge">
<title>omega_2&#45;&gt;hgf_loglike</title>
<path fill="none" stroke="black" d="M634.95,-128.93C626.63,-124.7 617.9,-120.56 609.5,-117.13 552.8,-93.97 486.38,-74.47 435.69,-61.07"/>
<polygon fill="black" stroke="black" points="436.32,-57.62 425.76,-58.48 434.55,-64.4 436.32,-57.62"/>
</g>
</g>
</svg>