<?xml version="1.0" encoding="UTF-8" standalone="no"?>
<!DOCTYPE svg PUBLIC "-//W3C//DTD SVG 1.1//EN"
 "http://www.w3.org/Graphics/SVG/1.1/DTD/svg11.dtd">
<!-- Generated by graphviz version 2.43.0 (0)
 -->
<!-- Title: %3 Pages: 1 -->
<svg width="746pt" height="200pt"
 viewBox="0.00 0.00 745.89 200.08" xmlns="http://www.w3.org/2000/svg" xmlns:xlink="http://www.w3.org/1999/xlink">
<g id="graph0" class="graph" transform="scale(1 1) rotate(0) translate(4 196.08)">
<title>%3</title>
<polygon fill="white" stroke="transparent" points="-4,4 -4,-196.08 741.89,-196.08 741.89,4 -4,4"/>
<!-- omega_3 -->
<g id="node1" class="node">
<title>omega_3</title>
<ellipse fill="none" stroke="black" cx="59.4" cy="-154.61" rx="59.29" ry="37.45"/>
<text text-anchor="middle" x="59.4" y="-165.91" font-family="Times,serif" font-size="14.00">omega_3</text>
<text text-anchor="middle" x="59.4" y="-150.91" font-family="Times,serif" font-size="14.00">~</text>
<text text-anchor="middle" x="59.4" y="-135.91" font-family="Times,serif" font-size="14.00">Censored</text>
</g>
<!-- hgf_loglike -->
<g id="node4" class="node">
<title>hgf_loglike</title>
<polygon fill="lightgrey" stroke="black" points="437.29,-23.74 437.29,-57.39 395.17,-81.19 335.62,-81.19 293.51,-57.39 293.51,-23.74 335.62,0.06 395.17,0.06 437.29,-23.74"/>
<text text-anchor="middle" x="365.4" y="-51.86" font-family="Times,serif" font-size="14.00">hgf_loglike</text>
<text text-anchor="middle" x="365.4" y="-36.86" font-family="Times,serif" font-size="14.00">~</text>
<text text-anchor="middle" x="365.4" y="-21.86" font-family="Times,serif" font-size="14.00">Potential</text>
</g>
<!-- omega_3&#45;&gt;hgf_loglike -->
<g id="edge1" class="edge">
<title>omega_3&#45;&gt;hgf_loglike</title>
<path fill="none" stroke="black" d="M103,-129.06C111.31,-124.82 120.03,-120.64 128.4,-117.13 180.35,-95.32 240.91,-76.11 287.8,-62.52"/>
<polygon fill="black" stroke="black" points="288.95,-65.83 297.59,-59.71 287.02,-59.1 288.95,-65.83"/>
</g>
<!-- mu_2 -->
<g id="node2" class="node">
<title>mu_2</title>
<ellipse fill="none" stroke="black" cx="186.4" cy="-154.61" rx="49.49" ry="37.45"/>
<text text-anchor="middle" x="186.4" y="-165.91" font-family="Times,serif" font-size="14.00">mu_2</text>
<text text-anchor="middle" x="186.4" y="-150.91" font-family="Times,serif" font-size="14.00">~</text>
<text text-anchor="middle" x="186.4" y="-135.91" font-family="Times,serif" font-size="14.00">Normal</text>
</g>
<!-- mu_2&#45;&gt;hgf_loglike -->
<g id="edge2" class="edge">
<title>mu_2&#45;&gt;hgf_loglike</title>
<path fill="none" stroke="black" d="M223.92,-130.12C248.53,-114.72 281.16,-94.29 308.88,-76.94"/>
<polygon fill="black" stroke="black" points="311.07,-79.7 317.69,-71.43 307.35,-73.77 311.07,-79.7"/>
</g>
<!-- mu_3 -->
<g id="node3" class="node">
<title>mu_3</title>
<ellipse fill="none" stroke="black" cx="303.4" cy="-154.61" rx="49.49" ry="37.45"/>
<text text-anchor="middle" x="303.4" y="-165.91" font-family="Times,serif" font-size="14.00">mu_3</text>
<text text-anchor="middle" x="303.4" y="-150.91" font-family="Times,serif" font-size="14.00">~</text>
<text text-anchor="middle" x="303.4" y="-135.91" font-family="Times,serif" font-size="14.00">Normal</text>
</g>
<!-- mu_3&#45;&gt;hgf_loglike -->
<g id="edge4" class="edge">
<title>mu_3&#45;&gt;hgf_loglike</title>
<path fill="none" stroke="black" d="M322.17,-119.69C327.3,-110.41 332.96,-100.18 338.45,-90.26"/>
<polygon fill="black" stroke="black" points="341.64,-91.72 343.42,-81.28 335.52,-88.33 341.64,-91.72"/>
</g>
<!-- omega_1 -->
<g id="node5" class="node">
<title>omega_1</title>
<ellipse fill="none" stroke="black" cx="427.4" cy="-154.61" rx="56.64" ry="37.45"/>
<text text-anchor="middle" x="427.4" y="-165.91" font-family="Times,serif" font-size="14.00">omega_1</text>
<text text-anchor="middle" x="427.4" y="-150.91" font-family="Times,serif" font-size="14.00">~</text>
<text text-anchor="middle" x="427.4" y="-135.91" font-family="Times,serif" font-size="14.00">Normal</text>
</g>
<!-- omega_1&#45;&gt;hgf_loglike -->
<g id="edge3" class="edge">
<title>omega_1&#45;&gt;hgf_loglike</title>
<path fill="none" stroke="black" d="M408.29,-119.08C403.22,-109.92 397.66,-99.86 392.26,-90.11"/>
<polygon fill="black" stroke="black" points="395.28,-88.33 387.37,-81.27 389.15,-91.72 395.28,-88.33"/>
</g>
<!-- omega_2 -->
<g id="node6" class="node">
<title>omega_2</title>
<ellipse fill="none" stroke="black" cx="561.4" cy="-154.61" rx="59.29" ry="37.45"/>
<text text-anchor="middle" x="561.4" y="-165.91" font-family="Times,serif" font-size="14.00">omega_2</text>
<text text-anchor="middle" x="561.4" y="-150.91" font-family="Times,serif" font-size="14.00">~</text>
<text text-anchor="middle" x="561.4" y="-135.91" font-family="Times,serif" font-size="14.00">Censored</text>
</g>
<!-- omega_2&#45;&gt;hgf_loglike -->
<g id="edge5" class="edge">
<title>omega_2&#45;&gt;hgf_loglike</title>
<path fill="none" stroke="black" d="M517.9,-128.74C490.29,-112.96 454.21,-92.33 424.08,-75.11"/>
<polygon fill="black" stroke="black" points="425.76,-72.04 415.34,-70.12 422.29,-78.12 425.76,-72.04"/>
</g>
<!-- mu_1 -->
<g id="node7" class="node">
<title>mu_1</title>
<ellipse fill="none" stroke="black" cx="688.4" cy="-154.61" rx="49.49" ry="37.45"/>
<text text-anchor="middle" x="688.4" y="-165.91" font-family="Times,serif" font-size="14.00">mu_1</text>
<text text-anchor="middle" x="688.4" y="-150.91" font-family="Times,serif" font-size="14.00">~</text>
<text text-anchor="middle" x="688.4" y="-135.91" font-family="Times,serif" font-size="14.00">Normal</text>
</g>
<!-- mu_1&#45;&gt;hgf_loglike -->
<g id="edge6" class="edge">
<title>mu_1&#45;&gt;hgf_loglike</title>
<path fill="none" stroke="black" d="M652.11,-129.03C644.79,-124.69 637,-120.49 629.4,-117.13 570.62,-91.14 500.53,-71.57 447.35,-58.86"/>
<polygon fill="black" stroke="black" points="447.82,-55.38 437.29,-56.49 446.22,-62.19 447.82,-55.38"/>
</g>
</g>
</svg>