<?xml version="1.0" encoding="UTF-8" standalone="no"?>
<!DOCTYPE svg PUBLIC "-//W3C//DTD SVG 1.1//EN"
 "http://www.w3.org/Graphics/SVG/1.1/DTD/svg11.dtd">
<!-- Generated by graphviz version 2.43.0 (0)
 -->
<!-- Title: %3 Pages: 1 -->
<svg width="492pt" height="200pt"
 viewBox="0.00 0.00 491.97 200.08" xmlns="http://www.w3.org/2000/svg" xmlns:xlink="http://www.w3.org/1999/xlink">
<g id="graph0" class="graph" transform="scale(1 1) rotate(0) translate(4 196.08)">
<title>%3</title>
<polygon fill="white" stroke="transparent" points="-4,4 -4,-196.08 487.97,-196.08 487.97,4 -4,4"/>
<!-- omega_2 -->
<g id="node1" class="node">
<title>omega_2</title>
<ellipse fill="none" stroke="black" cx="59.4" cy="-154.61" rx="59.29" ry="37.45"/>
<text text-anchor="middle" x="59.4" y="-165.91" font-family="Times,serif" font-size="14.00">omega_2</text>
<text text-anchor="middle" x="59.4" y="-150.91" font-family="Times,serif" font-size="14.00">~</text>
<text text-anchor="middle" x="59.4" y="-135.91" font-family="Times,serif" font-size="14.00">Censored</text>
</g>
<!-- hgf_loglike -->
<g id="node5" class="node">
<title>hgf_loglike</title>
<polygon fill="lightgrey" stroke="black" points="316.29,-23.74 316.29,-57.39 274.17,-81.19 214.62,-81.19 172.51,-57.39 172.51,-23.74 214.62,0.06 274.17,0.06 316.29,-23.74"/>
<text text-anchor="middle" x="244.4" y="-51.86" font-family="Times,serif" font-size="14.00">hgf_loglike</text>
<text text-anchor="middle" x="244.4" y="-36.86" font-family="Times,serif" font-size="14.00">~</text>
<text text-anchor="middle" x="244.4" y="-21.86" font-family="Times,serif" font-size="14.00">Potential</text>
</g>
<!-- omega_2&#45;&gt;hgf_loglike -->
<g id="edge4" class="edge">
<title>omega_2&#45;&gt;hgf_loglike</title>
<path fill="none" stroke="black" d="M101.84,-127.9C127.16,-112.57 159.63,-92.9 187.19,-76.21"/>
<polygon fill="black" stroke="black" points="189.21,-79.08 195.95,-70.91 185.58,-73.09 189.21,-79.08"/>
</g>
<!-- mu_1 -->
<g id="node2" class="node">
<title>mu_1</title>
<ellipse fill="none" stroke="black" cx="186.4" cy="-154.61" rx="49.49" ry="37.45"/>
<text text-anchor="middle" x="186.4" y="-165.91" font-family="Times,serif" font-size="14.00">mu_1</text>
<text text-anchor="middle" x="186.4" y="-150.91" font-family="Times,serif" font-size="14.00">~</text>
<text text-anchor="middle" x="186.4" y="-135.91" font-family="Times,serif" font-size="14.00">Normal</text>
</g>
<!-- mu_1&#45;&gt;hgf_loglike -->
<g id="edge1" class="edge">
<title>mu_1&#45;&gt;hgf_loglike</title>
<path fill="none" stroke="black" d="M204.11,-119.38C208.81,-110.31 213.97,-100.34 218.99,-90.64"/>
<polygon fill="black" stroke="black" points="222.25,-91.96 223.74,-81.48 216.03,-88.75 222.25,-91.96"/>
</g>
<!-- mu_2 -->
<g id="node3" class="node">
<title>mu_2</title>
<ellipse fill="none" stroke="black" cx="303.4" cy="-154.61" rx="49.49" ry="37.45"/>
<text text-anchor="middle" x="303.4" y="-165.91" font-family="Times,serif" font-size="14.00">mu_2</text>
<text text-anchor="middle" x="303.4" y="-150.91" font-family="Times,serif" font-size="14.00">~</text>
<text text-anchor="middle" x="303.4" y="-135.91" font-family="Times,serif" font-size="14.00">Normal</text>
</g>
<!-- mu_2&#45;&gt;hgf_loglike -->
<g id="edge3" class="edge">
<title>mu_2&#45;&gt;hgf_loglike</title>
<path fill="none" stroke="black" d="M285.37,-119.38C280.55,-110.22 275.24,-100.13 270.08,-90.34"/>
<polygon fill="black" stroke="black" points="273.17,-88.69 265.41,-81.48 266.98,-91.95 273.17,-88.69"/>
</g>
<!-- omega_1 -->
<g id="node4" class="node">
<title>omega_1</title>
<ellipse fill="none" stroke="black" cx="427.4" cy="-154.61" rx="56.64" ry="37.45"/>
<text text-anchor="middle" x="427.4" y="-165.91" font-family="Times,serif" font-size="14.00">omega_1</text>
<text text-anchor="middle" x="427.4" y="-150.91" font-family="Times,serif" font-size="14.00">~</text>
<text text-anchor="middle" x="427.4" y="-135.91" font-family="Times,serif" font-size="14.00">Normal</text>
</g>
<!-- omega_1&#45;&gt;hgf_loglike -->
<g id="edge2" class="edge">
<title>omega_1&#45;&gt;hgf_loglike</title>
<path fill="none" stroke="black" d="M386.33,-128.46C361.22,-113.09 328.76,-93.21 301.21,-76.35"/>
<polygon fill="black" stroke="black" points="302.81,-73.22 292.46,-70.99 299.16,-79.19 302.81,-73.22"/>
</g>
</g>
</svg>