<?xml version="1.0" encoding="UTF-8" standalone="no"?>
<!DOCTYPE svg PUBLIC "-//W3C//DTD SVG 1.1//EN"
 "http://www.w3.org/Graphics/SVG/1.1/DTD/svg11.dtd">
<!-- Generated by graphviz version 2.43.0 (0)
 -->
<!-- Title: %3 Pages: 1 -->
<svg width="514pt" height="308pt"
 viewBox="0.00 0.00 514.29 308.08" xmlns="http://www.w3.org/2000/svg" xmlns:xlink="http://www.w3.org/1999/xlink">
<g id="graph0" class="graph" transform="scale(1 1) rotate(0) translate(4 304.08)">
<title>%3</title>
<polygon fill="white" stroke="transparent" points="-4,4 -4,-304.08 510.29,-304.08 510.29,4 -4,4"/>
<g id="clust1" class="cluster">
<title>cluster8</title>
<path fill="none" stroke="black" d="M174.07,-89.13C174.07,-89.13 304.07,-89.13 304.07,-89.13 310.07,-89.13 316.07,-95.13 316.07,-101.13 316.07,-101.13 316.07,-280.08 316.07,-280.08 316.07,-286.08 310.07,-292.08 304.07,-292.08 304.07,-292.08 174.07,-292.08 174.07,-292.08 168.07,-292.08 162.07,-286.08 162.07,-280.08 162.07,-280.08 162.07,-101.13 162.07,-101.13 162.07,-95.13 168.07,-89.13 174.07,-89.13"/>
<text text-anchor="middle" x="303.07" y="-96.93" font-family="Times,serif" font-size="14.00">8</text>
</g>
<!-- mu_omega_1 -->
<g id="node1" class="node">
<title>mu_omega_1</title>
<ellipse fill="none" stroke="black" cx="77.07" cy="-246.61" rx="77.15" ry="37.45"/>
<text text-anchor="middle" x="77.07" y="-257.91" font-family="Times,serif" font-size="14.00">mu_omega_1</text>
<text text-anchor="middle" x="77.07" y="-242.91" font-family="Times,serif" font-size="14.00">~</text>
<text text-anchor="middle" x="77.07" y="-227.91" font-family="Times,serif" font-size="14.00">Normal</text>
</g>
<!-- tonic_volatility_1 -->
<g id="node5" class="node">
<title>tonic_volatility_1</title>
<polygon fill="none" stroke="black" points="307.57,-173.13 170.57,-173.13 170.57,-120.13 307.57,-120.13 307.57,-173.13"/>
<text text-anchor="middle" x="239.07" y="-157.93" font-family="Times,serif" font-size="14.00">tonic_volatility_1</text>
<text text-anchor="middle" x="239.07" y="-142.93" font-family="Times,serif" font-size="14.00">~</text>
<text text-anchor="middle" x="239.07" y="-127.93" font-family="Times,serif" font-size="14.00">Deterministic</text>
</g>
<!-- mu_omega_1&#45;&gt;tonic_volatility_1 -->
<g id="edge2" class="edge">
<title>mu_omega_1&#45;&gt;tonic_volatility_1</title>
<path fill="none" stroke="black" d="M124.37,-217C144.3,-204.95 167.54,-190.89 187.88,-178.59"/>
<polygon fill="black" stroke="black" points="189.95,-181.43 196.69,-173.26 186.33,-175.44 189.95,-181.43"/>
</g>
<!-- sigma_omega_1 -->
<g id="node2" class="node">
<title>sigma_omega_1</title>
<ellipse fill="none" stroke="black" cx="415.07" cy="-246.61" rx="91.43" ry="37.45"/>
<text text-anchor="middle" x="415.07" y="-257.91" font-family="Times,serif" font-size="14.00">sigma_omega_1</text>
<text text-anchor="middle" x="415.07" y="-242.91" font-family="Times,serif" font-size="14.00">~</text>
<text text-anchor="middle" x="415.07" y="-227.91" font-family="Times,serif" font-size="14.00">HalfCauchy</text>
</g>
<!-- sigma_omega_1&#45;&gt;tonic_volatility_1 -->
<g id="edge3" class="edge">
<title>sigma_omega_1&#45;&gt;tonic_volatility_1</title>
<path fill="none" stroke="black" d="M361.79,-215.94C340.27,-203.96 315.45,-190.15 293.79,-178.09"/>
<polygon fill="black" stroke="black" points="295.47,-175.02 285.03,-173.21 292.07,-181.14 295.47,-175.02"/>
</g>
<!-- hgf_loglike -->
<g id="node3" class="node">
<title>hgf_loglike</title>
<polygon fill="lightgrey" stroke="black" points="310.96,-23.74 310.96,-57.39 268.85,-81.19 209.3,-81.19 167.19,-57.39 167.19,-23.74 209.3,0.06 268.85,0.06 310.96,-23.74"/>
<text text-anchor="middle" x="239.07" y="-51.86" font-family="Times,serif" font-size="14.00">hgf_loglike</text>
<text text-anchor="middle" x="239.07" y="-36.86" font-family="Times,serif" font-size="14.00">~</text>
<text text-anchor="middle" x="239.07" y="-21.86" font-family="Times,serif" font-size="14.00">Potential</text>
</g>
<!-- offset -->
<g id="node4" class="node">
<title>offset</title>
<ellipse fill="none" stroke="black" cx="239.07" cy="-246.61" rx="49.49" ry="37.45"/>
<text text-anchor="middle" x="239.07" y="-257.91" font-family="Times,serif" font-size="14.00">offset</text>
<text text-anchor="middle" x="239.07" y="-242.91" font-family="Times,serif" font-size="14.00">~</text>
<text text-anchor="middle" x="239.07" y="-227.91" font-family="Times,serif" font-size="14.00">Normal</text>
</g>
<!-- offset&#45;&gt;tonic_volatility_1 -->
<g id="edge1" class="edge">
<title>offset&#45;&gt;tonic_volatility_1</title>
<path fill="none" stroke="black" d="M239.07,-209.12C239.07,-200.71 239.07,-191.76 239.07,-183.38"/>
<polygon fill="black" stroke="black" points="242.57,-183.14 239.07,-173.14 235.57,-183.14 242.57,-183.14"/>
</g>
<!-- tonic_volatility_1&#45;&gt;hgf_loglike -->
<g id="edge4" class="edge">
<title>tonic_volatility_1&#45;&gt;hgf_loglike</title>
<path fill="none" stroke="black" d="M239.07,-119.91C239.07,-111.24 239.07,-101.25 239.07,-91.37"/>
<polygon fill="black" stroke="black" points="242.57,-91.17 239.07,-81.17 235.57,-91.17 242.57,-91.17"/>
</g>
</g>
</svg>