<?xml version="1.0" encoding="UTF-8" standalone="no"?>
<!DOCTYPE svg PUBLIC "-//W3C//DTD SVG 1.1//EN"
 "http://www.w3.org/Graphics/SVG/1.1/DTD/svg11.dtd">
<!-- Generated by graphviz version 2.43.0 (0)
 -->
<!-- Title: %3 Pages: 1 -->
<svg width="490pt" height="308pt"
 viewBox="0.00 0.00 490.29 308.08" xmlns="http://www.w3.org/2000/svg" xmlns:xlink="http://www.w3.org/1999/xlink">
<g id="graph0" class="graph" transform="scale(1 1) rotate(0) translate(4 304.08)">
<title>%3</title>
<polygon fill="white" stroke="transparent" points="-4,4 -4,-304.08 486.29,-304.08 486.29,4 -4,4"/>
<g id="clust1" class="cluster">
<title>cluster5</title>
<path fill="none" stroke="black" d="M202.22,-89.13C202.22,-89.13 308.22,-89.13 308.22,-89.13 314.22,-89.13 320.22,-95.13 320.22,-101.13 320.22,-101.13 320.22,-280.08 320.22,-280.08 320.22,-286.08 314.22,-292.08 308.22,-292.08 308.22,-292.08 202.22,-292.08 202.22,-292.08 196.22,-292.08 190.22,-286.08 190.22,-280.08 190.22,-280.08 190.22,-101.13 190.22,-101.13 190.22,-95.13 196.22,-89.13 202.22,-89.13"/>
<text text-anchor="middle" x="307.22" y="-96.93" font-family="Times,serif" font-size="14.00">5</text>
</g>
<!-- sigma_omega_1 -->
<g id="node1" class="node">
<title>sigma_omega_1</title>
<ellipse fill="none" stroke="black" cx="91.22" cy="-246.61" rx="91.43" ry="37.45"/>
<text text-anchor="middle" x="91.22" y="-257.91" font-family="Times,serif" font-size="14.00">sigma_omega_1</text>
<text text-anchor="middle" x="91.22" y="-242.91" font-family="Times,serif" font-size="14.00">~</text>
<text text-anchor="middle" x="91.22" y="-227.91" font-family="Times,serif" font-size="14.00">HalfCauchy</text>
</g>
<!-- omega_2 -->
<g id="node5" class="node">
<title>omega_2</title>
<polygon fill="none" stroke="black" points="312.22,-173.13 198.22,-173.13 198.22,-120.13 312.22,-120.13 312.22,-173.13"/>
<text text-anchor="middle" x="255.22" y="-157.93" font-family="Times,serif" font-size="14.00">omega_2</text>
<text text-anchor="middle" x="255.22" y="-142.93" font-family="Times,serif" font-size="14.00">~</text>
<text text-anchor="middle" x="255.22" y="-127.93" font-family="Times,serif" font-size="14.00">Deterministic</text>
</g>
<!-- sigma_omega_1&#45;&gt;omega_2 -->
<g id="edge3" class="edge">
<title>sigma_omega_1&#45;&gt;omega_2</title>
<path fill="none" stroke="black" d="M142.21,-215.14C161.78,-203.45 184.11,-190.11 203.73,-178.39"/>
<polygon fill="black" stroke="black" points="205.74,-181.26 212.53,-173.13 202.15,-175.26 205.74,-181.26"/>
</g>
<!-- mu_omega_1 -->
<g id="node2" class="node">
<title>mu_omega_1</title>
<ellipse fill="none" stroke="black" cx="405.22" cy="-246.61" rx="77.15" ry="37.45"/>
<text text-anchor="middle" x="405.22" y="-257.91" font-family="Times,serif" font-size="14.00">mu_omega_1</text>
<text text-anchor="middle" x="405.22" y="-242.91" font-family="Times,serif" font-size="14.00">~</text>
<text text-anchor="middle" x="405.22" y="-227.91" font-family="Times,serif" font-size="14.00">Uniform</text>
</g>
<!-- mu_omega_1&#45;&gt;omega_2 -->
<g id="edge2" class="edge">
<title>mu_omega_1&#45;&gt;omega_2</title>
<path fill="none" stroke="black" d="M359.8,-215.94C341.87,-204.23 321.25,-190.76 303.09,-178.9"/>
<polygon fill="black" stroke="black" points="304.67,-175.75 294.39,-173.21 300.85,-181.61 304.67,-175.75"/>
</g>
<!-- hgf_loglike -->
<g id="node3" class="node">
<title>hgf_loglike</title>
<polygon fill="lightgrey" stroke="black" points="327.11,-23.74 327.11,-57.39 284.99,-81.19 225.44,-81.19 183.33,-57.39 183.33,-23.74 225.44,0.06 284.99,0.06 327.11,-23.74"/>
<text text-anchor="middle" x="255.22" y="-51.86" font-family="Times,serif" font-size="14.00">hgf_loglike</text>
<text text-anchor="middle" x="255.22" y="-36.86" font-family="Times,serif" font-size="14.00">~</text>
<text text-anchor="middle" x="255.22" y="-21.86" font-family="Times,serif" font-size="14.00">Potential</text>
</g>
<!-- offset -->
<g id="node4" class="node">
<title>offset</title>
<ellipse fill="none" stroke="black" cx="255.22" cy="-246.61" rx="49.49" ry="37.45"/>
<text text-anchor="middle" x="255.22" y="-257.91" font-family="Times,serif" font-size="14.00">offset</text>
<text text-anchor="middle" x="255.22" y="-242.91" font-family="Times,serif" font-size="14.00">~</text>
<text text-anchor="middle" x="255.22" y="-227.91" font-family="Times,serif" font-size="14.00">Normal</text>
</g>
<!-- offset&#45;&gt;omega_2 -->
<g id="edge1" class="edge">
<title>offset&#45;&gt;omega_2</title>
<path fill="none" stroke="black" d="M255.22,-209.12C255.22,-200.71 255.22,-191.76 255.22,-183.38"/>
<polygon fill="black" stroke="black" points="258.72,-183.14 255.22,-173.14 251.72,-183.14 258.72,-183.14"/>
</g>
<!-- omega_2&#45;&gt;hgf_loglike -->
<g id="edge4" class="edge">
<title>omega_2&#45;&gt;hgf_loglike</title>
<path fill="none" stroke="black" d="M255.22,-119.91C255.22,-111.24 255.22,-101.25 255.22,-91.37"/>
<polygon fill="black" stroke="black" points="258.72,-91.17 255.22,-81.17 251.72,-91.17 258.72,-91.17"/>
</g>
</g>
</svg>