<?xml version="1.0" encoding="UTF-8" standalone="no"?>
<!DOCTYPE svg PUBLIC "-//W3C//DTD SVG 1.1//EN"
 "http://www.w3.org/Graphics/SVG/1.1/DTD/svg11.dtd">
<!-- Generated by graphviz version 2.43.0 (0)
 -->
<!-- Title: %3 Pages: 1 -->
<svg width="492pt" height="200pt"
 viewBox="0.00 0.00 492.07 200.08" xmlns="http://www.w3.org/2000/svg" xmlns:xlink="http://www.w3.org/1999/xlink">
<g id="graph0" class="graph" transform="scale(1 1) rotate(0) translate(4 196.08)">
<title>%3</title>
<polygon fill="white" stroke="transparent" points="-4,4 -4,-196.08 488.07,-196.08 488.07,4 -4,4"/>
<!-- omega_1 -->
<g id="node1" class="node">
<title>omega_1</title>
<ellipse fill="none" stroke="black" cx="56.57" cy="-154.61" rx="56.64" ry="37.45"/>
<text text-anchor="middle" x="56.57" y="-165.91" font-family="Times,serif" font-size="14.00">omega_1</text>
<text text-anchor="middle" x="56.57" y="-150.91" font-family="Times,serif" font-size="14.00">~</text>
<text text-anchor="middle" x="56.57" y="-135.91" font-family="Times,serif" font-size="14.00">Normal</text>
</g>
<!-- hgf_loglike -->
<g id="node5" class="node">
<title>hgf_loglike</title>
<polygon fill="lightgrey" stroke="black" points="315.46,-23.74 315.46,-57.39 273.35,-81.19 213.79,-81.19 171.68,-57.39 171.68,-23.74 213.79,0.06 273.35,0.06 315.46,-23.74"/>
<text text-anchor="middle" x="243.57" y="-51.86" font-family="Times,serif" font-size="14.00">hgf_loglike</text>
<text text-anchor="middle" x="243.57" y="-36.86" font-family="Times,serif" font-size="14.00">~</text>
<text text-anchor="middle" x="243.57" y="-21.86" font-family="Times,serif" font-size="14.00">Potential</text>
</g>
<!-- omega_1&#45;&gt;hgf_loglike -->
<g id="edge1" class="edge">
<title>omega_1&#45;&gt;hgf_loglike</title>
<path fill="none" stroke="black" d="M98.07,-128.74C124.01,-113.2 157.78,-92.97 186.25,-75.91"/>
<polygon fill="black" stroke="black" points="188.12,-78.87 194.9,-70.72 184.52,-72.86 188.12,-78.87"/>
</g>
<!-- mu_2 -->
<g id="node2" class="node">
<title>mu_2</title>
<ellipse fill="none" stroke="black" cx="180.57" cy="-154.61" rx="49.49" ry="37.45"/>
<text text-anchor="middle" x="180.57" y="-165.91" font-family="Times,serif" font-size="14.00">mu_2</text>
<text text-anchor="middle" x="180.57" y="-150.91" font-family="Times,serif" font-size="14.00">~</text>
<text text-anchor="middle" x="180.57" y="-135.91" font-family="Times,serif" font-size="14.00">Normal</text>
</g>
<!-- mu_2&#45;&gt;hgf_loglike -->
<g id="edge4" class="edge">
<title>mu_2&#45;&gt;hgf_loglike</title>
<path fill="none" stroke="black" d="M199.64,-119.69C204.85,-110.41 210.61,-100.18 216.19,-90.26"/>
<polygon fill="black" stroke="black" points="219.39,-91.71 221.24,-81.28 213.29,-88.28 219.39,-91.71"/>
</g>
<!-- omega_2 -->
<g id="node3" class="node">
<title>omega_2</title>
<ellipse fill="none" stroke="black" cx="307.57" cy="-154.61" rx="59.29" ry="37.45"/>
<text text-anchor="middle" x="307.57" y="-165.91" font-family="Times,serif" font-size="14.00">omega_2</text>
<text text-anchor="middle" x="307.57" y="-150.91" font-family="Times,serif" font-size="14.00">~</text>
<text text-anchor="middle" x="307.57" y="-135.91" font-family="Times,serif" font-size="14.00">Censored</text>
</g>
<!-- omega_2&#45;&gt;hgf_loglike -->
<g id="edge2" class="edge">
<title>omega_2&#45;&gt;hgf_loglike</title>
<path fill="none" stroke="black" d="M287.84,-119.08C282.61,-109.92 276.87,-99.86 271.3,-90.11"/>
<polygon fill="black" stroke="black" points="274.25,-88.22 266.25,-81.27 268.17,-91.69 274.25,-88.22"/>
</g>
<!-- mu_1 -->
<g id="node4" class="node">
<title>mu_1</title>
<ellipse fill="none" stroke="black" cx="434.57" cy="-154.61" rx="49.49" ry="37.45"/>
<text text-anchor="middle" x="434.57" y="-165.91" font-family="Times,serif" font-size="14.00">mu_1</text>
<text text-anchor="middle" x="434.57" y="-150.91" font-family="Times,serif" font-size="14.00">~</text>
<text text-anchor="middle" x="434.57" y="-135.91" font-family="Times,serif" font-size="14.00">Normal</text>
</g>
<!-- mu_1&#45;&gt;hgf_loglike -->
<g id="edge3" class="edge">
<title>mu_1&#45;&gt;hgf_loglike</title>
<path fill="none" stroke="black" d="M396.91,-130.06C389.85,-125.72 382.5,-121.26 375.57,-117.13 351.93,-103.06 325.67,-87.93 302.84,-74.93"/>
<polygon fill="black" stroke="black" points="304.37,-71.77 293.94,-69.87 300.91,-77.86 304.37,-71.77"/>
</g>
</g>
</svg>