<?xml version="1.0" encoding="UTF-8" standalone="no"?>
<!DOCTYPE svg PUBLIC "-//W3C//DTD SVG 1.1//EN"
 "http://www.w3.org/Graphics/SVG/1.1/DTD/svg11.dtd">
<!-- Generated by graphviz version 2.43.0 (0)
 -->
<!-- Title: %3 Pages: 1 -->
<svg width="746pt" height="200pt"
 viewBox="0.00 0.00 745.89 200.08" xmlns="http://www.w3.org/2000/svg" xmlns:xlink="http://www.w3.org/1999/xlink">
<g id="graph0" class="graph" transform="scale(1 1) rotate(0) translate(4 196.08)">
<title>%3</title>
<polygon fill="white" stroke="transparent" points="-4,4 -4,-196.08 741.89,-196.08 741.89,4 -4,4"/>
<!-- mu_3 -->
<g id="node1" class="node">
<title>mu_3</title>
<ellipse fill="none" stroke="black" cx="49.5" cy="-154.61" rx="49.49" ry="37.45"/>
<text text-anchor="middle" x="49.5" y="-165.91" font-family="Times,serif" font-size="14.00">mu_3</text>
<text text-anchor="middle" x="49.5" y="-150.91" font-family="Times,serif" font-size="14.00">~</text>
<text text-anchor="middle" x="49.5" y="-135.91" font-family="Times,serif" font-size="14.00">Normal</text>
</g>
<!-- hgf_loglike -->
<g id="node2" class="node">
<title>hgf_loglike</title>
<polygon fill="lightgrey" stroke="black" points="417.39,-23.74 417.39,-57.39 375.27,-81.19 315.72,-81.19 273.61,-57.39 273.61,-23.74 315.72,0.06 375.27,0.06 417.39,-23.74"/>
<text text-anchor="middle" x="345.5" y="-51.86" font-family="Times,serif" font-size="14.00">hgf_loglike</text>
<text text-anchor="middle" x="345.5" y="-36.86" font-family="Times,serif" font-size="14.00">~</text>
<text text-anchor="middle" x="345.5" y="-21.86" font-family="Times,serif" font-size="14.00">Potential</text>
</g>
<!-- mu_3&#45;&gt;hgf_loglike -->
<g id="edge2" class="edge">
<title>mu_3&#45;&gt;hgf_loglike</title>
<path fill="none" stroke="black" d="M86.18,-129.02C93.41,-124.73 101.06,-120.55 108.5,-117.13 159.32,-93.75 219.39,-74.68 266.34,-61.55"/>
<polygon fill="black" stroke="black" points="267.44,-64.88 276.15,-58.84 265.58,-58.13 267.44,-64.88"/>
</g>
<!-- mu_2 -->
<g id="node3" class="node">
<title>mu_2</title>
<ellipse fill="none" stroke="black" cx="166.5" cy="-154.61" rx="49.49" ry="37.45"/>
<text text-anchor="middle" x="166.5" y="-165.91" font-family="Times,serif" font-size="14.00">mu_2</text>
<text text-anchor="middle" x="166.5" y="-150.91" font-family="Times,serif" font-size="14.00">~</text>
<text text-anchor="middle" x="166.5" y="-135.91" font-family="Times,serif" font-size="14.00">Normal</text>
</g>
<!-- mu_2&#45;&gt;hgf_loglike -->
<g id="edge5" class="edge">
<title>mu_2&#45;&gt;hgf_loglike</title>
<path fill="none" stroke="black" d="M204.02,-130.12C228.63,-114.72 261.26,-94.29 288.98,-76.94"/>
<polygon fill="black" stroke="black" points="291.17,-79.7 297.79,-71.43 287.45,-73.77 291.17,-79.7"/>
</g>
<!-- mu_1 -->
<g id="node4" class="node">
<title>mu_1</title>
<ellipse fill="none" stroke="black" cx="283.5" cy="-154.61" rx="49.49" ry="37.45"/>
<text text-anchor="middle" x="283.5" y="-165.91" font-family="Times,serif" font-size="14.00">mu_1</text>
<text text-anchor="middle" x="283.5" y="-150.91" font-family="Times,serif" font-size="14.00">~</text>
<text text-anchor="middle" x="283.5" y="-135.91" font-family="Times,serif" font-size="14.00">Normal</text>
</g>
<!-- mu_1&#45;&gt;hgf_loglike -->
<g id="edge1" class="edge">
<title>mu_1&#45;&gt;hgf_loglike</title>
<path fill="none" stroke="black" d="M302.27,-119.69C307.4,-110.41 313.06,-100.18 318.55,-90.26"/>
<polygon fill="black" stroke="black" points="321.74,-91.72 323.52,-81.28 315.62,-88.33 321.74,-91.72"/>
</g>
<!-- omega_1 -->
<g id="node5" class="node">
<title>omega_1</title>
<ellipse fill="none" stroke="black" cx="407.5" cy="-154.61" rx="56.64" ry="37.45"/>
<text text-anchor="middle" x="407.5" y="-165.91" font-family="Times,serif" font-size="14.00">omega_1</text>
<text text-anchor="middle" x="407.5" y="-150.91" font-family="Times,serif" font-size="14.00">~</text>
<text text-anchor="middle" x="407.5" y="-135.91" font-family="Times,serif" font-size="14.00">Normal</text>
</g>
<!-- omega_1&#45;&gt;hgf_loglike -->
<g id="edge6" class="edge">
<title>omega_1&#45;&gt;hgf_loglike</title>
<path fill="none" stroke="black" d="M388.39,-119.08C383.32,-109.92 377.76,-99.86 372.36,-90.11"/>
<polygon fill="black" stroke="black" points="375.38,-88.33 367.47,-81.27 369.25,-91.72 375.38,-88.33"/>
</g>
<!-- omega_2 -->
<g id="node6" class="node">
<title>omega_2</title>
<ellipse fill="none" stroke="black" cx="541.5" cy="-154.61" rx="59.29" ry="37.45"/>
<text text-anchor="middle" x="541.5" y="-165.91" font-family="Times,serif" font-size="14.00">omega_2</text>
<text text-anchor="middle" x="541.5" y="-150.91" font-family="Times,serif" font-size="14.00">~</text>
<text text-anchor="middle" x="541.5" y="-135.91" font-family="Times,serif" font-size="14.00">Censored</text>
</g>
<!-- omega_2&#45;&gt;hgf_loglike -->
<g id="edge3" class="edge">
<title>omega_2&#45;&gt;hgf_loglike</title>
<path fill="none" stroke="black" d="M498,-128.74C470.39,-112.96 434.31,-92.33 404.18,-75.11"/>
<polygon fill="black" stroke="black" points="405.86,-72.04 395.44,-70.12 402.39,-78.12 405.86,-72.04"/>
</g>
<!-- omega_3 -->
<g id="node7" class="node">
<title>omega_3</title>
<ellipse fill="none" stroke="black" cx="678.5" cy="-154.61" rx="59.29" ry="37.45"/>
<text text-anchor="middle" x="678.5" y="-165.91" font-family="Times,serif" font-size="14.00">omega_3</text>
<text text-anchor="middle" x="678.5" y="-150.91" font-family="Times,serif" font-size="14.00">~</text>
<text text-anchor="middle" x="678.5" y="-135.91" font-family="Times,serif" font-size="14.00">Censored</text>
</g>
<!-- omega_3&#45;&gt;hgf_loglike -->
<g id="edge4" class="edge">
<title>omega_3&#45;&gt;hgf_loglike</title>
<path fill="none" stroke="black" d="M634.97,-128.86C626.66,-124.63 617.92,-120.52 609.5,-117.13 549.87,-93.14 479.83,-73.46 426.89,-60.2"/>
<polygon fill="black" stroke="black" points="427.42,-56.73 416.87,-57.72 425.73,-63.53 427.42,-56.73"/>
</g>
</g>
</svg>