<?xml version="1.0" encoding="UTF-8" standalone="no"?>
<!DOCTYPE svg PUBLIC "-//W3C//DTD SVG 1.1//EN"
 "http://www.w3.org/Graphics/SVG/1.1/DTD/svg11.dtd">
<!-- Generated by graphviz version 2.43.0 (0)
 -->
<!-- Title: %3 Pages: 1 -->
<svg width="492pt" height="200pt"
 viewBox="0.00 0.00 491.89 200.08" xmlns="http://www.w3.org/2000/svg" xmlns:xlink="http://www.w3.org/1999/xlink">
<g id="graph0" class="graph" transform="scale(1 1) rotate(0) translate(4 196.08)">
<title>%3</title>
<polygon fill="white" stroke="transparent" points="-4,4 -4,-196.08 487.89,-196.08 487.89,4 -4,4"/>
<!-- omega_2 -->
<g id="node1" class="node">
<title>omega_2</title>
<ellipse fill="none" stroke="black" cx="59.4" cy="-154.61" rx="59.29" ry="37.45"/>
<text text-anchor="middle" x="59.4" y="-165.91" font-family="Times,serif" font-size="14.00">omega_2</text>
<text text-anchor="middle" x="59.4" y="-150.91" font-family="Times,serif" font-size="14.00">~</text>
<text text-anchor="middle" x="59.4" y="-135.91" font-family="Times,serif" font-size="14.00">Censored</text>
</g>
<!-- hgf_loglike -->
<g id="node2" class="node">
<title>hgf_loglike</title>
<polygon fill="lightgrey" stroke="black" points="327.29,-23.74 327.29,-57.39 285.17,-81.19 225.62,-81.19 183.51,-57.39 183.51,-23.74 225.62,0.06 285.17,0.06 327.29,-23.74"/>
<text text-anchor="middle" x="255.4" y="-51.86" font-family="Times,serif" font-size="14.00">hgf_loglike</text>
<text text-anchor="middle" x="255.4" y="-36.86" font-family="Times,serif" font-size="14.00">~</text>
<text text-anchor="middle" x="255.4" y="-21.86" font-family="Times,serif" font-size="14.00">Potential</text>
</g>
<!-- omega_2&#45;&gt;hgf_loglike -->
<g id="edge2" class="edge">
<title>omega_2&#45;&gt;hgf_loglike</title>
<path fill="none" stroke="black" d="M102.9,-128.74C130.51,-112.96 166.58,-92.33 196.72,-75.11"/>
<polygon fill="black" stroke="black" points="198.51,-78.12 205.45,-70.12 195.03,-72.04 198.51,-78.12"/>
</g>
<!-- omega_1 -->
<g id="node3" class="node">
<title>omega_1</title>
<ellipse fill="none" stroke="black" cx="193.4" cy="-154.61" rx="56.64" ry="37.45"/>
<text text-anchor="middle" x="193.4" y="-165.91" font-family="Times,serif" font-size="14.00">omega_1</text>
<text text-anchor="middle" x="193.4" y="-150.91" font-family="Times,serif" font-size="14.00">~</text>
<text text-anchor="middle" x="193.4" y="-135.91" font-family="Times,serif" font-size="14.00">Normal</text>
</g>
<!-- omega_1&#45;&gt;hgf_loglike -->
<g id="edge1" class="edge">
<title>omega_1&#45;&gt;hgf_loglike</title>
<path fill="none" stroke="black" d="M212.5,-119.08C217.57,-109.92 223.14,-99.86 228.53,-90.11"/>
<polygon fill="black" stroke="black" points="231.64,-91.72 233.42,-81.27 225.52,-88.33 231.64,-91.72"/>
</g>
<!-- mu_2 -->
<g id="node4" class="node">
<title>mu_2</title>
<ellipse fill="none" stroke="black" cx="317.4" cy="-154.61" rx="49.49" ry="37.45"/>
<text text-anchor="middle" x="317.4" y="-165.91" font-family="Times,serif" font-size="14.00">mu_2</text>
<text text-anchor="middle" x="317.4" y="-150.91" font-family="Times,serif" font-size="14.00">~</text>
<text text-anchor="middle" x="317.4" y="-135.91" font-family="Times,serif" font-size="14.00">Normal</text>
</g>
<!-- mu_2&#45;&gt;hgf_loglike -->
<g id="edge3" class="edge">
<title>mu_2&#45;&gt;hgf_loglike</title>
<path fill="none" stroke="black" d="M298.63,-119.69C293.5,-110.41 287.83,-100.18 282.34,-90.26"/>
<polygon fill="black" stroke="black" points="285.28,-88.33 277.37,-81.28 279.15,-91.72 285.28,-88.33"/>
</g>
<!-- mu_1 -->
<g id="node5" class="node">
<title>mu_1</title>
<ellipse fill="none" stroke="black" cx="434.4" cy="-154.61" rx="49.49" ry="37.45"/>
<text text-anchor="middle" x="434.4" y="-165.91" font-family="Times,serif" font-size="14.00">mu_1</text>
<text text-anchor="middle" x="434.4" y="-150.91" font-family="Times,serif" font-size="14.00">~</text>
<text text-anchor="middle" x="434.4" y="-135.91" font-family="Times,serif" font-size="14.00">Normal</text>
</g>
<!-- mu_1&#45;&gt;hgf_loglike -->
<g id="edge4" class="edge">
<title>mu_1&#45;&gt;hgf_loglike</title>
<path fill="none" stroke="black" d="M396.87,-130.12C372.27,-114.72 339.64,-94.29 311.92,-76.94"/>
<polygon fill="black" stroke="black" points="313.44,-73.77 303.11,-71.43 309.73,-79.7 313.44,-73.77"/>
</g>
</g>
</svg>