<?xml version="1.0" encoding="UTF-8" standalone="no"?>
<!DOCTYPE svg PUBLIC "-//W3C//DTD SVG 1.1//EN"
 "http://www.w3.org/Graphics/SVG/1.1/DTD/svg11.dtd">
<!-- Generated by graphviz version 2.43.0 (0)
 -->
<!-- Title: %3 Pages: 1 -->
<svg width="746pt" height="200pt"
 viewBox="0.00 0.00 746.07 200.08" xmlns="http://www.w3.org/2000/svg" xmlns:xlink="http://www.w3.org/1999/xlink">
<g id="graph0" class="graph" transform="scale(1 1) rotate(0) translate(4 196.08)">
<title>%3</title>
<polygon fill="white" stroke="transparent" points="-4,4 -4,-196.08 742.07,-196.08 742.07,4 -4,4"/>
<!-- omega_1 -->
<g id="node1" class="node">
<title>omega_1</title>
<ellipse fill="none" stroke="black" cx="56.57" cy="-154.61" rx="56.64" ry="37.45"/>
<text text-anchor="middle" x="56.57" y="-165.91" font-family="Times,serif" font-size="14.00">omega_1</text>
<text text-anchor="middle" x="56.57" y="-150.91" font-family="Times,serif" font-size="14.00">~</text>
<text text-anchor="middle" x="56.57" y="-135.91" font-family="Times,serif" font-size="14.00">Normal</text>
</g>
<!-- hgf_loglike -->
<g id="node5" class="node">
<title>hgf_loglike</title>
<polygon fill="lightgrey" stroke="black" points="447.46,-23.74 447.46,-57.39 405.35,-81.19 345.79,-81.19 303.68,-57.39 303.68,-23.74 345.79,0.06 405.35,0.06 447.46,-23.74"/>
<text text-anchor="middle" x="375.57" y="-51.86" font-family="Times,serif" font-size="14.00">hgf_loglike</text>
<text text-anchor="middle" x="375.57" y="-36.86" font-family="Times,serif" font-size="14.00">~</text>
<text text-anchor="middle" x="375.57" y="-21.86" font-family="Times,serif" font-size="14.00">Potential</text>
</g>
<!-- omega_1&#45;&gt;hgf_loglike -->
<g id="edge1" class="edge">
<title>omega_1&#45;&gt;hgf_loglike</title>
<path fill="none" stroke="black" d="M98.15,-128.87C106.11,-124.64 114.48,-120.53 122.57,-117.13 178.74,-93.54 244.77,-74.08 295.28,-60.82"/>
<polygon fill="black" stroke="black" points="296.37,-64.15 305.17,-58.25 294.61,-57.38 296.37,-64.15"/>
</g>
<!-- omega_3 -->
<g id="node2" class="node">
<title>omega_3</title>
<ellipse fill="none" stroke="black" cx="190.57" cy="-154.61" rx="59.29" ry="37.45"/>
<text text-anchor="middle" x="190.57" y="-165.91" font-family="Times,serif" font-size="14.00">omega_3</text>
<text text-anchor="middle" x="190.57" y="-150.91" font-family="Times,serif" font-size="14.00">~</text>
<text text-anchor="middle" x="190.57" y="-135.91" font-family="Times,serif" font-size="14.00">Censored</text>
</g>
<!-- omega_3&#45;&gt;hgf_loglike -->
<g id="edge2" class="edge">
<title>omega_3&#45;&gt;hgf_loglike</title>
<path fill="none" stroke="black" d="M233.01,-127.9C258.33,-112.57 290.8,-92.9 318.36,-76.21"/>
<polygon fill="black" stroke="black" points="320.38,-79.08 327.12,-70.91 316.75,-73.09 320.38,-79.08"/>
</g>
<!-- mu_1 -->
<g id="node3" class="node">
<title>mu_1</title>
<ellipse fill="none" stroke="black" cx="317.57" cy="-154.61" rx="49.49" ry="37.45"/>
<text text-anchor="middle" x="317.57" y="-165.91" font-family="Times,serif" font-size="14.00">mu_1</text>
<text text-anchor="middle" x="317.57" y="-150.91" font-family="Times,serif" font-size="14.00">~</text>
<text text-anchor="middle" x="317.57" y="-135.91" font-family="Times,serif" font-size="14.00">Normal</text>
</g>
<!-- mu_1&#45;&gt;hgf_loglike -->
<g id="edge4" class="edge">
<title>mu_1&#45;&gt;hgf_loglike</title>
<path fill="none" stroke="black" d="M335.29,-119.38C339.98,-110.31 345.14,-100.34 350.16,-90.64"/>
<polygon fill="black" stroke="black" points="353.42,-91.96 354.91,-81.48 347.2,-88.75 353.42,-91.96"/>
</g>
<!-- mu_3 -->
<g id="node4" class="node">
<title>mu_3</title>
<ellipse fill="none" stroke="black" cx="434.57" cy="-154.61" rx="49.49" ry="37.45"/>
<text text-anchor="middle" x="434.57" y="-165.91" font-family="Times,serif" font-size="14.00">mu_3</text>
<text text-anchor="middle" x="434.57" y="-150.91" font-family="Times,serif" font-size="14.00">~</text>
<text text-anchor="middle" x="434.57" y="-135.91" font-family="Times,serif" font-size="14.00">Normal</text>
</g>
<!-- mu_3&#45;&gt;hgf_loglike -->
<g id="edge3" class="edge">
<title>mu_3&#45;&gt;hgf_loglike</title>
<path fill="none" stroke="black" d="M416.55,-119.38C411.72,-110.22 406.41,-100.13 401.26,-90.34"/>
<polygon fill="black" stroke="black" points="404.34,-88.69 396.59,-81.48 398.15,-91.95 404.34,-88.69"/>
</g>
<!-- omega_2 -->
<g id="node6" class="node">
<title>omega_2</title>
<ellipse fill="none" stroke="black" cx="561.57" cy="-154.61" rx="59.29" ry="37.45"/>
<text text-anchor="middle" x="561.57" y="-165.91" font-family="Times,serif" font-size="14.00">omega_2</text>
<text text-anchor="middle" x="561.57" y="-150.91" font-family="Times,serif" font-size="14.00">~</text>
<text text-anchor="middle" x="561.57" y="-135.91" font-family="Times,serif" font-size="14.00">Censored</text>
</g>
<!-- omega_2&#45;&gt;hgf_loglike -->
<g id="edge5" class="edge">
<title>omega_2&#45;&gt;hgf_loglike</title>
<path fill="none" stroke="black" d="M519.36,-128.18C493.83,-112.8 460.93,-92.98 433.04,-76.18"/>
<polygon fill="black" stroke="black" points="434.55,-73.01 424.18,-70.85 430.94,-79 434.55,-73.01"/>
</g>
<!-- mu_2 -->
<g id="node7" class="node">
<title>mu_2</title>
<ellipse fill="none" stroke="black" cx="688.57" cy="-154.61" rx="49.49" ry="37.45"/>
<text text-anchor="middle" x="688.57" y="-165.91" font-family="Times,serif" font-size="14.00">mu_2</text>
<text text-anchor="middle" x="688.57" y="-150.91" font-family="Times,serif" font-size="14.00">~</text>
<text text-anchor="middle" x="688.57" y="-135.91" font-family="Times,serif" font-size="14.00">Normal</text>
</g>
<!-- mu_2&#45;&gt;hgf_loglike -->
<g id="edge6" class="edge">
<title>mu_2&#45;&gt;hgf_loglike</title>
<path fill="none" stroke="black" d="M652.25,-129.09C644.93,-124.74 637.15,-120.53 629.57,-117.13 574.07,-92.25 508.17,-72.92 457.4,-60.04"/>
<polygon fill="black" stroke="black" points="458,-56.58 447.45,-57.55 456.3,-63.37 458,-56.58"/>
</g>
</g>
</svg>